<?xml version="1.0" encoding="utf-8"?>
<!-- Generator: Adobe Illustrator 16.0.0, SVG Export Plug-In . SVG Version: 6.00 Build 0)  -->
<!DOCTYPE svg PUBLIC "-//W3C//DTD SVG 1.1//EN" "http://www.w3.org/Graphics/SVG/1.1/DTD/svg11.dtd">
<svg version="1.1" id="svg" xmlns="http://www.w3.org/2000/svg" xmlns:xlink="http://www.w3.org/1999/xlink" x="0px" y="0px"
	 width="400px" height="400px" viewBox="0 0 400 400" enable-background="new 0 0 400 400" xml:space="preserve">
<g id="svgg">
	<path id="path0" fill="#3473BB" d="M192.3,1.3c-0.1,0.1-0.9,0.2-1.8,0.2c-2.4,0.1-6.6,0.5-7.8,0.7c-0.4,0.1-1.2,0.2-1.8,0.2
		c-1.6,0.2-1.8,0.2-2,0.4c-0.1,0.1-0.4,0.1-0.7,0.1c-0.2,0-0.5,0-0.7,0.1c-0.1,0.1-0.4,0.2-0.7,0.1c-0.2,0-0.5,0-0.7,0.1
		c-0.1,0.1-0.5,0.2-0.9,0.2c-0.7,0.1-1.6,0.2-1.6,0.3c0,0-0.3,0.1-0.7,0.1s-1,0.1-1.3,0.2c-0.3,0.1-0.8,0.2-1.1,0.3
		c-0.3,0.1-0.8,0.2-1.1,0.2c-0.3,0.1-0.8,0.2-1,0.2c-0.9,0.2-1.5,0.3-1.9,0.4c-0.2,0.1-0.7,0.2-0.9,0.2c-1.1,0.3-1.5,0.4-2,0.5
		C163.3,5.8,163,6,162.9,6c-0.2,0.1-0.5,0.2-1.7,0.4c-0.3,0.1-0.7,0.2-1,0.3c-0.2,0.1-0.4,0.2-0.4,0.1s-0.4,0-1,0.2
		c-0.5,0.2-1.2,0.4-1.4,0.4c-1,0.2-6.8,2.2-7.1,2.4c-0.2,0.1-0.4,0.3-0.6,0.3c-0.6,0-1.7,0.4-1.9,0.7c-0.1,0.2-0.4,0.3-0.5,0.2
		c-0.2-0.1-0.4,0-0.6,0.2c-0.2,0.2-0.4,0.3-0.6,0.2c-0.2-0.1-0.4,0-0.6,0.2c-0.2,0.2-0.4,0.3-0.6,0.2c-0.2-0.1-0.4,0-0.6,0.2
		c-0.2,0.2-0.4,0.3-0.6,0.2c-0.2-0.1-0.4,0-0.6,0.2c-0.2,0.2-0.4,0.3-0.5,0.2c-0.1-0.1-0.5,0.1-0.8,0.3c-0.4,0.3-0.7,0.4-0.8,0.3
		c-0.1-0.1-0.5,0.1-1,0.4c-0.5,0.3-1,0.5-1,0.5s-0.5,0.1-1,0.5c-0.5,0.3-0.9,0.5-1,0.5c-0.1-0.1-12.2,6-14.5,7.4
		c-0.6,0.4-1.6,0.9-2.3,1.2c-0.6,0.3-1.7,0.9-2.5,1.4c-0.7,0.4-2,1.1-2.7,1.5c-0.7,0.4-2.1,1.1-2.9,1.6
		c-4.1,2.3-19.7,10.2-20.1,10.2c-0.1,0-0.8,0.3-1.5,0.7c-0.7,0.4-1.3,0.6-1.4,0.6c-0.1,0-0.6,0.2-1,0.5c-0.5,0.3-0.9,0.5-1,0.4
		s-0.5,0.1-1,0.5c-0.5,0.3-1,0.5-1,0.4c-0.1-0.1-0.4,0.1-0.8,0.3c-0.4,0.3-0.7,0.4-0.8,0.3c-0.1-0.1-0.3,0-0.6,0.2
		c-0.2,0.2-0.5,0.3-0.6,0.2c-0.1-0.1-0.3,0-0.6,0.2c-0.2,0.2-0.5,0.3-0.6,0.2s-0.4,0.1-0.8,0.3c-0.4,0.3-0.7,0.4-0.8,0.3
		c-0.1-0.1-0.3,0-0.5,0.2c-0.2,0.2-0.6,0.3-0.9,0.4c-0.3,0-0.8,0.2-1,0.4c-0.2,0.2-0.5,0.3-0.5,0.2c-0.1-0.1-0.3,0-0.5,0.2
		c-0.2,0.2-0.6,0.3-0.9,0.4c-0.3,0-0.7,0.2-0.9,0.3c-0.2,0.2-0.5,0.3-0.7,0.3c-0.7,0.1-2.9,0.8-3.2,1.2c-0.2,0.2-0.4,0.3-0.5,0.2
		c-0.1-0.1-0.6,0-1.1,0.2c-0.5,0.2-1.2,0.4-1.5,0.4c-0.3,0.1-1.1,0.3-1.8,0.6c-0.7,0.3-1.6,0.5-1.9,0.6c-0.3,0.1-0.7,0.2-1,0.3
		s-0.4,0.2-0.4,0.1c0-0.1-0.4,0-0.8,0.2s-0.8,0.3-0.8,0.2c0-0.1-0.4,0-0.8,0.2c-0.4,0.2-0.8,0.3-0.8,0.2c0-0.1-0.3,0-0.6,0.1
		c-0.6,0.2-1,0.3-2.1,0.6c-0.3,0.1-0.6,0.2-0.7,0.2c-0.2,0.1-0.5,0.2-1.7,0.4c-0.3,0.1-0.7,0.2-1,0.3c-0.2,0.1-0.4,0.2-0.4,0.1
		s-0.4,0-0.8,0.2c-0.4,0.2-0.8,0.3-0.8,0.2c0-0.1-0.3,0-0.6,0.1c-0.6,0.2-0.9,0.3-1.9,0.5c-1.1,0.2-2.8,0.9-3.1,1.2
		c-0.2,0.2-0.4,0.3-0.5,0.2c-0.1-0.1-0.9,0.3-1.8,0.8c-0.9,0.5-2,1.1-2.4,1.3c-1,0.5-4.6,3.9-4.4,4.2c0.1,0.1,0,0.3-0.2,0.3
		c-0.2,0.1-0.3,0.2-0.2,0.3c0.1,0.1,0,0.3-0.2,0.3c-0.2,0.1-0.3,0.2-0.2,0.3c0.1,0.1,0,0.3-0.2,0.3c-0.2,0.1-0.3,0.2-0.2,0.3
		c0.1,0.1,0,0.2-0.1,0.2c-0.2,0-0.9,1.4-0.8,1.6c0,0.1,0,0.2-0.2,0.2c-0.1,0-0.2,0.1-0.2,0.2c0,0.1,0,0.2,0,0.3
		c0,0.1-0.1,0.3-0.1,0.4c0,0.1-0.1,0.3-0.1,0.3c0,0.1-0.1,0.2-0.1,0.3c0,0.1-0.1,0.3-0.1,0.3c0,0-0.1,0.2-0.1,0.4
		c0,0.2-0.1,0.6-0.2,0.8c-0.3,1.3-0.4,1.6-0.7,3.7c-0.3,2.2-0.4,11.6-0.4,65.9c0,52.6,0.1,69.8,0.4,73c0,0.4,0.1,1.9,0.2,3.4
		c0.1,1.5,0.2,3,0.2,3.4c0,0.4,0.1,1.4,0.2,2.4c0.1,0.9,0.2,2,0.2,2.4c0,0.4,0.1,1.2,0.2,1.8c0.3,2.5,0.9,6.8,1.2,8.4
		c0,0.2,0.1,0.8,0.2,1.2c0.1,0.4,0.2,1,0.2,1.4c0.1,0.3,0.2,1,0.2,1.4s0.2,1,0.2,1.4c0.1,0.3,0.2,0.8,0.2,1.1
		c0.1,0.3,0.2,0.8,0.2,1.1s0.2,0.8,0.2,1.1c0.1,0.3,0.2,0.8,0.2,1.1c0.1,0.3,0.2,0.8,0.2,1c0.2,0.9,0.3,1.5,0.4,1.9
		c0.1,0.2,0.2,0.7,0.2,0.9c0.1,0.2,0.2,0.7,0.2,0.9c0.1,0.2,0.2,0.7,0.2,0.9c0.2,0.7,0.4,1.4,0.4,1.8c0,0.2,0.1,0.3,0.1,0.3
		s0.1,0.2,0.1,0.3c0,0.2,0.1,0.6,0.2,0.9c0.1,0.3,0.2,0.7,0.2,0.9c0,0.2,0.1,0.4,0.1,0.4s0.1,0.2,0.1,0.3c0,0.1,0.1,0.3,0.1,0.3
		c0,0,0.1,0.3,0.1,0.5c0.2,0.7,0.3,1.1,0.3,1.2c0,0,0.1,0.2,0.1,0.3c0,0.1,0.1,0.3,0.1,0.3c0,0.1,0.1,0.2,0.1,0.3
		c0,0.1,0.1,0.3,0.1,0.3c0,0,0.1,0.2,0.1,0.5c0.1,0.2,0.1,0.6,0.2,0.8c0.1,0.2,0.1,0.4,0.1,0.5c0,0,0.1,0.2,0.1,0.3
		c0,0.1,0.1,0.3,0.1,0.4c0,0.1,0,0.2,0,0.3c0,0.1,0.1,0.2,0.2,0.2s0.2,0.1,0.1,0.1c-0.1,0.1,0,0.3,0.1,0.5c0.1,0.2,0.2,0.3,0.1,0.3
		c-0.1,0,0,0.2,0.1,0.3c0.2,0.2,0.2,0.3,0.1,0.3c-0.1,0,0,0.2,0.1,0.3c0.2,0.2,0.2,0.3,0.1,0.3c-0.1,0-0.1,0.1,0.1,0.3
		c0.1,0.2,0.2,0.4,0.1,0.5s0,0.1,0.1,0.1c0.2,0,0.2,0.1,0.1,0.2c-0.1,0.1,0,0.3,0.1,0.4c0.1,0.1,0.2,0.2,0.1,0.3s0,0.3,0.1,0.3
		c0.1,0.1,0.2,0.2,0.1,0.4c-0.1,0.1,0,0.2,0.1,0.2c0.1,0,0.2,0.1,0.1,0.2c-0.1,0.1,0,0.3,0.1,0.4c0.1,0.1,0.2,0.2,0.1,0.4
		c-0.1,0.1,0,0.2,0.1,0.2s0.2,0.1,0.1,0.2c-0.1,0.1,0,0.3,0.1,0.4c0.1,0.1,0.2,0.2,0.1,0.4c-0.1,0.1,0,0.2,0.1,0.2
		c0.1,0,0.2,0.1,0.1,0.2c-0.1,0.1,0,0.3,0.1,0.4c0.1,0.1,0.2,0.2,0.1,0.4c-0.1,0.1,0,0.2,0.1,0.2c0.1,0,0.2,0.1,0.1,0.2
		c-0.1,0.1,0,0.3,0.1,0.4c0.1,0.1,0.2,0.2,0.1,0.4c-0.1,0.1,0,0.2,0.1,0.2s0.2,0.1,0.1,0.1c-0.1,0.1,0,0.4,0.1,0.6
		c0.1,0.3,0.2,0.6,0.2,0.6c0,0.1,0.1,0.2,0.2,0.2s0.2,0.1,0.1,0.1c-0.1,0.1,0,0.5,0.2,0.8c0.2,0.4,0.4,0.8,0.3,0.9
		c0,0.1,0.1,0.2,0.2,0.2s0.2,0.1,0.1,0.1c-0.1,0.1,0.1,0.6,0.3,1.1s0.5,1,0.4,1.1c0,0.1,0.1,0.2,0.2,0.2s0.2,0.1,0.1,0.1
		c-0.2,0.2,2.9,6.5,3.3,6.7c0.1,0.1,0.2,0.2,0,0.2c-0.1,0-0.1,0.1,0,0.2c0.1,0.1,0.4,0.6,0.7,1.1c0.2,0.5,0.5,1,0.6,1
		c0.1,0,0.1,0.1,0.1,0.2c-0.1,0.1-0.1,0.2,0.1,0.2c0.1,0,0.3,0.4,0.5,0.8c0.2,0.4,0.4,0.8,0.5,0.8c0.1,0,0.2,0.1,0.1,0.2
		c-0.1,0.1,0,0.2,0.1,0.2c0.1,0,0.2,0.2,0.2,0.3c0,0.2,0.1,0.3,0.2,0.3c0.1,0,0.2,0.1,0.1,0.2s0,0.2,0.1,0.2c0.1,0,0.3,0.3,0.4,0.6
		s0.2,0.6,0.4,0.6s0.2,0.1,0.1,0.2c-0.1,0.1,0,0.3,0.2,0.3c0.2,0.1,0.3,0.2,0.2,0.4c-0.1,0.1,0,0.2,0.1,0.2s0.2,0.2,0.2,0.3
		c0,0.2,0.1,0.3,0.2,0.3c0.1,0,0.2,0.1,0.1,0.2c-0.1,0.1,0,0.2,0.1,0.2c0.1,0,0.2,0.2,0.2,0.3s0.1,0.3,0.2,0.3
		c0.1,0,0.2,0.1,0.1,0.2s0,0.3,0.2,0.3c0.2,0.1,0.3,0.2,0.2,0.4s0,0.2,0.1,0.2c0.1,0,0.2,0.2,0.2,0.3c0,0.2,0.1,0.3,0.2,0.3
		c0.1,0,0.2,0.1,0.1,0.2c-0.1,0.1,0,0.3,0.2,0.3c0.2,0.1,0.3,0.2,0.2,0.3c-0.1,0.1,0,0.3,0.2,0.3c0.2,0.1,0.3,0.2,0.2,0.3
		c-0.1,0.1,0,0.3,0.2,0.3c0.2,0.1,0.3,0.2,0.2,0.3c-0.1,0.1,0,0.3,0.2,0.3c0.2,0.1,0.3,0.2,0.2,0.3c-0.1,0.1,0,0.3,0.2,0.3
		c0.2,0.1,0.3,0.2,0.2,0.3c-0.1,0.1,0,0.3,0.2,0.3c0.2,0.1,0.3,0.2,0.2,0.3c-0.1,0.1,0,0.3,0.2,0.3c0.2,0.1,0.3,0.2,0.2,0.3
		c-0.1,0.1,0,0.3,0.2,0.3c0.2,0.1,0.3,0.2,0.2,0.4c-0.1,0.1,0.1,0.3,0.3,0.5c0.3,0.1,0.4,0.3,0.3,0.4c-0.1,0.1,0,0.3,0.2,0.3
		c0.2,0.1,0.3,0.2,0.2,0.4c-0.1,0.1,0.1,0.3,0.3,0.5c0.3,0.1,0.4,0.3,0.3,0.4c-0.1,0.1,0,0.3,0.2,0.3c0.2,0.1,0.3,0.2,0.2,0.4
		c-0.1,0.1,0.1,0.3,0.3,0.5c0.3,0.1,0.4,0.3,0.3,0.5s0.1,0.3,0.3,0.5c0.3,0.1,0.4,0.3,0.3,0.5c-0.1,0.1,0.1,0.3,0.3,0.5
		c0.3,0.1,0.4,0.3,0.3,0.5c-0.1,0.1,0.1,0.3,0.3,0.5c0.3,0.1,0.4,0.3,0.3,0.5c-0.1,0.1,0.1,0.3,0.3,0.5c0.3,0.1,0.4,0.3,0.3,0.5
		c-0.1,0.1,0.1,0.4,0.4,0.6c0.3,0.2,0.5,0.5,0.5,0.6c-0.1,0.1,0.1,0.3,0.3,0.4c0.3,0.1,0.4,0.3,0.3,0.5c-0.1,0.1,0.1,0.4,0.4,0.6
		c0.3,0.2,0.5,0.5,0.5,0.6c-0.1,0.1,0.2,0.4,0.6,0.7c0.4,0.3,0.6,0.6,0.6,0.7c-0.1,0.1,0.2,0.4,0.6,0.7c0.4,0.3,0.6,0.6,0.6,0.7
		c-0.1,0.1,0.2,0.4,0.6,0.7c0.4,0.3,0.6,0.6,0.6,0.7c-0.1,0.1,0.2,0.4,0.6,0.8c0.4,0.3,0.7,0.7,0.7,0.8c0,0.1,0.4,0.6,0.9,1
		c0.5,0.5,0.9,0.9,0.9,1c0,0.1,0.5,0.6,1.1,1.2c0.6,0.6,1.2,1.2,1.1,1.2c0,0.1,0.8,1,1.9,2s1.9,2,1.9,2c-0.1,0.3,7.2,7.2,7.4,7.1
		c0.1-0.1,0.9,0.6,1.8,1.5l1.6,1.6l-1.6-1.5c-1.4-1.3-1.4-1.2,0.3,0.4c1,1,2,1.8,2.1,1.8c0.1-0.1,0.6,0.3,1.1,0.8l0.9,1l-0.9-0.8
		c-0.5-0.4-0.4-0.3,0.3,0.4c0.7,0.7,1.3,1.1,1.4,1.1c0.1-0.1,0.4,0.2,0.7,0.5l0.5,0.6l-0.6-0.5c-0.3-0.2-0.2-0.1,0.3,0.4
		c0.5,0.5,1,0.8,1.1,0.7c0.1-0.1,0.4,0.2,0.7,0.5l0.5,0.6l-0.6-0.5c-0.3-0.2-0.2-0.1,0.3,0.4c0.5,0.5,1,0.8,1.1,0.7
		c0.1-0.1,0.3,0.1,0.5,0.3c0.3,0.4,0.3,0.4-0.1,0.1c-0.2-0.2-0.1,0,0.3,0.4c0.4,0.4,0.8,0.6,0.9,0.6c0.1-0.1,0.3,0.1,0.5,0.3
		c0.3,0.4,0.3,0.4-0.1,0.1c-0.2-0.2-0.1,0,0.3,0.4c0.4,0.4,0.8,0.6,0.9,0.6c0.1-0.1,0.3,0.1,0.5,0.3c0.3,0.4,0.3,0.4-0.1,0.1
		c-0.2-0.2-0.1,0,0.3,0.4c0.4,0.4,0.8,0.6,0.9,0.6c0.1-0.1,0.2,0,0.3,0.2c0.1,0.2,0.1,0.2-0.2,0.1c-0.2-0.1,0,0.1,0.3,0.4
		c0.4,0.3,0.8,0.5,0.9,0.4c0.1-0.1,0.1,0,0.1,0.1c-0.1,0.2,0.6,0.8,1,0.8c0.1,0,0.2,0.1,0.3,0.2c0.1,0.1,0,0.1-0.1,0
		c-0.2-0.1,0,0.1,0.3,0.4c0.4,0.3,0.8,0.5,0.9,0.4c0.1-0.1,0.1,0,0.1,0.1c-0.2,0.2,0.7,0.9,1.1,0.8c0.1,0,0.1,0,0.1,0.2
		c-0.1,0.2,0.7,0.8,1.1,0.7c0.1,0,0.1,0,0.1,0.2c-0.1,0.2,0.7,0.8,1.1,0.7c0.1,0,0.1,0,0,0.2c-0.1,0.2,0.7,0.8,1.1,0.7
		c0.1,0,0.1,0,0.1,0.1c-0.2,0.3,1.8,1.7,2,1.4c0.1-0.1,0.1,0,0.1,0.1c-0.1,0.4,8.6,6.9,8.9,6.7c0.1-0.1,0.2-0.1,0.1,0
		c-0.2,0.2,2.1,1.9,2.4,1.8c0.1-0.1,0.2-0.1,0.1,0c-0.2,0.2,1.2,1.3,1.5,1.1c0.1-0.1,0.2-0.1,0.1,0c-0.2,0.2,1.2,1.3,1.5,1.1
		c0.1-0.1,0.2,0,0.1,0.1c-0.2,0.2,0.2,0.4,0.7,0.3c0.1,0,0.2,0,0.1,0.1c-0.2,0.2,1.2,1.2,1.5,1.1c0.1-0.1,0.2-0.1,0.1,0
		c-0.1,0.2,3.9,3.1,4.2,3.1c0.1,0,0.6,0.4,1.2,0.8c0.6,0.4,1.2,0.8,1.3,0.8c0.1,0,0.5,0.2,0.9,0.5c0.9,0.6,1.5,1,2.1,1.3
		c0.2,0.1,0.8,0.4,1.1,0.7c0.4,0.2,0.9,0.6,1.1,0.7c0.2,0.1,0.8,0.4,1.1,0.7c0.4,0.2,1,0.6,1.4,0.8c0.4,0.2,1,0.5,1.4,0.8
		c0.4,0.2,1.1,0.6,1.6,0.9c0.5,0.3,1.4,0.8,2,1.1c0.6,0.4,1.6,0.9,2.3,1.2c0.6,0.3,1.9,1,2.9,1.6c3,1.6,13.3,6.8,13.6,6.8
		c0.1,0,0.9,0.4,1.7,0.8c0.8,0.4,1.6,0.8,1.7,0.8c0.1,0,0.7,0.3,1.2,0.6c0.6,0.3,1.1,0.6,1.2,0.6c0.1,0,0.7,0.3,1.2,0.6
		s1.1,0.6,1.2,0.6c0.1,0,0.6,0.2,1.1,0.5c0.5,0.3,0.9,0.5,1,0.4c0.1-0.1,0.4,0.1,0.8,0.4c0.4,0.3,0.7,0.4,0.8,0.3
		c0.1-0.1,0.4,0.1,0.8,0.3c0.4,0.3,0.7,0.4,0.8,0.3c0.1-0.1,0.4,0.1,0.8,0.3c0.4,0.3,0.7,0.4,0.8,0.3c0.1-0.1,0.3,0,0.6,0.2
		c0.2,0.2,0.5,0.3,0.6,0.2c0.1-0.1,0.4,0.1,0.8,0.3c0.4,0.3,0.7,0.4,0.8,0.3c0.1-0.1,0.3,0,0.6,0.2s0.5,0.3,0.6,0.2s0.3,0,0.5,0.2
		c0.3,0.3,2.1,0.9,3.2,1.2c1.2,0.3,1.5,0.3,2,0.5c0.9,0.2,7.5,0.3,7.8,0.1c0.1-0.1,0.5-0.2,0.8-0.2c0.5,0,0.9-0.1,2.2-0.4
		c0.3-0.1,0.7-0.2,1-0.2c1-0.2,2.1-0.6,2.5-0.9c0.2-0.2,0.4-0.2,0.5-0.2c0.1,0.1,0.4-0.1,0.8-0.3c0.4-0.3,0.7-0.4,0.8-0.3
		c0.1,0.1,0.3,0,0.6-0.2c0.2-0.2,0.5-0.3,0.6-0.2c0.1,0.1,0.4-0.1,0.8-0.3c0.4-0.3,0.7-0.4,0.8-0.3c0.1,0.1,0.4-0.1,0.8-0.3
		c0.4-0.3,0.7-0.4,0.8-0.3c0.1,0.1,0.4-0.1,0.8-0.3c0.4-0.3,0.7-0.4,0.8-0.3c0.1,0.1,0.4-0.1,0.8-0.3c0.4-0.3,0.7-0.4,0.8-0.3
		c0.1,0.1,0.5-0.1,1-0.4c0.5-0.3,0.9-0.5,1-0.5s0.5-0.1,1-0.4c0.5-0.3,1-0.5,1.1-0.5c0.1,0,0.8-0.3,1.5-0.7c0.7-0.4,1.3-0.7,1.5-0.7
		c0.1,0,0.9-0.4,1.7-0.8c0.8-0.4,1.5-0.8,1.6-0.8c0.2,0,14.4-7.2,17.1-8.7c0.7-0.4,1.8-1,2.3-1.2s1.3-0.7,1.8-1
		c0.5-0.3,1.2-0.7,1.6-0.9c0.4-0.2,1-0.5,1.4-0.8c0.4-0.2,1-0.6,1.4-0.8c0.4-0.2,1-0.5,1.4-0.8c0.4-0.2,0.9-0.5,1.1-0.7
		c0.6-0.3,1.2-0.7,2.1-1.3c0.4-0.3,0.8-0.5,0.9-0.5c0.1,0,0.5-0.3,0.9-0.6s0.8-0.6,0.9-0.6c0.1,0,0.7-0.4,1.3-0.8
		c0.6-0.4,1.2-0.8,1.2-0.8c0.4,0,7.1-4.7,6.9-4.9c-0.1-0.1-0.1-0.1,0.1,0c0.3,0.2,1.7-0.8,1.5-1.1c-0.1-0.1-0.1-0.1,0.1-0.1
		c0.5,0.1,0.8,0,0.7-0.3c-0.1-0.1-0.1-0.2,0.1-0.1c0.3,0.2,1.7-0.8,1.5-1.1c-0.1-0.1-0.1-0.1,0.1,0c0.3,0.2,2.6-1.5,2.4-1.8
		c-0.1-0.1-0.1-0.1,0.1,0c0.3,0.2,4.5-3,4.4-3.3c0-0.1,0-0.2,0.1-0.1c0.2,0.2,2.2-1.2,2-1.4c-0.1-0.1,0-0.2,0.1-0.1
		c0.3,0.1,1.2-0.5,1.1-0.7c-0.1-0.1,0-0.2,0.1-0.2c0.2,0.1,2.3-1.3,2.3-1.5c0-0.1-0.1,0-0.3,0.1c-0.2,0.1-0.2,0.1-0.1,0
		c0.1-0.1,0.3-0.2,0.3-0.2c0.4,0,1.2-0.6,1-0.8c-0.1-0.1-0.1-0.2,0-0.2c0.4,0.1,1.2-0.5,1.1-0.8c-0.1-0.1-0.1-0.2,0.1-0.1
		c0.1,0.1,0.5-0.1,0.9-0.4c0.4-0.3,0.5-0.5,0.3-0.4c-0.2,0.1-0.3,0.1-0.2-0.1c0.1-0.1,0.2-0.2,0.3-0.2c0.1,0.1,0.5-0.2,0.8-0.5
		c0.4-0.3,0.5-0.5,0.3-0.4c-0.2,0.1-0.3,0.1-0.2-0.1c0.1-0.1,0.2-0.2,0.3-0.2c0.1,0.1,0.5-0.2,0.8-0.5c0.4-0.3,0.5-0.5,0.3-0.4
		c-0.2,0.1-0.3,0.1-0.2-0.1c0.1-0.1,0.2-0.2,0.3-0.2s0.5-0.2,0.8-0.5c0.4-0.3,0.5-0.5,0.3-0.4c-0.2,0.1-0.3,0.1-0.2-0.1
		c0.1-0.1,0.2-0.2,0.3-0.2c0.1,0.1,0.5-0.2,0.8-0.5c0.4-0.3,0.5-0.5,0.3-0.4c-0.2,0.1-0.3,0.1-0.2-0.1c0.1-0.1,0.2-0.2,0.3-0.2
		c0.1,0.1,0.5-0.2,0.9-0.6c0.4-0.4,0.6-0.6,0.3-0.4c-0.4,0.3-0.4,0.3-0.1-0.1c0.2-0.2,0.4-0.3,0.5-0.3c0.1,0.1,0.5-0.2,0.9-0.6
		c0.4-0.4,0.6-0.6,0.3-0.4c-0.5,0.3-0.5,0.3,0-0.2c0.2-0.3,0.5-0.5,0.6-0.4c0.1,0.1,0.5-0.2,0.9-0.6c0.4-0.4,0.6-0.6,0.3-0.4
		c-0.5,0.3-0.5,0.3,0-0.2c0.2-0.3,0.5-0.5,0.6-0.4c0.1,0.1,0.6-0.3,1.2-0.9s0.7-0.7,0.3-0.4l-0.7,0.6l0.7-0.7
		c0.4-0.4,0.7-0.7,0.8-0.6c0.1,0.1,0.7-0.4,1.4-1.1c0.7-0.7,0.8-0.8,0.3-0.4l-0.9,0.8l0.9-1c0.5-0.5,1-0.9,1.1-0.8
		c0.1,0.1,1-0.7,2.1-1.8c1.7-1.7,1.7-1.7,0.3-0.4l-1.6,1.5l1.6-1.6c0.9-0.9,1.6-1.6,1.8-1.5c0.2,0.1,5.4-4.8,5.3-5.1
		c0-0.1,0.8-1,1.9-2s1.9-2,1.9-2c0-0.1,0.5-0.6,1.1-1.2c0.6-0.6,1.2-1.2,1.1-1.3c0-0.1,0.3-0.5,0.8-0.9c0.5-0.4,0.8-0.8,0.8-0.9
		s0.3-0.5,0.8-0.9c0.5-0.4,0.8-0.8,0.7-0.9c-0.1-0.1,0.2-0.4,0.6-0.7c0.4-0.3,0.6-0.6,0.6-0.7c-0.1-0.1,0.2-0.4,0.6-0.7
		c0.4-0.3,0.6-0.6,0.6-0.7c-0.1-0.1,0.1-0.4,0.5-0.6c0.3-0.2,0.5-0.5,0.5-0.6c-0.1-0.1,0.1-0.4,0.5-0.6c0.3-0.2,0.5-0.5,0.5-0.6
		c-0.1-0.1,0.1-0.4,0.5-0.6c0.3-0.2,0.5-0.5,0.5-0.6c-0.1-0.1,0.1-0.4,0.5-0.6c0.3-0.2,0.5-0.5,0.4-0.6c-0.1-0.1,0.1-0.3,0.3-0.4
		c0.3-0.1,0.4-0.3,0.4-0.4c-0.1-0.3,0.5-1.2,0.7-1.1c0.1,0.1,0.2,0.1,0.2,0c-0.1-0.3,0.3-1,0.5-0.8c0.1,0.1,0.2,0,0.2-0.1
		c-0.1-0.3,0.3-1,0.5-0.8c0.1,0.1,0.2,0,0.2-0.1c-0.1-0.3,0.3-1,0.5-0.8c0.1,0.1,0.2,0,0.2-0.1c-0.1-0.5,0-0.8,0.3-0.6
		c0.2,0.1,0.2,0.1,0.1-0.1c-0.2-0.3,0.4-1,0.6-0.8c0.1,0.1,0.1,0.1,0.1-0.1c-0.1-0.4,0.3-1,0.5-0.9c0.1,0.1,0.2,0,0.2-0.1
		c-0.1-0.5,0-0.8,0.3-0.6c0.1,0.1,0.2,0.1,0.2,0c-0.1-0.5,0-0.8,0.3-0.6c0.2,0.1,0.2,0.1,0.1-0.1c-0.2-0.3,0.4-1,0.6-0.8
		c0.1,0.1,0.1,0.1,0.1-0.1c-0.1-0.5,0-0.8,0.2-0.7c0.1,0.1,0.2,0.1,0.2,0c-0.1-0.5,0-0.8,0.3-0.6c0.1,0.1,0.2,0.1,0.2,0
		c-0.1-0.5,0-0.8,0.3-0.6c0.1,0.1,0.2,0.1,0.2,0c-0.1-0.5,0-0.8,0.3-0.6c0.1,0.1,0.2,0.1,0.2,0c-0.1-0.5,0-0.8,0.3-0.6
		c0.1,0.1,0.2,0.1,0.2,0c-0.1-0.4,0.3-1.2,0.5-1.1c0.1,0.1,0.2-0.1,0.1-0.3s0.1-0.4,0.3-0.3c0.2,0,0.2,0,0.1-0.4
		c-0.2-0.4-0.2-0.4,0.2-0.4c0.2,0,0.4,0,0.4-0.1c-0.1-0.4,0.3-1.2,0.5-1c0.1,0.1,0.1-0.1,0-0.3c-0.2-0.4-0.2-0.5,0.2-0.4
		c0.2,0,0.4,0,0.4-0.1c-0.1-0.3,0.3-1,0.7-1.5c0.3-0.3,0.3-0.4,0-0.4c-0.2,0-0.2-0.1,0.1-0.3c0.2-0.2,0.3-0.4,0.2-0.5
		c-0.1-0.1,0-0.1,0.2,0c0.2,0.1,0.4,0.1,0.3-0.1c-0.2-0.3,0.4-1.2,0.6-1c0.1,0.1,0.1,0,0,0c-0.1-0.1,0-0.3,0.1-0.5
		c0.2-0.2,0.2-0.3,0-0.3c-0.2,0-0.2-0.1,0-0.4c0.2-0.2,0.4-0.4,0.5-0.3c0.1,0.1,0.2-0.1,0.2-0.3c0-0.2,0.1-0.3,0.3-0.2
		c0.2,0.1,0.2,0.1,0.1-0.1c-0.1-0.1,0-0.3,0.1-0.4c0.1-0.1,0.2-0.2,0.1-0.3c-0.2-0.3,0.1-0.9,0.4-0.8c0.1,0.1,0.3-0.1,0.3-0.5
		c0.1-0.3,0.3-0.7,0.4-0.7c0.4-0.2,5.1-9.7,4.9-9.9c-0.1-0.1,0-0.1,0.1-0.1s0.2-0.1,0.2-0.2s0.1-0.5,0.3-0.9
		c0.2-0.4,0.3-0.8,0.2-0.8s0-0.1,0.1-0.1s0.2-0.1,0.2-0.2s0.1-0.5,0.3-0.9s0.3-0.8,0.2-0.8c-0.1-0.1,0-0.1,0.1-0.1s0.2-0.1,0.1-0.2
		c-0.1-0.1,0-0.3,0.1-0.4c0.1-0.1,0.2-0.2,0.1-0.4c-0.1-0.1,0-0.2,0.1-0.2c0.1,0,0.2-0.1,0.2-0.2c0-0.1,0.1-0.4,0.2-0.6
		c0.1-0.3,0.2-0.5,0.1-0.6c-0.1-0.1,0-0.1,0.1-0.1s0.2-0.1,0.1-0.2c-0.1-0.1,0-0.3,0.1-0.4c0.1-0.1,0.2-0.2,0.1-0.4
		c-0.1-0.1,0-0.2,0.1-0.2c0.1,0,0.2-0.1,0.1-0.2c-0.1-0.1,0-0.3,0.1-0.4s0.2-0.2,0.1-0.4c-0.1-0.1,0-0.2,0.1-0.2s0.2-0.1,0.1-0.2
		c-0.1-0.1,0-0.3,0.1-0.4c0.1-0.1,0.2-0.2,0.1-0.3c-0.1-0.1,0-0.3,0.1-0.3s0.2-0.2,0.1-0.4c-0.1-0.1,0-0.2,0.1-0.2
		c0.1,0,0.2-0.1,0.1-0.2c-0.1-0.1,0-0.3,0.1-0.4s0.2-0.2,0.1-0.3c-0.1-0.1,0-0.3,0.1-0.3c0.1-0.1,0.2-0.2,0.1-0.4
		c-0.1-0.1,0-0.2,0.1-0.2c0.1,0,0.2-0.1,0.2-0.2c0-0.1,0-0.2,0-0.3c0-0.1,0.1-0.3,0.1-0.4c0-0.1,0.1-0.3,0.1-0.3
		c0-0.1,0.1-0.2,0.1-0.3c0-0.1,0.1-0.3,0.1-0.3c0-0.1,0.1-0.2,0.1-0.3c0-0.1,0.1-0.3,0.1-0.3c0-0.1,0.1-0.2,0.1-0.3
		c0-0.1,0.1-0.3,0.1-0.3c0-0.1,0.1-0.2,0.1-0.3c0-0.1,0.1-0.3,0.1-0.3c0-0.1,0.1-0.2,0.1-0.3c0-0.1,0.1-0.3,0.1-0.3
		c0-0.1,0.1-0.2,0.1-0.3c0-0.1,0.1-0.3,0.1-0.3c0-0.1,0.1-0.2,0.1-0.3s0.1-0.3,0.1-0.3c0-0.1,0.1-0.2,0.1-0.3c0-0.1,0.1-0.3,0.1-0.3
		c0,0,0.1-0.2,0.1-0.5c0.1-0.2,0.1-0.6,0.2-0.8c0.1-0.2,0.1-0.4,0.1-0.5c0,0,0.1-0.2,0.1-0.3c0-0.1,0.1-0.3,0.1-0.3s0.1-0.3,0.1-0.5
		c0.2-0.8,0.3-1.1,0.3-1.1c0,0,0.1-0.2,0.1-0.3c0-0.2,0.1-0.6,0.2-0.9c0.1-0.3,0.2-0.7,0.2-0.9c0-0.2,0.1-0.3,0.1-0.3
		c0,0,0.1-0.2,0.1-0.3c0.1-0.4,0.3-1.1,0.4-1.8c0.2-0.9,0.4-1.5,0.5-1.9c0.2-0.9,0.3-1.5,0.4-1.9c0.2-0.7,0.3-1.4,0.5-2
		c0.1-0.3,0.2-0.8,0.2-1.1c0.1-0.3,0.2-0.8,0.2-1.1c0.1-0.3,0.2-0.8,0.2-1.1c0.1-0.3,0.2-0.9,0.2-1.2c0.1-0.4,0.2-0.9,0.2-1.2
		c0.1-0.3,0.2-1,0.3-1.5c0.1-0.5,0.2-1.1,0.2-1.4c0.1-0.5,0.3-2.2,0.5-3.1c0-0.3,0.1-1.1,0.2-1.8c0.1-0.7,0.2-1.5,0.2-1.9
		c0-0.4,0.2-1.5,0.2-2.6c0.1-1.1,0.2-2.2,0.2-2.5c0.3-2.6,0.4-11.5,0.4-29c0-30.8-0.3-115.8-0.5-116.7c-0.1-0.4-0.2-1.2-0.2-1.7
		c-0.1-0.9-0.2-1.5-0.5-2.6c-0.2-0.9-0.3-1.2-0.3-1.3c0,0-0.1-0.2-0.1-0.3c0-0.1-0.1-0.3-0.1-0.4c0-0.1,0-0.2,0-0.3
		c0-0.1-0.1-0.2-0.2-0.2s-0.2-0.1-0.1-0.1c0.2-0.2-0.9-2.4-1.3-2.6c-0.1-0.1-0.2-0.2,0-0.2c0.1,0,0-0.1-0.2-0.2
		c-0.2-0.1-0.3-0.3-0.3-0.4c0.1-0.1-0.1-0.3-0.3-0.4c-0.3-0.1-0.4-0.3-0.4-0.4c0.2-0.4-4-4.2-4.5-3.9c-0.1,0.1-0.2,0-0.1-0.1
		s-0.2-0.4-0.6-0.6c-0.4-0.2-1.3-0.7-2-1c-0.7-0.4-1.3-0.6-1.3-0.6c-0.1,0.1-0.4-0.1-0.8-0.4c-0.4-0.3-0.7-0.4-0.8-0.3
		c-0.1,0.1-0.3,0-0.5-0.2c-0.3-0.3-4.7-1.8-5.8-2.1c-0.2,0-0.9-0.2-1.4-0.4c-0.5-0.2-1-0.3-1-0.3c0,0.1-0.3-0.1-0.8-0.2
		c-0.4-0.2-1-0.4-1.3-0.4c-0.3-0.1-1-0.3-1.5-0.5c-0.5-0.2-1-0.4-1.1-0.4c-0.1,0-0.6-0.2-1.2-0.4c-0.6-0.2-1.2-0.4-1.5-0.4
		c-0.2-0.1-1-0.3-1.8-0.6c-0.7-0.3-1.4-0.5-1.4-0.4c0,0-0.5-0.1-1.1-0.3c-0.6-0.2-1.3-0.4-1.6-0.5c-0.2-0.1-1.8-0.6-3.5-1.1
		c-1.7-0.6-3.1-1-3.2-0.9c-0.1,0.1-0.3,0-0.4-0.2c-0.2-0.3-1.3-0.7-2-0.7c-0.1,0-0.4-0.1-0.6-0.3c-0.2-0.2-0.6-0.3-0.9-0.4
		s-0.7-0.2-0.9-0.4c-0.2-0.2-0.4-0.2-0.5-0.2c-0.1,0.1-0.3,0-0.5-0.2c-0.2-0.2-0.6-0.4-1-0.4c-0.3,0-0.7-0.2-0.9-0.4
		c-0.2-0.2-0.4-0.2-0.5-0.2c-0.1,0.1-0.4-0.1-0.8-0.3c-0.4-0.3-0.7-0.4-0.8-0.3s-0.3,0-0.6-0.2c-0.2-0.2-0.5-0.3-0.6-0.2
		c-0.1,0.1-0.4-0.1-0.8-0.3c-0.4-0.3-0.7-0.4-0.8-0.3c-0.1,0.1-0.4-0.1-0.8-0.3c-0.4-0.3-0.7-0.4-0.8-0.3c-0.1,0.1-0.5-0.1-1-0.4
		s-1-0.5-1-0.5c-0.1,0-0.6-0.2-1.2-0.5c-0.6-0.3-1.1-0.6-1.2-0.6c-0.1,0-0.8-0.3-1.5-0.7c-0.7-0.4-1.3-0.7-1.5-0.7
		c-0.3,0-11.2-5.6-13.3-6.7c-0.7-0.4-1.9-1-2.5-1.3c-0.6-0.3-1.6-0.9-2.3-1.2c-0.6-0.4-1.5-0.9-2-1.1c-0.5-0.3-1.4-0.8-2-1.1
		s-1.5-0.9-2-1.1c-0.5-0.3-1.4-0.8-2-1.1c-2.2-1.3-14.4-7.5-14.5-7.4c0,0-0.6-0.2-1.2-0.6c-0.6-0.4-1.2-0.6-1.3-0.6
		c-0.1,0.1-0.4-0.1-0.8-0.4c-0.4-0.3-0.7-0.4-0.8-0.3c-0.1,0.1-0.4-0.1-0.8-0.3c-0.4-0.3-0.7-0.4-0.8-0.3c-0.1,0.1-0.4-0.1-0.8-0.3
		c-0.4-0.3-0.7-0.4-0.8-0.3c-0.1,0.1-0.3,0-0.6-0.2c-0.2-0.2-0.5-0.3-0.6-0.2c-0.1,0.1-0.3,0-0.5-0.2s-0.6-0.4-1-0.4
		c-0.3,0-0.7-0.2-0.9-0.3c-0.2-0.2-0.6-0.3-0.9-0.3c-0.3,0-0.7-0.2-0.9-0.3c-0.4-0.3-1.8-0.8-2-0.6c-0.1,0.1-0.3,0-0.5-0.2
		c-0.3-0.3-2.7-1.2-3.8-1.4c-0.2-0.1-1-0.3-1.7-0.5c-0.7-0.3-1.3-0.4-1.3-0.4c0,0-0.4-0.1-0.8-0.2s-0.8-0.3-0.8-0.2
		c0,0.1-0.2,0-0.4-0.1c-0.2-0.1-0.7-0.3-1-0.3c-1.2-0.3-1.6-0.3-1.7-0.4c-0.1-0.1-0.4-0.2-0.7-0.2c-0.3-0.1-0.8-0.2-1.1-0.2
		c-0.3-0.1-0.7-0.2-1-0.2c-0.3-0.1-0.7-0.2-1-0.2c-0.2-0.1-0.7-0.2-1-0.2c-0.3-0.1-0.8-0.2-1-0.2c-0.4-0.1-0.9-0.2-2-0.4
		c-1.2-0.3-1.9-0.4-2.5-0.4c-0.4,0-0.7-0.1-0.7-0.1c0-0.1-0.9-0.3-1.6-0.3c-0.4,0-0.8-0.1-0.9-0.2c-0.1-0.1-0.4-0.1-0.7-0.1
		c-0.2,0-0.5,0-0.7-0.1c-0.3-0.2-0.4-0.2-2-0.4c-0.6-0.1-1.4-0.2-1.8-0.2c-0.4-0.1-1.3-0.2-2-0.2c-0.8-0.1-1.9-0.2-2.6-0.2
		s-2-0.2-2.9-0.2C207.9,1.2,192.4,1.1,192.3,1.3 M212.7,18.2c20,2.2,36.1,8.1,65.4,24.1c21.9,11.9,37.5,18.3,63.5,26
		c6.5,1.9,8.6,2.9,9.3,4.2l0.5,0.9l0.2,58.4c0.2,71.4,0.2,73.6-0.1,78.7c-2.9,45.5-20.2,80.5-56.1,113
		c-28.2,25.6-52.7,41.2-88.8,56.5l-4.2,1.8H200h-2.4l-4.6-2c-26.2-11.1-48.8-24.2-70.2-40.8c-46.6-36.3-69.1-73.2-73.4-120.7
		c-0.9-9.9-1.4-50.4-1-81c0.1-9.7,0.2-27.8,0.2-40.1c0-24.8,0-24.1,1.4-25.5c1-1,1.7-1.3,9.6-3.6c24.9-7.4,41.6-14.5,68.6-29.2
		c24.8-13.5,41.3-19.1,60.9-20.8c1.6-0.1,3.3-0.3,3.8-0.3C195.2,17.5,209.6,17.8,212.7,18.2 M39.1,58.8c0,0-0.6,0.6-1.3,1.3
		l-1.3,1.2l1.2-1.3C38.9,58.8,39.1,58.7,39.1,58.8 M362.3,60.2c0.7,0.7,1.2,1.2,1.1,1.2c-0.1,0-0.7-0.6-1.3-1.2s-1.2-1.2-1.1-1.2
		C361,59,361.6,59.5,362.3,60.2 M193.1,60.9c-15.1,1.2-30.3,6-42.6,13.3c-4.6,2.8-6,5.5-4.2,8.9c2.1,4.1,5,4.3,12.1,0.7
		c20.2-10.3,38.1-13.2,57.7-9.2c10,2,15.4,4.3,32.9,13.5c23.6,12.5,34.4,17.5,46.2,21.6c3.7,1.3,4.4,1.7,4.9,2.8
		c0.7,1.5-0.1,89.3-0.8,103.5c-1.3,23.9-10.7,41.9-33.7,64.9c-15.7,15.7-35.4,29.6-56.2,39.7c-10.1,4.9-9.5,4.9-20.4-0.6
		c-35.7-17.9-68.4-47.4-80.4-72.6c-5.4-11.4-8.1-22.6-9-37.9c-0.4-6.4-0.6-94.4-0.2-96c0.4-1.8,1.2-2.4,6.1-4.4
		c16.6-6.6,27.6-11.4,29-12.7c3.1-2.7,2.1-8-1.7-9.7c-2.4-1.1-3.7-0.8-12.9,3.2c-3,1.3-10.1,4.2-15.8,6.5
		c-14.5,5.8-15.4,6.4-16.7,11.5c-0.6,2.5-0.4,91.3,0.3,103.2c1.5,25.2,6.9,40.9,20.2,58.7c17.5,23.4,43.1,44.4,72.3,59.4
		c19,9.8,19.1,9.8,34.1,2.5c23-11.2,42.1-24.8,59.9-42.5c24.3-24.2,35.1-45.4,37.4-73.2c0.8-10.2,1.2-106.1,0.4-108.7
		c-1.3-4.1-2.8-5.3-9.4-7.6c-15.8-5.5-32.3-13.2-51.7-24.2c-14.8-8.4-24.9-12-39.3-14C208.4,61,196.4,60.7,193.1,60.9 M77.3,319
		c0.4,0.4,0.7,0.8,0.7,0.8s-0.5-0.4-0.9-0.8c-0.4-0.4-0.7-0.8-0.7-0.8C76.5,318.2,76.9,318.5,77.3,319 M322.5,319.8
		c0,0-0.4,0.4-0.8,0.8l-0.8,0.8l0.8-0.8C322.3,319.8,322.5,319.7,322.5,319.8 M80.3,322.3c0.9,0.9,1.5,1.6,1.5,1.6s-0.8-0.7-1.7-1.6
		c-0.9-0.9-1.5-1.6-1.5-1.6C78.7,320.7,79.5,321.4,80.3,322.3 M320.2,322.3c0,0-0.7,0.8-1.6,1.6l-1.6,1.6l1.6-1.6
		C320,322.4,320.2,322.2,320.2,322.3 M88.6,330.8c0,0.2-0.3-0.2-3.2-3l-3-3.1l3.1,3C87.2,329.4,88.6,330.8,88.6,330.8 M316.4,326.4
		c0,0-0.9,1-2.1,2.1l-2.1,2l2-2.1C316.1,326.5,316.4,326.2,316.4,326.4"/>
	<path id="path1" fill="#FBFBFB" d="M146.6,121.1c-4.9,0.3-4.9-1.3,0.7,17.2c6.8,22.3,33,106.1,33.5,107.1c1.1,2.2,1.3,2.2,19.1,2.2
		c17.8,0,17.8,0,19.1-1.9c0.4-0.6,5.8-17.6,14-44.3c1.6-5.1,4-13,5.4-17.5c1.4-4.5,4.3-13.7,6.3-20.5s5.2-16.7,6.9-22.3
		c6.4-20.6,6-19,5-19.6c-0.8-0.5-26.5-0.9-28.2-0.5c-1.1,0.3-2.2,1.4-2.7,2.7c-0.3,0.8-12.1,39.1-22.6,73.2
		c-2.5,8.3-2.5,8.2-3.2,8.2c-0.7,0,0.4,3.5-13.4-41.7c-13-42.4-12.5-41-13.9-41.9l-0.9-0.6l-11.2,0C154.3,121,148,121,146.6,121.1
		 M185.4,271.8c-2.4,1.1-2.8,4.2-0.9,5.9c1.6,1.4,4.2,1,5.3-0.9C191.5,273.8,188.5,270.4,185.4,271.8 M198.4,271.9
		c-2.6,1.4-2.6,4.9,0,6.2c4.2,2.1,7.3-4,3.2-6.2c-0.5-0.3-1.3-0.5-1.6-0.5S199,271.6,198.4,271.9 M212.1,271.6
		c-1.4,0.4-2.4,1.9-2.4,3.4c0,3,3.5,4.6,5.8,2.7C218.3,275.2,215.7,270.6,212.1,271.6"/>
	<path id="path2" fill="#242424" d="M191.3,18.6c-21.1,1.6-37.2,7-62.9,21C101.8,54,84.9,61.2,59.8,68.7c-8.8,2.6-9.1,2.7-10,4.4
		c-0.9,1.7-1,129.3,0,141.1c2.1,27,8,46,20.6,67.3c22.6,38.1,67.9,74.1,122.8,97.6l4.5,1.9l2.4,0l2.4,0l4.6-2
		c36.2-15.6,60.1-30.9,88-56.1c38.8-35.2,56-73.5,56.1-124.7c0.1-32.3-0.4-124.6-0.6-125.1c-0.6-1.6-2.1-2.3-10.7-4.8
		C315,61,299.3,54.6,277.9,42.9C240.2,22.4,219,16.5,191.3,18.6 M212.3,36.7c18.6,2,31.3,6.8,60,22.1c22.8,12.2,33.3,16.5,47.4,19.7
		c9.2,2.1,12.8,3.9,15.2,7.7c2.6,4.1,2.9,8.6,2.8,41.1l-0.1,23.7l-0.5,1.2c-2.3,5.1-9.5,5.2-11.9,0c-0.5-1-0.5-1.2-0.6-27.8
		l-0.1-26.8l-0.5-1.5c-1.3-3.7-3.3-5-9.3-6.1c-12.3-2.1-24.4-7.1-46.7-19.4c-17.5-9.6-26.5-13.8-36.9-17.1c-23.6-7.3-48.1-6-72.7,4
		c-7,2.9-13.3,6-28.2,14c-21,11.3-31.6,15.8-42.8,18.1c-8.9,1.8-11,3.7-11.7,10.6c-0.6,6.2-0.6,95.6,0,105.7
		c1.7,27.9,6,43.1,17.2,62c4.5,7.5,5.3,10.1,4.4,13.3c-1.7,5.9-8.4,4.8-12.8-2.1c-10.3-16.1-17.8-38.3-20.7-61.3
		c-1.9-15.3-2-20.1-1.8-77.3l0.2-47.3l0.5-1.8c2-7.4,5-9.5,19-13.2c15.5-4.1,21.6-6.7,44.4-18.8c29-15.4,41.5-20,59.5-22.3
		C193.2,36.1,205.2,35.9,212.3,36.7 M211.8,60.8c14.4,2,24.6,5.6,39,13.7c19.5,11.1,35.9,18.8,51.5,24.2c7.6,2.6,9.4,4.1,10.5,8.8
		c0.7,2.8,0.3,99.3-0.5,108.4c-1.1,13.6-4.7,26.6-10.2,37.7c-14.1,28-48,58.9-85.1,77.5c-15.9,7.9-17.4,8.1-28.6,2.8
		c-25.6-12-45-25.5-64.3-44.8C97.9,262.9,88.9,244,87,211.1c-0.6-10.5-1-100.3-0.4-102.9c1.2-5.5,2.6-6.5,16.8-12.2
		c5.7-2.3,12.8-5.2,15.8-6.5c9.2-3.9,10.2-4.2,12.4-3.8c6.4,1.2,7.4,9.5,1.6,12.6c-2.2,1.2-15.9,6.9-25.9,10.9
		c-6.1,2.4-6.8,2.9-7.2,4.4c-0.3,1.2-0.1,89.9,0.2,95.9c1.7,28.5,10.5,47.3,32.5,69.4c16.7,16.8,35.6,30.3,57.6,41.2
		c9.6,4.8,8.9,4.8,18.5,0.1c27.3-13.2,50.5-31.2,68.7-53.3c13.6-16.5,19.8-31.6,20.9-50.6c0.7-13,1.5-101.8,0.9-103.2
		c-0.4-1-0.8-1.1-4.7-2.5c-12.4-4.4-21.9-8.8-45.8-21.4c-13.6-7.2-17.7-9.1-23.6-11.1c-22-7.3-43.6-5.3-66,6.2
		c-7,3.6-9.4,3.9-12.2,1.3c-4-3.7-2.8-8.3,3.1-11.8c12.4-7.3,27.5-12,42.8-13.3C196.5,60,208.4,60.3,211.8,60.8 M172.5,120.3
		c1.4,0.7,2.4,1.9,2.9,3.5c11,36.1,24.3,78.9,24.5,78.9c0.3,0-0.4,2.2,13.1-41.6c6.4-20.8,11.9-38.3,12.2-38.7
		c1.4-2.6,1.9-2.7,18-2.4c14.5,0.2,14.2,0.2,14.9,1.7c0.4,0.9,0.2,1.7-8.8,30.5c-2.4,7.6-7.4,23.9-11.2,36.2
		c-17.8,57.4-17.9,57.9-18.9,58.8c-1.7,1.5-1.2,1.5-18.2,1.6c-22.7,0.1-20.1,1.5-24.5-12.5c-11.2-35.8-26.1-83.5-27.8-89.2
		c-1.1-3.7-3.1-10.3-4.4-14.6c-3.7-12-3.7-12.1,2.4-12.4C153.3,119.7,171.6,119.9,172.5,120.3 M333.8,168.6
		c3.1,2.1,3.6,4.1,3.9,17.9c0.5,22.3-1.2,38.2-6.3,55.7c-5.1,17.9-14.7,36.7-24.3,47.8c-0.8,0.9-2.5,2.9-3.7,4.4
		c-7.6,9.1-19,19.8-32.9,31c-17,13.7-36.8,25.3-60,35.2c-10.4,4.5-11,4.4-23.6-1.1c-27.1-11.9-48.7-25.8-71-45.7
		c-10.9-9.7-12.3-11.1-13.6-13.5c-2.6-4.8,1.7-10.6,6.7-9.1c2,0.6,3.4,1.7,9.5,7.6c23.1,22.3,46.5,37.7,75.9,50
		c6.1,2.6,5.9,2.6,20.2-4c37.7-17.3,71-44.4,90.6-73.4c8.5-12.5,15.5-36,18.1-59.8c0.7-6.6,0.8-9.4,1-21.9
		c0.2-14.3,0.4-15.8,1.6-18.3C327.6,168,331.1,166.8,333.8,168.6 M188.9,271c3.8,1.9,3,7.7-1.1,8.6c-3.4,0.7-6.4-2.4-5.4-5.7
		C183.2,270.9,186.2,269.6,188.9,271 M201.3,270.6c2,0.4,3.7,3.2,3.2,5.3c-1.1,4.9-8,4.9-9.1,0c-0.6-2.7,2.3-6.1,4.8-5.5
		C200.4,270.4,200.9,270.5,201.3,270.6 M215.5,271.1c2.4,1.4,3.1,4.6,1.3,6.8c-2,2.6-6.4,2.1-7.8-0.9
		C207.2,272.9,211.6,268.8,215.5,271.1"/>
	<path id="path3" fill="#2C3C64" d="M192.9,17.8c-0.5,0-2.2,0.2-3.8,0.3c-19.6,1.6-36.2,7.3-60.9,20.8C101.2,53.5,84.5,60.6,59.6,68
		c-7.9,2.3-8.6,2.6-9.6,3.6c-1.4,1.4-1.4,0.7-1.4,25.5c0,12.4-0.1,30.4-0.2,40.1c-0.4,30.6,0.1,71.1,1,81
		c4.3,47.5,26.8,84.5,73.4,120.7c21.4,16.6,44,29.8,70.2,40.8l4.6,2h2.4h2.4l4.2-1.8c36.1-15.3,60.6-30.9,88.8-56.5
		c35.8-32.5,53.2-67.5,56.1-113c0.3-5.1,0.3-7.3,0.1-78.7l-0.2-58.4l-0.5-0.9c-0.7-1.4-2.8-2.3-9.3-4.2c-26-7.7-41.6-14-63.5-26
		c-29.4-16-45.4-21.9-65.4-24.1C209.6,17.8,195.2,17.5,192.9,17.8 M208.6,18.5c21.2,1.5,37.9,7.4,69.2,24.4
		C299.3,54.6,315,61,339.8,68.4c8.6,2.5,10.1,3.2,10.7,4.8c0.2,0.5,0.6,92.8,0.6,125.1c-0.1,51.2-17.3,89.5-56.1,124.7
		c-27.8,25.3-51.8,40.5-88,56.1l-4.6,2l-2.4,0l-2.4,0l-4.5-1.9C138.3,355.7,93,319.7,70.4,281.6c-12.7-21.4-18.5-40.4-20.6-67.3
		c-0.9-11.9-0.9-139.4,0-141.1c0.9-1.7,1.2-1.8,10-4.4c25.1-7.5,42-14.7,68.6-29.1C159.8,22.4,181.6,16.7,208.6,18.5 M191.6,36.4
		c-20.8,1.7-34.3,6.4-65.6,23c-22.9,12.1-29,14.7-44.4,18.8c-14.1,3.8-17,5.8-19,13.2l-0.5,1.8l-0.2,47.3c-0.2,57.2-0.1,62,1.8,77.3
		c2.9,23.1,10.4,45.2,20.7,61.3c4.4,6.9,11.1,8,12.8,2.1c1-3.2,0.1-5.8-4.4-13.3c-11.3-18.9-15.5-34.1-17.2-62
		c-0.6-10.1-0.6-99.5,0-105.7c0.7-6.9,2.8-8.8,11.7-10.6c11.1-2.3,21.8-6.7,42.8-18.1c14.9-8,21.1-11.1,28.2-14
		c24.6-10,49.1-11.3,72.7-4c10.4,3.2,19.5,7.4,36.9,17.1c22.3,12.3,34.4,17.4,46.7,19.4c6,1,8.1,2.4,9.3,6.1l0.5,1.5l0.1,26.8
		c0.1,26.6,0.1,26.8,0.6,27.8c2.4,5.1,9.6,5.1,11.9,0l0.5-1.2l0.1-23.7c0.1-32.6-0.2-37.1-2.8-41.1c-2.5-3.8-6.1-5.6-15.2-7.7
		c-14.1-3.2-24.6-7.5-47.4-19.7c-26-13.9-37.7-18.5-53.4-21.2C211.6,36.4,198.9,35.8,191.6,36.4 M193.1,60.3
		c-15.3,1.2-30.4,5.9-42.8,13.3c-5.9,3.5-7.1,8.1-3.1,11.8c2.8,2.6,5.1,2.3,12.2-1.3c22.4-11.5,44-13.6,66-6.2
		c5.9,2,10,3.9,23.6,11.1c23.9,12.6,33.4,17,45.8,21.4c3.9,1.4,4.3,1.6,4.7,2.5c0.6,1.4-0.2,90.2-0.9,103.2
		c-1.1,19.1-7.3,34.2-20.9,50.6c-18.3,22.1-41.4,40.1-68.7,53.3c-9.7,4.7-8.9,4.7-18.5-0.1c-22-10.9-40.9-24.4-57.6-41.2
		c-22-22.1-30.8-40.9-32.5-69.4c-0.3-5.9-0.5-94.6-0.2-95.9c0.4-1.5,1.1-1.9,7.2-4.4c10-4,23.7-9.8,25.9-10.9
		c5.8-3.1,4.8-11.4-1.6-12.6c-2.2-0.4-3.1-0.1-12.4,3.8c-3,1.3-10.1,4.2-15.8,6.5c-14.2,5.7-15.7,6.8-16.8,12.2
		c-0.6,2.6-0.2,92.4,0.4,102.9c1.9,32.9,10.9,51.8,37.2,78.1c19.3,19.3,38.6,32.8,64.3,44.8c11.2,5.3,12.7,5.1,28.6-2.8
		c37.1-18.6,71-49.5,85.1-77.5c5.6-11.1,9.1-24.1,10.2-37.7c0.7-9.1,1.2-105.6,0.5-108.4c-1.2-4.7-3-6.2-10.5-8.8
		c-15.6-5.4-32-13.1-51.5-24.2c-14.4-8.2-24.6-11.8-39-13.7C208.4,60.3,196.5,60,193.1,60.3 M211.7,61.5c14.4,2,24.5,5.6,39.3,14
		c19.4,11,35.9,18.7,51.7,24.2c6.6,2.3,8.1,3.5,9.4,7.6c0.8,2.6,0.5,98.5-0.4,108.7c-2.3,27.9-13.1,49-37.4,73.2
		c-17.8,17.7-36.9,31.3-59.9,42.5c-15.1,7.3-15.1,7.3-34.1-2.5c-29.2-15-54.8-36-72.3-59.4c-13.4-17.8-18.8-33.5-20.2-58.7
		c-0.7-11.8-1-100.7-0.3-103.2c1.3-5,2.2-5.7,16.7-11.5c5.7-2.3,12.8-5.2,15.8-6.5c9.2-3.9,10.5-4.2,12.9-3.2c3.9,1.7,4.8,7,1.7,9.7
		c-1.4,1.2-12.4,6-29,12.7c-4.9,2-5.7,2.5-6.1,4.4c-0.4,1.6-0.2,89.6,0.2,96c0.9,15.3,3.5,26.5,9,37.9c12,25.2,44.7,54.8,80.4,72.6
		c10.9,5.5,10.3,5.4,20.4,0.6c20.8-10,40.5-23.9,56.2-39.7c23-23,32.3-41,33.7-64.9c0.8-14.2,1.5-102,0.8-103.5
		c-0.5-1.1-1.2-1.5-4.9-2.8c-11.8-4.1-22.7-9.2-46.2-21.6c-17.5-9.2-22.9-11.5-32.9-13.5c-19.6-4-37.5-1.1-57.7,9.2
		c-7.1,3.6-10,3.5-12.1-0.7c-1.7-3.4-0.4-6.2,4.2-8.9c12.3-7.3,27.4-12,42.6-13.3C196.4,60.7,208.4,61,211.7,61.5 M329.6,167.9
		c-4.4,1.5-5,3.8-5.3,21.7c-0.6,38.6-8,66.9-22.7,86.8c-22,29.8-56.8,55.9-96.1,72.3c-5.7,2.4-5.6,2.4-11.2,0
		c-29.4-12.3-52.8-27.7-75.9-50c-6.1-5.9-7.5-7-9.5-7.6c-5-1.5-9.3,4.3-6.7,9.1c1.3,2.4,2.7,3.8,13.6,13.5
		c22.3,19.9,43.9,33.8,71,45.7c12.6,5.5,13.3,5.5,23.6,1.1c23.2-10,43-21.5,60-35.2c13.9-11.2,25.3-21.9,32.9-31
		c1.3-1.5,2.9-3.5,3.7-4.4c15.6-18,27.2-48.3,29.9-78.2c0.8-9.1,0.9-32,0.1-36.7C336.3,169.7,333.1,166.8,329.6,167.9"/>
	<path id="path4" fill="#B4B4B4" d="M145.6,120.7c-3.9,0.2-4.1,0.8-1.9,7.9c0.7,2.4,2.6,8.5,4.1,13.6c8.2,27.1,32,103,32.7,104
		c0.3,0.5,1,1.1,1.5,1.4l1,0.5h16.9h16.9l1-0.5c1.9-1,1.5,0.1,28.9-88.6c1.3-4.3,3.8-12.2,5.5-17.6c1.7-5.4,3.3-10.7,3.6-11.8
		c0.3-1.1,0.9-2.9,1.2-4c1.6-5,2.5-4.7-15.2-4.8l-13.9-0.1l-0.9,0.6c-0.5,0.3-1.1,1-1.4,1.6c-0.4,0.8-15.5,49.2-23.7,76
		c-1.5,5.1-1.9,5.8-2.3,5.3c-0.1-0.2-5.7-18.3-12.5-40.3c-12.5-40.6-12.6-41-13.4-41.9c-1.3-1.4-1-1.4-14-1.3
		C153.2,120.5,146.9,120.6,145.6,120.7 M172.6,121.6c1.3,0.9,0.9-0.5,13.9,41.9c13.9,45.2,12.7,41.7,13.4,41.7
		c0.7,0,0.6,0.1,3.2-8.2c10.5-34.1,22.3-72.4,22.6-73.2c0.5-1.3,1.6-2.4,2.7-2.7c1.7-0.5,27.4,0,28.2,0.5c0.9,0.6,1.3-1-5,19.6
		c-1.7,5.5-4.8,15.5-6.9,22.3s-4.9,15.9-6.3,20.5c-1.4,4.5-3.9,12.4-5.4,17.5c-8.2,26.7-13.6,43.7-14,44.3
		c-1.3,1.9-1.4,1.9-19.1,1.9c-17.8,0-17.9,0-19.1-2.2c-0.5-1-26.7-84.9-33.5-107.1c-4.8-15.9-4.9-16.3-3.8-16.9
		c0.7-0.3,5.8-0.5,17-0.5l11.2,0L172.6,121.6 M185,271.4c-3.8,2.3-2.5,7.7,1.8,7.7c3.4,0,5.2-3.6,3.4-6.4
		C189.1,271.1,186.5,270.4,185,271.4 M198.1,271.4c-3.7,2-2.4,7.7,1.7,7.7c4.4,0,5.8-5.7,1.9-7.7
		C200.7,270.8,199.2,270.8,198.1,271.4 M211.2,271.5c-3.7,2.1-2.2,7.6,2,7.6c2.3,0,4-1.8,4-4.1C217.2,271.9,213.9,270,211.2,271.5
		 M188.7,272.1c2.3,1.6,2.1,5-0.4,6.2c-2.5,1.2-5.3-0.9-5-3.7C183.7,272.1,186.7,270.6,188.7,272.1 M201.6,271.9
		c2.6,1.4,2.6,4.9,0,6.2c-4.2,2.1-7.3-4-3.2-6.2c0.5-0.3,1.3-0.5,1.6-0.5S201,271.6,201.6,271.9 M214.6,271.8
		c3.2,1.5,2.6,6.2-0.9,6.7c-3.4,0.5-5.4-3.8-2.8-6.2C211.9,271.4,213.2,271.2,214.6,271.8"/>
	<path id="path5" fill="#719CCC" d="M37.7,60.1l-1.2,1.3L37.7,60.1c1.3-1.1,1.5-1.3,1.3-1.3C39,58.8,38.4,59.3,37.7,60.1 M362,60.2
		c0.7,0.7,1.3,1.2,1.3,1.2c0.1,0-0.4-0.6-1.1-1.2c-0.7-0.7-1.3-1.2-1.3-1.2C360.9,59,361.4,59.5,362,60.2 M347.5,284.4
		c-0.2,0.5-0.2,0.5,0.1,0.5c0.1,0,0.2-0.1,0.1-0.2c-0.1-0.1,0-0.2,0.1-0.3c0.2-0.1,0.2-0.1,0-0.2
		C347.7,284.1,347.6,284.2,347.5,284.4 M346.3,286.6c-0.2,0.4-0.2,0.4,0,0.4c0.4,0,0.7-0.6,0.4-0.8
		C346.6,286.2,346.4,286.3,346.3,286.6 M345.7,288c-0.3,0.4-0.6,0.8-0.8,0.9c-0.1,0.1-0.1,0.2,0,0.2s0,0.2-0.2,0.3
		c-0.3,0.3-0.4,0.3-0.1,0.3c0.2,0,0.7-0.6,1.1-1.2C346.5,287.1,346.5,286.8,345.7,288 M343.7,291.4c-0.2,0.2-0.3,0.3-0.4,0.2
		c-0.1,0-0.2,0.2-0.2,0.5s0,0.5,0,0.5C344.2,291.2,344.5,290.5,343.7,291.4 M342.6,293.2c-0.2,0.2-0.4,0.3-0.5,0.2
		c-0.1-0.1-0.2,0-0.1,0.1c0.1,0.1,0,0.5-0.2,0.8c-0.2,0.3-0.3,0.6-0.3,0.7c0,0,0.4-0.4,0.8-1C343,292.9,343.2,292.5,342.6,293.2
		 M339.9,297.5c-0.8,1.1-1.5,2.1-1.5,2.2c-0.1,0.1-0.5,0.7-1,1.4c-0.5,0.7-1,1.4-1.2,1.7c-0.2,0.2-1,1.4-1.9,2.5
		c-0.8,1.1-1.6,2.2-1.7,2.3c-0.1,0.2-0.2,0.3-0.1,0.3c0.1,0,1.1-1.3,2.4-3c2.6-3.5,6.7-9.4,6.5-9.4
		C341.3,295.4,340.6,296.3,339.9,297.5 M77.1,319c0.4,0.4,0.8,0.8,0.9,0.8s-0.2-0.4-0.7-0.8c-0.4-0.4-0.8-0.8-0.9-0.8
		C76.3,318.2,76.6,318.5,77.1,319 M321.6,320.6l-0.8,0.8L321.6,320.6c0.5-0.4,0.9-0.7,0.9-0.8C322.5,319.7,322.3,319.8,321.6,320.6
		 M80.1,322.3c0.9,0.9,1.6,1.6,1.7,1.6s-0.6-0.7-1.5-1.6c-0.9-0.9-1.6-1.6-1.7-1.6C78.6,320.7,79.3,321.4,80.1,322.3 M318.5,323.9
		l-1.6,1.6L318.5,323.9c1.6-1.4,1.8-1.6,1.6-1.6C320.1,322.3,319.4,323,318.5,323.9 M85.4,327.7c2.8,2.9,3.2,3.2,3.2,3
		C88.6,330.8,87.2,329.4,85.4,327.7l-3-3.1L85.4,327.7 M314.2,328.4l-2,2.1L314.2,328.4c2-1.8,2.3-2.1,2.1-2.1
		C316.3,326.3,315.3,327.3,314.2,328.4 M309.7,332.7l-1.6,1.6L309.7,332.7c1.6-1.4,1.8-1.6,1.6-1.6
		C311.3,331.1,310.6,331.8,309.7,332.7 M91,333.1c0.9,0.9,1.6,1.6,1.7,1.6s-0.6-0.7-1.5-1.6c-0.9-0.9-1.6-1.6-1.7-1.6
		S90.1,332.2,91,333.1 M306.3,335.9l-0.9,1L306.3,335.9c1-0.8,1.1-1,1-1C307.2,334.9,306.8,335.3,306.3,335.9 M94.4,336.3
		c0.5,0.5,0.9,0.9,1,0.9s-0.3-0.4-0.8-0.9c-0.5-0.5-0.9-0.9-1-0.9C93.5,335.4,93.9,335.8,94.4,336.3 M303.8,338.1l-0.7,0.7
		L303.8,338.1c0.8-0.5,0.9-0.7,0.7-0.7C304.5,337.4,304.2,337.7,303.8,338.1"/>
	<path id="path6" fill="#545454" d="M146.7,120c-6,0.3-6.1,0.4-2.4,12.4c1.3,4.3,3.3,10.8,4.4,14.6c1.7,5.7,16.6,53.5,27.8,89.2
		c4.4,14,1.8,12.7,24.5,12.5c17-0.1,16.5-0.1,18.2-1.6c1-0.9,1.1-1.4,18.9-58.8c3.8-12.3,8.9-28.6,11.2-36.2
		c9-28.8,9.2-29.6,8.8-30.5c-0.7-1.5-0.4-1.5-14.9-1.7c-16-0.3-16.6-0.2-18,2.4c-0.3,0.5-5.7,17.9-12.2,38.7
		c-13.5,43.8-12.8,41.6-13.1,41.6c-0.2,0-13.5-42.8-24.5-78.9c-0.5-1.7-1.5-2.9-2.9-3.5C171.6,119.9,153.3,119.7,146.7,120
		 M172.4,120.9c1,0.5,1.7,1.2,2.1,2.2c0.2,0.4,5.9,18.7,12.6,40.7s12.4,40.1,12.5,40.3c0.4,0.6,0.8-0.2,2.3-5.3
		c8.2-26.8,23.3-75.2,23.7-76c0.3-0.6,0.9-1.2,1.4-1.6l0.9-0.6l13.9,0.1c17.7,0.1,16.8-0.2,15.2,4.8c-0.4,1.2-0.9,3-1.2,4
		c-0.3,1.1-1.9,6.3-3.6,11.8c-1.7,5.4-4.1,13.3-5.5,17.6c-27.4,88.7-27,87.7-28.9,88.6l-1,0.5h-16.9h-16.9l-1-0.5
		c-0.5-0.3-1.2-0.9-1.5-1.4c-0.6-1-24.5-76.9-32.7-104c-1.5-5-3.4-11.1-4.1-13.6c-2.2-7.1-2-7.7,1.9-7.9
		C152.4,120.3,171.5,120.4,172.4,120.9 M185.8,270.5c-3.2,0.8-4.7,4.6-2.8,7.2c2.6,3.6,8.3,1.8,8.4-2.6
		C191.4,272.2,188.6,269.8,185.8,270.5 M198.8,270.6c-5.7,1.5-3.6,10.3,2.2,9c4.5-1,4.8-8,0.4-8.9c-0.4-0.1-0.9-0.2-1.1-0.2
		S199.4,270.4,198.8,270.6 M212.3,270.5c-3.9,0.9-5,5.6-2,8.1c2.6,2.2,6.5,0.9,7.4-2.5C218.5,273,215.4,269.7,212.3,270.5
		 M188.7,271.4c2.9,1.5,2.9,5.7,0,7.2c-3.9,2-7.9-2.8-5-6.1C185,270.9,186.9,270.5,188.7,271.4 M201.8,271.4c3.9,2,2.5,7.7-1.9,7.7
		c-3.2,0-5.1-3.9-3.2-6.4C197.9,271,200.1,270.5,201.8,271.4 M214.9,271.3c2.9,1.5,3.2,5.6,0.4,7.2c-3,1.8-6.8-0.8-6.2-4.3
		C209.6,271.8,212.7,270.2,214.9,271.3"/>
</g>
</svg>
