<?xml version="1.0" encoding="utf-8"?>
<!-- Generator: Adobe Illustrator 16.0.0, SVG Export Plug-In . SVG Version: 6.00 Build 0)  -->
<!DOCTYPE svg PUBLIC "-//W3C//DTD SVG 1.1//EN" "http://www.w3.org/Graphics/SVG/1.1/DTD/svg11.dtd">
<svg version="1.1" id="svg" xmlns="http://www.w3.org/2000/svg" xmlns:xlink="http://www.w3.org/1999/xlink" x="0px" y="0px"
	 width="36px" height="36px" viewBox="0 0 36 36" enable-background="new 0 0 36 36" xml:space="preserve">
<g id="svgg">
	<path id="path0" fill="#3473BB" d="M17.43,0.01c-0.01,0.01-0.08,0.02-0.16,0.02c-0.22,0.01-0.6,0.04-0.71,0.06
		c-0.04,0.01-0.11,0.02-0.16,0.02c-0.15,0.02-0.16,0.02-0.18,0.04c-0.01,0.01-0.04,0.01-0.06,0.01c-0.02,0-0.05,0-0.06,0.01
		c-0.01,0.01-0.04,0.02-0.06,0.01c-0.02,0-0.05,0-0.06,0.01c-0.01,0.01-0.04,0.02-0.08,0.02c-0.06,0.01-0.15,0.02-0.15,0.03
		c0,0-0.03,0.01-0.06,0.01c-0.04,0-0.09,0.01-0.12,0.02c-0.03,0.01-0.07,0.02-0.1,0.03c-0.03,0.01-0.07,0.02-0.1,0.02
		c-0.03,0.01-0.07,0.02-0.09,0.02c-0.08,0.02-0.14,0.03-0.17,0.04C15.06,0.36,15.02,0.37,15,0.37c-0.1,0.03-0.14,0.04-0.18,0.05
		c-0.03,0-0.05,0.02-0.06,0.02c-0.02,0.01-0.04,0.02-0.15,0.04c-0.03,0.01-0.06,0.02-0.09,0.03c-0.02,0.01-0.04,0.02-0.04,0.01
		c0-0.01-0.04,0-0.09,0.02c-0.05,0.02-0.11,0.04-0.13,0.04c-0.09,0.02-0.62,0.2-0.65,0.22c-0.02,0.01-0.04,0.03-0.05,0.03
		c-0.05,0-0.15,0.04-0.17,0.06c-0.01,0.02-0.04,0.03-0.05,0.02c-0.02-0.01-0.04,0-0.05,0.02c-0.02,0.02-0.04,0.03-0.05,0.02
		c-0.02-0.01-0.04,0-0.05,0.02c-0.02,0.02-0.04,0.03-0.05,0.02c-0.02-0.01-0.04,0-0.05,0.02C13.04,1,13.03,1.01,13.01,1
		c-0.02-0.01-0.04,0-0.05,0.02c-0.02,0.02-0.04,0.03-0.05,0.02c-0.01-0.01-0.05,0.01-0.07,0.03c-0.04,0.03-0.06,0.04-0.07,0.03
		c-0.01-0.01-0.04,0.01-0.09,0.04s-0.09,0.04-0.09,0.04s-0.05,0.01-0.09,0.05c-0.04,0.03-0.08,0.04-0.09,0.04
		c-0.01-0.01-1.11,0.55-1.32,0.67c-0.05,0.04-0.15,0.08-0.21,0.11c-0.05,0.03-0.15,0.08-0.23,0.13c-0.06,0.04-0.18,0.1-0.25,0.14
		c-0.06,0.04-0.19,0.1-0.26,0.14C9.76,2.67,8.34,3.39,8.3,3.39c-0.01,0-0.07,0.03-0.14,0.06C8.1,3.49,8.05,3.5,8.04,3.5
		c-0.01,0-0.05,0.02-0.09,0.05C7.9,3.58,7.86,3.6,7.86,3.59C7.85,3.58,7.81,3.6,7.76,3.63C7.72,3.66,7.67,3.68,7.67,3.67
		C7.67,3.66,7.64,3.68,7.6,3.7C7.56,3.72,7.54,3.73,7.53,3.72c-0.01-0.01-0.03,0-0.05,0.02C7.46,3.76,7.43,3.77,7.42,3.76
		c-0.01-0.01-0.03,0-0.05,0.02C7.35,3.8,7.32,3.8,7.31,3.8S7.27,3.8,7.24,3.82C7.2,3.85,7.17,3.86,7.16,3.85
		c-0.01-0.01-0.03,0-0.05,0.02C7.1,3.89,7.06,3.9,7.04,3.9c-0.03,0-0.07,0.02-0.09,0.04C6.93,3.96,6.9,3.97,6.9,3.96
		c-0.01-0.01-0.03,0-0.04,0.02S6.8,4,6.77,4.01c-0.03,0-0.06,0.02-0.08,0.03C6.67,4.06,6.65,4.07,6.63,4.07
		C6.56,4.08,6.36,4.14,6.34,4.18C6.32,4.2,6.3,4.21,6.29,4.2s-0.05,0-0.1,0.02C6.14,4.23,6.08,4.25,6.05,4.25
		C6.03,4.26,5.95,4.28,5.89,4.3C5.83,4.33,5.74,4.35,5.72,4.36C5.69,4.37,5.65,4.38,5.63,4.39C5.6,4.4,5.59,4.41,5.59,4.4
		s-0.04,0-0.07,0.02C5.48,4.43,5.44,4.44,5.44,4.43s-0.04,0-0.07,0.02C5.33,4.47,5.3,4.48,5.3,4.47c0-0.01-0.03,0-0.05,0.01
		C5.19,4.5,5.15,4.51,5.05,4.53C5.03,4.54,5,4.55,4.99,4.55C4.97,4.56,4.94,4.57,4.83,4.59C4.81,4.6,4.77,4.61,4.74,4.62
		C4.72,4.62,4.71,4.63,4.71,4.62s-0.04,0-0.07,0.02C4.6,4.66,4.56,4.67,4.56,4.66c0-0.01-0.03,0-0.05,0.01
		C4.45,4.69,4.42,4.7,4.33,4.71C4.23,4.73,4.08,4.8,4.05,4.82C4.03,4.84,4.01,4.85,4.01,4.84C4,4.83,3.92,4.87,3.84,4.92
		c-0.08,0.04-0.18,0.1-0.22,0.12C3.53,5.08,3.2,5.39,3.22,5.42c0.01,0.01,0,0.03-0.02,0.03C3.19,5.45,3.18,5.46,3.19,5.47
		c0.01,0.01,0,0.03-0.02,0.03C3.15,5.51,3.14,5.52,3.15,5.53c0.01,0.01,0,0.03-0.02,0.03C3.11,5.56,3.1,5.57,3.11,5.58
		c0.01,0.01,0,0.02-0.01,0.02c-0.02,0-0.08,0.13-0.07,0.15c0,0.01,0,0.02-0.02,0.02C3,5.76,3,5.77,3,5.78C3,5.79,3,5.8,3,5.81
		c0,0.01-0.01,0.03-0.01,0.04c0,0.01-0.01,0.03-0.01,0.03c0,0.01-0.01,0.02-0.01,0.03S2.96,5.93,2.96,5.93S2.95,5.94,2.95,5.96
		S2.94,6.02,2.93,6.04C2.9,6.15,2.89,6.18,2.87,6.37c-0.03,0.2-0.04,1.06-0.04,6c0,4.79,0.01,6.35,0.04,6.64
		c0,0.04,0.01,0.17,0.02,0.31S2.9,19.6,2.9,19.63c0,0.04,0.01,0.13,0.02,0.22c0.01,0.08,0.02,0.18,0.02,0.22
		c0,0.04,0.01,0.11,0.02,0.16c0.03,0.23,0.08,0.62,0.11,0.76c0,0.02,0.01,0.07,0.02,0.11C3.1,21.14,3.1,21.2,3.1,21.24
		c0.01,0.03,0.02,0.09,0.02,0.13c0,0.04,0.02,0.09,0.02,0.13c0.01,0.03,0.02,0.07,0.02,0.1c0.01,0.03,0.02,0.07,0.02,0.1
		c0,0.03,0.02,0.07,0.02,0.1c0.01,0.03,0.02,0.07,0.02,0.1c0.01,0.03,0.02,0.07,0.02,0.09c0.02,0.08,0.03,0.14,0.04,0.17
		c0.01,0.02,0.02,0.06,0.02,0.08C3.3,22.26,3.3,22.3,3.3,22.32c0.01,0.02,0.02,0.06,0.02,0.08c0.02,0.06,0.04,0.13,0.04,0.16
		c0,0.02,0.01,0.03,0.01,0.03s0.01,0.02,0.01,0.03c0,0.02,0.01,0.05,0.02,0.08s0.02,0.06,0.02,0.08c0,0.02,0.01,0.04,0.01,0.04
		s0.01,0.02,0.01,0.03c0,0.01,0.01,0.03,0.01,0.03s0.01,0.03,0.01,0.05c0.02,0.06,0.03,0.1,0.03,0.11c0,0,0.01,0.02,0.01,0.03
		c0,0.01,0.01,0.03,0.01,0.03c0,0.01,0.01,0.02,0.01,0.03c0,0.01,0.01,0.03,0.01,0.03s0.01,0.02,0.01,0.05
		c0.01,0.02,0.01,0.05,0.02,0.07c0.01,0.02,0.01,0.04,0.01,0.05c0,0,0.01,0.02,0.01,0.03c0,0.01,0.01,0.03,0.01,0.04s0,0.02,0,0.03
		s0.01,0.02,0.02,0.02c0.01,0,0.02,0.01,0.01,0.01c-0.01,0.01,0,0.03,0.01,0.04c0.01,0.02,0.02,0.03,0.01,0.03s0,0.02,0.01,0.03
		c0.02,0.02,0.02,0.03,0.01,0.03c-0.01,0,0,0.02,0.01,0.03c0.02,0.02,0.02,0.03,0.01,0.03c-0.01,0-0.01,0.01,0.01,0.03
		c0.01,0.02,0.02,0.04,0.01,0.04c-0.01,0.01,0,0.01,0.01,0.01c0.02,0,0.02,0.01,0.01,0.02c-0.01,0.01,0,0.03,0.01,0.04
		c0.01,0.01,0.02,0.02,0.01,0.03s0,0.03,0.01,0.03c0.01,0.01,0.02,0.02,0.01,0.04c-0.01,0.01,0,0.02,0.01,0.02
		c0.01,0,0.02,0.01,0.01,0.02c-0.01,0.01,0,0.03,0.01,0.04s0.02,0.02,0.01,0.04c-0.01,0.01,0,0.02,0.01,0.02
		c0.01,0,0.02,0.01,0.01,0.02c-0.01,0.01,0,0.03,0.01,0.04c0.01,0.01,0.02,0.02,0.01,0.04c-0.01,0.01,0,0.02,0.01,0.02
		c0.01,0,0.02,0.01,0.01,0.02c-0.01,0.01,0,0.03,0.01,0.04c0.01,0.01,0.02,0.02,0.01,0.04c-0.01,0.01,0,0.02,0.01,0.02
		s0.02,0.01,0.01,0.02s0,0.03,0.01,0.04c0.01,0.01,0.02,0.02,0.01,0.04c-0.01,0.01,0,0.02,0.01,0.02c0.01,0,0.02,0.01,0.01,0.01
		c-0.01,0.01,0,0.04,0.01,0.05c0.01,0.03,0.02,0.05,0.02,0.05c0,0.01,0.01,0.02,0.02,0.02s0.02,0.01,0.01,0.01
		c-0.01,0.01,0,0.04,0.02,0.07c0.02,0.04,0.04,0.07,0.03,0.08c0,0.01,0.01,0.02,0.02,0.02c0.01,0,0.02,0.01,0.01,0.01
		c-0.01,0.01,0.01,0.06,0.03,0.1s0.04,0.09,0.04,0.1c0,0.01,0.01,0.02,0.02,0.02c0.01,0,0.02,0.01,0.01,0.01
		c-0.02,0.02,0.26,0.59,0.3,0.61c0.01,0.01,0.02,0.02,0,0.02c-0.01,0-0.01,0.01,0,0.02c0.01,0.01,0.04,0.05,0.06,0.1
		c0.02,0.04,0.05,0.09,0.05,0.09s0.01,0.01,0.01,0.02c-0.01,0.01-0.01,0.02,0.01,0.02c0.01,0,0.03,0.04,0.05,0.07
		c0.02,0.04,0.04,0.07,0.05,0.07c0.01,0,0.02,0.01,0.01,0.02c-0.01,0.01,0,0.02,0.01,0.02c0.01,0,0.02,0.02,0.02,0.03
		c0,0.02,0.01,0.03,0.02,0.03c0.01,0,0.02,0.01,0.01,0.02c-0.01,0.01,0,0.02,0.01,0.02c0.01,0,0.03,0.03,0.04,0.05
		c0.01,0.03,0.02,0.05,0.04,0.05s0.02,0.01,0.01,0.02c-0.01,0.01,0,0.03,0.02,0.03c0.02,0.01,0.03,0.02,0.02,0.04
		c-0.01,0.01,0,0.02,0.01,0.02s0.02,0.02,0.02,0.03c0,0.02,0.01,0.03,0.02,0.03c0.01,0,0.02,0.01,0.01,0.02
		c-0.01,0.01,0,0.02,0.01,0.02s0.02,0.02,0.02,0.03s0.01,0.03,0.02,0.03s0.02,0.01,0.01,0.02c-0.01,0.01,0,0.03,0.02,0.03
		c0.02,0.01,0.03,0.02,0.02,0.04c-0.01,0.02,0,0.02,0.01,0.02S5,26.46,5,26.47c0,0.02,0.01,0.03,0.02,0.03
		c0.01,0,0.02,0.01,0.01,0.02c-0.01,0.01,0,0.03,0.02,0.03c0.02,0.01,0.03,0.02,0.02,0.03c-0.01,0.01,0,0.03,0.02,0.03
		c0.02,0.01,0.03,0.02,0.02,0.03c-0.01,0.01,0,0.03,0.02,0.03c0.02,0.01,0.03,0.02,0.02,0.03c-0.01,0.01,0,0.03,0.02,0.03
		c0.02,0.01,0.03,0.02,0.02,0.03c-0.01,0.01,0,0.03,0.02,0.03c0.02,0.01,0.03,0.02,0.02,0.03c-0.01,0.01,0,0.03,0.02,0.03
		c0.02,0.01,0.03,0.02,0.02,0.03c-0.01,0.01,0,0.03,0.02,0.03c0.02,0.01,0.03,0.02,0.02,0.03c-0.01,0.01,0,0.03,0.02,0.03
		c0.02,0.01,0.03,0.02,0.02,0.04c-0.01,0.01,0.01,0.03,0.03,0.04c0.03,0.01,0.04,0.03,0.03,0.04c-0.01,0.01,0,0.03,0.02,0.03
		c0.02,0.01,0.03,0.02,0.02,0.04c-0.01,0.01,0.01,0.03,0.03,0.05c0.03,0.01,0.04,0.03,0.03,0.04c-0.01,0.01,0,0.03,0.02,0.03
		c0.02,0.01,0.03,0.02,0.02,0.04c-0.01,0.01,0.01,0.03,0.03,0.04c0.03,0.01,0.04,0.03,0.03,0.04c-0.01,0.02,0.01,0.03,0.03,0.05
		c0.03,0.01,0.04,0.03,0.03,0.04c-0.01,0.01,0.01,0.03,0.03,0.04c0.03,0.01,0.04,0.03,0.03,0.05c-0.01,0.01,0.01,0.03,0.03,0.04
		c0.03,0.01,0.04,0.03,0.03,0.04c-0.01,0.01,0.01,0.03,0.03,0.04c0.03,0.01,0.04,0.03,0.03,0.05c-0.01,0.01,0.01,0.04,0.04,0.05
		s0.05,0.04,0.05,0.05c-0.01,0.01,0.01,0.03,0.03,0.04c0.03,0.01,0.04,0.03,0.03,0.04c-0.01,0.01,0.01,0.04,0.04,0.05
		c0.03,0.02,0.04,0.04,0.04,0.05c-0.01,0.01,0.02,0.04,0.05,0.06c0.04,0.03,0.05,0.06,0.05,0.06c-0.01,0.01,0.02,0.04,0.05,0.06
		c0.04,0.03,0.05,0.05,0.05,0.06c-0.01,0.01,0.02,0.04,0.05,0.06s0.05,0.05,0.05,0.06c-0.01,0.01,0.02,0.04,0.05,0.07
		c0.04,0.03,0.06,0.06,0.06,0.07s0.04,0.05,0.08,0.09c0.05,0.04,0.08,0.08,0.08,0.09s0.05,0.05,0.1,0.11
		c0.05,0.05,0.11,0.11,0.1,0.11c0,0.01,0.07,0.09,0.17,0.18c0.1,0.09,0.17,0.18,0.17,0.18c-0.01,0.03,0.66,0.66,0.67,0.65
		C7.83,29.94,7.9,30,7.98,30.08l0.15,0.15l-0.15-0.14c-0.13-0.12-0.13-0.11,0.03,0.04c0.09,0.09,0.18,0.16,0.19,0.16
		c0.01-0.01,0.05,0.03,0.1,0.07l0.08,0.09L8.3,30.38c-0.05-0.04-0.04-0.03,0.03,0.04c0.06,0.06,0.12,0.1,0.13,0.1
		c0.01-0.01,0.04,0.02,0.06,0.04l0.04,0.05l-0.05-0.04c-0.03-0.02-0.02-0.01,0.03,0.04c0.05,0.04,0.09,0.07,0.1,0.06
		c0.01-0.01,0.04,0.02,0.06,0.05l0.05,0.05l-0.05-0.04c-0.03-0.02-0.02-0.01,0.03,0.04c0.04,0.04,0.09,0.07,0.1,0.06
		c0.01-0.01,0.03,0.01,0.05,0.03c0.03,0.04,0.03,0.04-0.01,0.01c-0.02-0.02-0.01,0,0.03,0.04c0.04,0.04,0.07,0.05,0.08,0.05
		c0.01-0.01,0.03,0.01,0.05,0.03c0.03,0.04,0.03,0.04-0.01,0.01c-0.02-0.02-0.01,0,0.03,0.04c0.04,0.04,0.07,0.05,0.08,0.05
		c0.01-0.01,0.03,0.01,0.04,0.03c0.03,0.04,0.03,0.04-0.01,0.01c-0.02-0.02-0.01,0,0.03,0.04c0.04,0.04,0.07,0.05,0.08,0.05
		c0.01-0.01,0.02,0,0.03,0.02c0.01,0.02,0.01,0.02-0.02,0.01c-0.02-0.01,0,0.01,0.03,0.04c0.04,0.03,0.07,0.04,0.08,0.04
		c0.01-0.01,0.01,0,0.01,0.01c-0.01,0.02,0.05,0.07,0.09,0.07c0.01,0,0.02,0.01,0.03,0.02c0.01,0.01,0,0.01-0.01,0
		c-0.02-0.01,0,0.01,0.03,0.04c0.04,0.03,0.07,0.04,0.08,0.04c0.01-0.01,0.01,0,0.01,0.01c-0.02,0.02,0.06,0.08,0.1,0.07
		c0.01,0,0.01,0,0.01,0.02c-0.01,0.02,0.06,0.07,0.1,0.06c0.01,0,0.01,0,0.01,0.02c-0.01,0.02,0.06,0.07,0.1,0.06
		c0.01,0,0.01,0,0,0.02c-0.01,0.02,0.06,0.07,0.1,0.06c0.01,0,0.01,0,0.01,0.01c-0.02,0.03,0.16,0.16,0.18,0.13
		c0.01-0.01,0.01,0,0.01,0.01c-0.01,0.04,0.78,0.63,0.81,0.61c0.01-0.01,0.02-0.01,0.01,0c-0.02,0.02,0.19,0.17,0.22,0.16
		c0.01-0.01,0.02-0.01,0.01,0c-0.02,0.02,0.11,0.12,0.14,0.1c0.01-0.01,0.02-0.01,0.01,0c-0.02,0.02,0.11,0.12,0.14,0.1
		c0.01-0.01,0.02,0,0.01,0.01c-0.02,0.02,0.02,0.04,0.06,0.03c0.01,0,0.02,0,0.01,0.01c-0.02,0.02,0.11,0.11,0.14,0.1
		c0.01-0.01,0.02-0.01,0.01,0c-0.01,0.02,0.35,0.28,0.38,0.28c0.01,0,0.05,0.04,0.11,0.07s0.11,0.07,0.12,0.07s0.05,0.02,0.08,0.05
		c0.08,0.05,0.14,0.09,0.19,0.12c0.02,0.01,0.07,0.04,0.1,0.06c0.04,0.02,0.08,0.05,0.1,0.06c0.02,0.01,0.07,0.04,0.1,0.06
		c0.04,0.02,0.09,0.05,0.13,0.07c0.04,0.02,0.09,0.04,0.13,0.07c0.04,0.02,0.1,0.05,0.15,0.08c0.05,0.03,0.13,0.07,0.18,0.1
		c0.05,0.04,0.15,0.08,0.21,0.11c0.05,0.03,0.17,0.09,0.26,0.14c0.27,0.15,1.21,0.62,1.24,0.62c0.01,0,0.08,0.04,0.15,0.07
		c0.07,0.04,0.15,0.07,0.16,0.07c0.01,0,0.06,0.03,0.11,0.05c0.05,0.03,0.1,0.05,0.11,0.05c0.01,0,0.06,0.03,0.11,0.05
		c0.04,0.03,0.1,0.05,0.11,0.05c0.01,0,0.05,0.02,0.1,0.04s0.08,0.04,0.09,0.04c0.01-0.01,0.04,0.01,0.07,0.04
		c0.04,0.03,0.06,0.04,0.07,0.03c0.01-0.01,0.04,0.01,0.07,0.03c0.04,0.03,0.06,0.04,0.07,0.03c0.01-0.01,0.04,0.01,0.07,0.03
		c0.04,0.03,0.06,0.04,0.07,0.03c0.01-0.01,0.03,0,0.05,0.02c0.02,0.02,0.05,0.03,0.05,0.02c0.01-0.01,0.04,0.01,0.07,0.03
		c0.04,0.03,0.06,0.04,0.07,0.03c0.01-0.01,0.03,0,0.05,0.02c0.03,0.02,0.04,0.03,0.05,0.02c0.01-0.01,0.03,0,0.05,0.02
		c0.03,0.03,0.19,0.08,0.29,0.11c0.11,0.03,0.14,0.03,0.18,0.04c0.08,0.02,0.68,0.03,0.71,0.01c0.01-0.01,0.05-0.02,0.07-0.02
		c0.05,0,0.08-0.01,0.2-0.04c0.03-0.01,0.06-0.02,0.09-0.02c0.09-0.02,0.19-0.05,0.23-0.08c0.02-0.02,0.04-0.02,0.05-0.02
		c0.01,0.01,0.04-0.01,0.07-0.03c0.04-0.03,0.06-0.04,0.07-0.03c0.01,0.01,0.03,0,0.05-0.02c0.02-0.02,0.05-0.03,0.05-0.02
		c0.01,0.01,0.04-0.01,0.07-0.03c0.04-0.03,0.06-0.04,0.07-0.03c0.01,0.01,0.04-0.01,0.07-0.03c0.04-0.03,0.06-0.04,0.07-0.03
		c0.01,0.01,0.04-0.01,0.07-0.03c0.04-0.03,0.06-0.04,0.07-0.03c0.01,0.01,0.04-0.01,0.07-0.03c0.04-0.03,0.06-0.04,0.07-0.03
		c0.01,0.01,0.04-0.01,0.09-0.04c0.04-0.03,0.08-0.04,0.09-0.04c0.01,0,0.05-0.01,0.09-0.04c0.04-0.03,0.09-0.04,0.1-0.04
		s0.07-0.03,0.14-0.06c0.06-0.04,0.12-0.06,0.14-0.06c0.01,0,0.08-0.04,0.16-0.07c0.07-0.04,0.14-0.07,0.15-0.07
		c0.02,0,1.31-0.66,1.56-0.79c0.06-0.04,0.16-0.09,0.21-0.11c0.05-0.02,0.12-0.06,0.16-0.09s0.11-0.06,0.15-0.08
		c0.04-0.02,0.09-0.04,0.13-0.07c0.04-0.02,0.09-0.05,0.13-0.07c0.04-0.02,0.09-0.04,0.13-0.07c0.04-0.02,0.08-0.04,0.1-0.06
		c0.05-0.03,0.11-0.06,0.19-0.12c0.04-0.03,0.07-0.04,0.08-0.04s0.04-0.03,0.08-0.05c0.04-0.03,0.07-0.05,0.08-0.05
		c0.01,0,0.06-0.04,0.12-0.07c0.05-0.04,0.11-0.07,0.11-0.07c0.04,0,0.65-0.43,0.63-0.45c-0.01-0.01-0.01-0.01,0.01,0
		c0.03,0.02,0.16-0.07,0.14-0.1c-0.01-0.01-0.01-0.01,0.01-0.01c0.05,0.01,0.07,0,0.06-0.03c-0.01-0.01-0.01-0.02,0.01-0.01
		c0.03,0.02,0.16-0.07,0.14-0.1c-0.01-0.01-0.01-0.01,0.01,0c0.03,0.02,0.24-0.14,0.22-0.16c-0.01-0.01-0.01-0.01,0.01,0
		c0.03,0.02,0.41-0.27,0.4-0.3c0-0.01,0-0.02,0.01-0.01c0.02,0.02,0.2-0.11,0.18-0.13c-0.01-0.01,0-0.02,0.01-0.01
		c0.03,0.01,0.11-0.04,0.1-0.06c-0.01-0.01,0-0.02,0.01-0.02c0.02,0.01,0.21-0.12,0.21-0.14c0-0.01-0.01,0-0.03,0.01
		c-0.02,0.01-0.02,0.01-0.01,0c0.01-0.01,0.03-0.02,0.03-0.02c0.04,0,0.11-0.06,0.09-0.07c-0.01-0.01-0.01-0.02,0-0.02
		c0.04,0.01,0.11-0.04,0.1-0.07c-0.01-0.01-0.01-0.02,0.01-0.01c0.01,0.01,0.04-0.01,0.08-0.04c0.04-0.03,0.04-0.04,0.03-0.04
		c-0.02,0.01-0.03,0.01-0.02-0.01c0.01-0.01,0.02-0.02,0.03-0.02c0.01,0.01,0.05-0.02,0.07-0.04c0.04-0.03,0.05-0.05,0.03-0.04
		c-0.02,0.01-0.03,0.01-0.02-0.01c0.01-0.01,0.02-0.02,0.03-0.02c0.01,0.01,0.05-0.02,0.07-0.05c0.04-0.03,0.05-0.04,0.03-0.04
		c-0.02,0.01-0.03,0.01-0.02-0.01c0.01-0.01,0.02-0.02,0.03-0.02c0.01,0,0.05-0.02,0.07-0.05c0.04-0.03,0.04-0.04,0.03-0.04
		c-0.02,0.01-0.03,0.01-0.02-0.01c0.01-0.01,0.02-0.02,0.03-0.02c0.01,0.01,0.04-0.02,0.07-0.05c0.04-0.03,0.04-0.04,0.03-0.04
		c-0.02,0.01-0.03,0.01-0.02-0.01c0.01-0.01,0.02-0.02,0.03-0.02c0.01,0.01,0.04-0.02,0.08-0.05c0.04-0.04,0.06-0.05,0.03-0.04
		c-0.04,0.03-0.04,0.03-0.01-0.01c0.02-0.02,0.04-0.03,0.05-0.03c0.01,0.01,0.04-0.02,0.08-0.05c0.04-0.04,0.06-0.05,0.03-0.04
		c-0.04,0.03-0.04,0.03,0-0.02c0.02-0.03,0.05-0.05,0.06-0.04c0.01,0.01,0.04-0.02,0.08-0.05c0.04-0.04,0.05-0.05,0.03-0.04
		c-0.05,0.03-0.05,0.03,0-0.02c0.02-0.03,0.04-0.04,0.05-0.04c0.01,0.01,0.05-0.03,0.11-0.08s0.06-0.06,0.03-0.04l-0.06,0.05
		l0.06-0.06c0.04-0.04,0.06-0.06,0.07-0.05c0.01,0.01,0.06-0.04,0.13-0.1c0.06-0.06,0.07-0.07,0.03-0.04l-0.08,0.07l0.08-0.09
		c0.05-0.04,0.09-0.08,0.1-0.07c0.01,0.01,0.09-0.06,0.19-0.16c0.15-0.15,0.15-0.15,0.03-0.04l-0.14,0.14l0.14-0.14
		c0.08-0.08,0.15-0.15,0.16-0.14c0.02,0.01,0.49-0.44,0.48-0.46c0-0.01,0.07-0.09,0.17-0.18s0.17-0.18,0.17-0.18
		c0-0.01,0.04-0.05,0.1-0.11c0.05-0.05,0.11-0.11,0.1-0.12c0-0.01,0.03-0.04,0.07-0.08s0.07-0.07,0.07-0.08
		c0-0.01,0.03-0.04,0.07-0.08c0.04-0.04,0.07-0.07,0.06-0.08c-0.01-0.01,0.02-0.04,0.05-0.06c0.04-0.03,0.05-0.05,0.05-0.06
		c-0.01-0.01,0.02-0.04,0.05-0.06c0.04-0.03,0.05-0.06,0.05-0.06c-0.01-0.01,0.01-0.04,0.04-0.05c0.03-0.02,0.05-0.04,0.05-0.05
		c-0.01-0.01,0.01-0.04,0.05-0.05c0.03-0.02,0.04-0.04,0.04-0.05c-0.01-0.01,0.01-0.04,0.05-0.05c0.03-0.02,0.04-0.04,0.04-0.05
		c-0.01-0.01,0.01-0.04,0.05-0.05c0.03-0.02,0.05-0.04,0.04-0.05c-0.01-0.01,0.01-0.03,0.03-0.04c0.03-0.01,0.04-0.03,0.04-0.04
		c-0.01-0.03,0.05-0.11,0.06-0.1c0.01,0.01,0.02,0.01,0.02,0c-0.01-0.03,0.03-0.09,0.05-0.07c0.01,0.01,0.02,0,0.02-0.01
		c-0.01-0.03,0.03-0.09,0.05-0.07c0.01,0.01,0.02,0,0.02-0.01c-0.01-0.03,0.03-0.09,0.04-0.07c0.01,0.01,0.02,0,0.02-0.01
		c-0.01-0.05,0-0.07,0.03-0.05c0.02,0.01,0.02,0.01,0.01-0.01c-0.02-0.03,0.04-0.09,0.06-0.07c0.01,0.01,0.01,0.01,0.01-0.01
		c-0.01-0.04,0.03-0.09,0.04-0.08c0.01,0.01,0.02,0,0.02-0.01c-0.01-0.05,0-0.07,0.03-0.05c0.01,0.01,0.02,0.01,0.02,0
		c-0.01-0.05,0-0.07,0.03-0.05c0.02,0.01,0.02,0.01,0.01-0.01c-0.02-0.03,0.04-0.09,0.05-0.07c0.01,0.01,0.01,0.01,0.01-0.01
		c-0.01-0.04,0-0.07,0.02-0.06c0.01,0.01,0.02,0.01,0.02,0c-0.01-0.04,0-0.07,0.03-0.05c0.01,0.01,0.02,0.01,0.02,0
		c-0.01-0.05,0-0.07,0.03-0.05c0.01,0.01,0.02,0.01,0.02,0c-0.01-0.05,0-0.07,0.03-0.05c0.01,0.01,0.02,0.01,0.02,0
		c-0.01-0.05,0-0.07,0.03-0.05c0.01,0.01,0.02,0.01,0.02,0c-0.01-0.04,0.03-0.11,0.04-0.1c0.01,0.01,0.02-0.01,0.01-0.03
		c-0.01-0.02,0.01-0.04,0.03-0.03c0.02,0,0.02,0,0.01-0.04c-0.02-0.04-0.02-0.04,0.02-0.04c0.02,0,0.04,0,0.04-0.01
		c-0.01-0.04,0.03-0.11,0.05-0.09c0.01,0.01,0.01-0.01,0-0.03c-0.02-0.04-0.02-0.04,0.02-0.04c0.02,0,0.04,0,0.04-0.01
		c-0.01-0.03,0.03-0.09,0.06-0.14c0.03-0.03,0.03-0.04,0-0.04c-0.02,0-0.02-0.01,0.01-0.03c0.02-0.02,0.03-0.04,0.02-0.04
		c-0.01-0.01,0-0.01,0.02,0c0.02,0.01,0.04,0.01,0.03-0.01c-0.02-0.03,0.04-0.11,0.05-0.09c0.01,0.01,0.01,0,0,0
		c-0.01-0.01,0-0.03,0.01-0.05c0.02-0.02,0.02-0.03,0-0.03c-0.02,0-0.02-0.01,0-0.04c0.02-0.02,0.04-0.04,0.04-0.03
		c0.01,0.01,0.02-0.01,0.02-0.03c0-0.02,0.01-0.03,0.03-0.02c0.02,0.01,0.02,0.01,0.01-0.01c-0.01-0.01,0-0.03,0.01-0.04
		c0.01-0.01,0.02-0.02,0.01-0.03c-0.02-0.03,0.01-0.08,0.04-0.07c0.01,0.01,0.03-0.01,0.03-0.05c0.01-0.03,0.03-0.06,0.04-0.06
		c0.04-0.02,0.46-0.88,0.45-0.9c-0.01-0.01,0-0.01,0.01-0.01s0.02-0.01,0.02-0.02c0-0.01,0.01-0.05,0.03-0.08
		c0.02-0.04,0.03-0.07,0.02-0.07s0-0.01,0.01-0.01s0.02-0.01,0.02-0.02c0-0.01,0.01-0.04,0.03-0.08c0.02-0.04,0.03-0.07,0.02-0.07
		c-0.01-0.01,0-0.01,0.01-0.01s0.02-0.01,0.01-0.02c-0.01-0.01,0-0.03,0.01-0.04c0.01-0.01,0.02-0.02,0.01-0.04
		c-0.01-0.01,0-0.02,0.01-0.02c0.01,0,0.02-0.01,0.02-0.02c0-0.01,0.01-0.04,0.02-0.05c0.01-0.03,0.02-0.04,0.01-0.05
		c-0.01-0.01,0-0.01,0.01-0.01s0.02-0.01,0.01-0.02c-0.01-0.01,0-0.03,0.01-0.04c0.01-0.01,0.02-0.02,0.01-0.04
		c-0.01-0.01,0-0.02,0.01-0.02s0.02-0.01,0.01-0.02c-0.01-0.01,0-0.03,0.01-0.04c0.01-0.01,0.02-0.02,0.01-0.04
		c-0.01-0.01,0-0.02,0.01-0.02s0.02-0.01,0.01-0.02c-0.01-0.01,0-0.03,0.01-0.04c0.01-0.01,0.02-0.02,0.01-0.03
		c-0.01-0.01,0-0.03,0.01-0.03c0.01,0,0.02-0.02,0.01-0.04c-0.01-0.01,0-0.02,0.01-0.02c0.01,0,0.02-0.01,0.01-0.02
		c-0.01-0.01,0-0.03,0.01-0.04c0.01-0.01,0.02-0.02,0.01-0.03s0-0.03,0.01-0.03c0.01-0.01,0.02-0.02,0.01-0.04
		c-0.01-0.01,0-0.02,0.01-0.02s0.02-0.01,0.02-0.02c0-0.01,0-0.02,0-0.03c0-0.01,0.01-0.03,0.01-0.04s0.01-0.03,0.01-0.03
		c0-0.01,0.01-0.02,0.01-0.03s0.01-0.03,0.01-0.03c0-0.01,0.01-0.02,0.01-0.03s0.01-0.03,0.01-0.03c0-0.01,0.01-0.02,0.01-0.03
		c0-0.01,0.01-0.03,0.01-0.03c0-0.01,0.01-0.02,0.01-0.03s0.01-0.03,0.01-0.03c0-0.01,0.01-0.02,0.01-0.03
		c0-0.01,0.01-0.03,0.01-0.03c0-0.01,0.01-0.02,0.01-0.03c0-0.01,0.01-0.03,0.01-0.03c0-0.01,0.01-0.02,0.01-0.03
		c0-0.01,0.01-0.03,0.01-0.03c0-0.01,0.01-0.02,0.01-0.03c0-0.01,0.01-0.03,0.01-0.03s0.01-0.02,0.01-0.04
		c0.01-0.02,0.01-0.05,0.02-0.07s0.01-0.04,0.01-0.04c0,0,0.01-0.02,0.01-0.03c0-0.01,0.01-0.03,0.01-0.03s0.01-0.03,0.01-0.04
		c0.02-0.07,0.03-0.1,0.03-0.1s0.01-0.02,0.01-0.03c0-0.02,0.01-0.05,0.02-0.08c0.01-0.03,0.02-0.06,0.02-0.08s0.01-0.03,0.01-0.03
		s0.01-0.02,0.01-0.03c0.01-0.04,0.03-0.1,0.04-0.16c0.02-0.08,0.04-0.14,0.05-0.17c0.02-0.08,0.03-0.13,0.04-0.17
		c0.02-0.06,0.03-0.13,0.04-0.18c0.01-0.03,0.02-0.07,0.02-0.1c0.01-0.03,0.02-0.07,0.02-0.1c0.01-0.03,0.02-0.07,0.02-0.1
		c0.01-0.03,0.02-0.08,0.02-0.11c0.01-0.04,0.02-0.08,0.02-0.11c0.01-0.03,0.02-0.09,0.03-0.14c0.01-0.04,0.02-0.1,0.02-0.13
		c0.01-0.04,0.03-0.2,0.05-0.28c0-0.03,0.01-0.1,0.02-0.16c0.01-0.06,0.02-0.14,0.02-0.17c0-0.04,0.02-0.14,0.02-0.24
		c0.01-0.1,0.02-0.2,0.02-0.23c0.03-0.24,0.04-1.05,0.04-2.64c0-2.8-0.03-10.54-0.05-10.62c-0.01-0.04-0.02-0.11-0.02-0.15
		c-0.01-0.08-0.02-0.14-0.05-0.24c-0.02-0.08-0.03-0.11-0.03-0.12c0,0-0.01-0.02-0.01-0.03c0-0.01-0.01-0.03-0.01-0.04
		c0-0.01,0-0.02,0-0.03c0-0.01-0.01-0.02-0.02-0.02c-0.01,0-0.02-0.01-0.01-0.01C33,5.8,32.91,5.6,32.87,5.58
		c-0.01-0.01-0.02-0.02,0-0.02c0.01,0,0-0.01-0.02-0.02c-0.02-0.01-0.03-0.03-0.03-0.04c0.01-0.01-0.01-0.03-0.03-0.04
		c-0.03-0.01-0.04-0.03-0.04-0.04c0.02-0.04-0.36-0.38-0.41-0.35c-0.01,0.01-0.02,0-0.01-0.01c0.01-0.01-0.02-0.04-0.06-0.05
		C32.25,5,32.17,4.95,32.1,4.92c-0.06-0.04-0.12-0.05-0.12-0.05c-0.01,0.01-0.04-0.01-0.07-0.04c-0.04-0.03-0.06-0.04-0.07-0.03
		c-0.01,0.01-0.03,0-0.05-0.02c-0.03-0.03-0.43-0.16-0.53-0.19c-0.02,0-0.08-0.02-0.13-0.04c-0.05-0.02-0.09-0.03-0.09-0.03
		c0,0.01-0.03-0.01-0.07-0.02c-0.04-0.02-0.09-0.04-0.12-0.04c-0.03-0.01-0.09-0.03-0.14-0.05c-0.05-0.02-0.09-0.04-0.1-0.04
		c-0.01,0-0.05-0.02-0.11-0.04c-0.06-0.02-0.11-0.04-0.14-0.04c-0.02-0.01-0.09-0.03-0.16-0.05c-0.06-0.03-0.13-0.05-0.13-0.04
		c0,0-0.04-0.01-0.1-0.03s-0.12-0.04-0.15-0.04c-0.02-0.01-0.16-0.05-0.32-0.1C29.36,4,29.24,3.97,29.23,3.98s-0.03,0-0.04-0.02
		c-0.02-0.03-0.12-0.06-0.18-0.06c-0.01,0-0.04-0.01-0.06-0.03c-0.02-0.02-0.05-0.03-0.08-0.04c-0.03-0.01-0.06-0.02-0.08-0.04
		c-0.02-0.02-0.04-0.02-0.05-0.02c-0.01,0.01-0.03,0-0.04-0.02c-0.02-0.02-0.06-0.04-0.09-0.04c-0.03,0-0.06-0.02-0.08-0.04
		s-0.04-0.02-0.04-0.02c-0.01,0.01-0.04-0.01-0.07-0.03c-0.04-0.03-0.06-0.04-0.07-0.03c-0.01,0.01-0.03,0-0.05-0.02
		c-0.02-0.02-0.04-0.03-0.05-0.02c-0.01,0.01-0.04-0.01-0.07-0.03c-0.04-0.03-0.06-0.04-0.07-0.03c-0.01,0.01-0.04-0.01-0.07-0.03
		c-0.04-0.03-0.06-0.04-0.07-0.03s-0.05-0.01-0.09-0.04c-0.04-0.03-0.09-0.04-0.09-0.04c-0.01,0-0.05-0.02-0.11-0.05
		c-0.06-0.03-0.1-0.05-0.11-0.05c-0.01,0-0.07-0.03-0.14-0.06c-0.06-0.04-0.12-0.06-0.14-0.06c-0.03,0-1.02-0.51-1.21-0.61
		c-0.06-0.04-0.17-0.09-0.23-0.12c-0.06-0.03-0.15-0.08-0.21-0.11c-0.05-0.04-0.14-0.08-0.18-0.1c-0.04-0.03-0.13-0.07-0.18-0.1
		s-0.14-0.08-0.18-0.1c-0.05-0.03-0.13-0.07-0.18-0.1c-0.2-0.12-1.31-0.68-1.32-0.67c0,0-0.05-0.02-0.11-0.05s-0.11-0.05-0.12-0.05
		c-0.01,0.01-0.04-0.01-0.07-0.04c-0.04-0.03-0.06-0.04-0.07-0.03c-0.01,0.01-0.04-0.01-0.07-0.03c-0.04-0.03-0.06-0.04-0.07-0.03
		c-0.01,0.01-0.04-0.01-0.07-0.03c-0.04-0.03-0.06-0.04-0.07-0.03c-0.01,0.01-0.03,0-0.05-0.02c-0.02-0.02-0.05-0.03-0.05-0.02
		s-0.03,0-0.05-0.02c-0.02-0.02-0.05-0.04-0.09-0.04c-0.03,0-0.06-0.02-0.08-0.03c-0.02-0.02-0.05-0.03-0.08-0.03
		s-0.06-0.02-0.08-0.03c-0.04-0.03-0.16-0.07-0.18-0.05c-0.01,0.01-0.03,0-0.05-0.02c-0.03-0.03-0.25-0.11-0.35-0.13
		c-0.02-0.01-0.09-0.03-0.16-0.04c-0.06-0.03-0.12-0.04-0.12-0.04s-0.04-0.01-0.07-0.02c-0.04-0.01-0.07-0.03-0.07-0.02
		s-0.02,0-0.04-0.01c-0.02-0.01-0.06-0.03-0.09-0.03c-0.11-0.03-0.15-0.03-0.15-0.04c-0.01-0.01-0.04-0.02-0.06-0.02
		c-0.03-0.01-0.07-0.02-0.1-0.02c-0.03-0.01-0.06-0.02-0.09-0.02c-0.03-0.01-0.06-0.02-0.09-0.02c-0.02-0.01-0.06-0.02-0.09-0.02
		c-0.03-0.01-0.07-0.02-0.09-0.02c-0.04-0.01-0.08-0.02-0.18-0.04c-0.11-0.03-0.17-0.04-0.23-0.04c-0.04,0-0.06-0.01-0.06-0.01
		c0-0.01-0.08-0.03-0.15-0.03c-0.04,0-0.07-0.01-0.08-0.02c-0.01-0.01-0.04-0.01-0.06-0.01c-0.02,0-0.04,0-0.06-0.01
		c-0.03-0.02-0.04-0.02-0.18-0.04c-0.05-0.01-0.13-0.02-0.16-0.02c-0.04-0.01-0.12-0.02-0.18-0.02c-0.07-0.01-0.17-0.02-0.24-0.02
		c-0.06,0-0.18-0.02-0.26-0.02C18.85,0,17.44-0.01,17.43,0.01 M19.29,1.55c1.82,0.2,3.29,0.74,5.95,2.19
		c1.99,1.08,3.41,1.67,5.78,2.37c0.59,0.17,0.78,0.26,0.85,0.38l0.05,0.08l0.02,5.32c0.02,6.5,0.02,6.7-0.01,7.16
		c-0.26,4.14-1.84,7.33-5.11,10.29c-2.57,2.33-4.8,3.75-8.08,5.14l-0.38,0.16h-0.22h-0.22l-0.42-0.18c-2.38-1.01-4.44-2.2-6.39-3.71
		c-4.24-3.3-6.29-6.66-6.68-10.99c-0.08-0.9-0.13-4.59-0.09-7.37c0.01-0.88,0.02-2.53,0.02-3.65c0-2.26,0-2.19,0.13-2.32
		C4.57,6.33,4.63,6.3,5.35,6.09c2.27-0.67,3.79-1.32,6.24-2.66c2.26-1.23,3.76-1.74,5.54-1.89c0.15-0.01,0.3-0.03,0.35-0.03
		C17.7,1.48,19.01,1.51,19.29,1.55 M3.49,5.24c0,0-0.05,0.05-0.12,0.12L3.25,5.47l0.11-0.12C3.47,5.24,3.49,5.23,3.49,5.24
		 M32.9,5.37c0.06,0.06,0.11,0.11,0.1,0.11s-0.06-0.05-0.12-0.11c-0.05-0.05-0.11-0.11-0.1-0.11C32.79,5.26,32.84,5.31,32.9,5.37
		 M17.5,5.43c-1.37,0.11-2.76,0.55-3.88,1.21c-0.42,0.25-0.55,0.5-0.38,0.81c0.19,0.37,0.46,0.39,1.1,0.06
		c1.84-0.94,3.47-1.2,5.25-0.84c0.91,0.18,1.4,0.39,2.99,1.23c2.15,1.14,3.13,1.59,4.21,1.97c0.34,0.12,0.4,0.16,0.45,0.25
		c0.06,0.14-0.01,8.13-0.07,9.42c-0.12,2.18-0.97,3.81-3.07,5.91c-1.43,1.43-3.22,2.69-5.12,3.61c-0.92,0.45-0.86,0.45-1.86-0.05
		c-3.25-1.63-6.23-4.31-7.32-6.61c-0.49-1.04-0.74-2.06-0.82-3.45c-0.04-0.58-0.05-8.59-0.02-8.74c0.04-0.16,0.11-0.22,0.55-0.4
		c1.51-0.6,2.51-1.04,2.64-1.16c0.28-0.25,0.19-0.73-0.15-0.88c-0.22-0.1-0.34-0.07-1.17,0.29C10.57,8.19,9.92,8.46,9.4,8.67
		C8.08,9.19,8,9.25,7.88,9.71c-0.05,0.23-0.04,8.31,0.03,9.39c0.14,2.29,0.63,3.72,1.84,5.34c1.59,2.13,3.92,4.04,6.58,5.41
		c1.73,0.89,1.74,0.89,3.1,0.23c2.09-1.02,3.83-2.26,5.45-3.87c2.21-2.2,3.19-4.13,3.4-6.66c0.07-0.93,0.11-9.66,0.04-9.89
		c-0.12-0.37-0.25-0.48-0.86-0.69c-1.44-0.5-2.94-1.2-4.71-2.2C21.42,6,20.5,5.67,19.19,5.49C18.9,5.44,17.8,5.42,17.5,5.43
		 M6.96,28.93C7,28.96,7.03,29,7.03,29s-0.04-0.04-0.08-0.07c-0.04-0.04-0.06-0.07-0.06-0.07C6.89,28.85,6.93,28.88,6.96,28.93
		 M29.28,29c0,0-0.04,0.04-0.07,0.07l-0.07,0.07l0.07-0.07C29.26,29,29.28,28.99,29.28,29 M7.24,29.23
		c0.08,0.08,0.14,0.15,0.14,0.15s-0.07-0.06-0.15-0.15s-0.14-0.14-0.14-0.14C7.09,29.08,7.16,29.14,7.24,29.23 M29.07,29.23
		c0,0-0.06,0.07-0.15,0.15l-0.15,0.14l0.15-0.14C29.05,29.24,29.07,29.22,29.07,29.23 M7.99,30c0,0.02-0.03-0.02-0.29-0.27
		l-0.27-0.28l0.28,0.27C7.86,29.87,7.99,30,7.99,30 M28.73,29.6c0,0-0.08,0.09-0.19,0.19l-0.19,0.18l0.18-0.19
		C28.7,29.61,28.73,29.58,28.73,29.6"/>
	<path id="path1" fill="#FBFBFB" d="M13.27,10.91c-0.45,0.03-0.45-0.12,0.06,1.56c0.62,2.03,3,9.66,3.05,9.75
		c0.1,0.2,0.12,0.2,1.74,0.2s1.62,0,1.74-0.17c0.04-0.06,0.53-1.6,1.28-4.03c0.14-0.46,0.36-1.18,0.49-1.59
		c0.13-0.41,0.39-1.25,0.57-1.87c0.18-0.62,0.47-1.52,0.63-2.03c0.58-1.88,0.55-1.73,0.46-1.79c-0.07-0.04-2.41-0.08-2.57-0.04
		c-0.1,0.03-0.2,0.13-0.25,0.25c-0.03,0.07-1.1,3.56-2.06,6.66c-0.23,0.76-0.23,0.75-0.29,0.75c-0.06,0,0.04,0.32-1.22-3.79
		c-1.18-3.86-1.14-3.73-1.27-3.81l-0.08-0.05h-1.02C13.97,10.9,13.4,10.9,13.27,10.91 M16.8,24.63c-0.22,0.1-0.25,0.38-0.08,0.54
		c0.14,0.13,0.38,0.09,0.48-0.08C17.36,24.81,17.08,24.5,16.8,24.63 M17.99,24.64c-0.24,0.13-0.24,0.45,0,0.56
		c0.38,0.19,0.66-0.36,0.29-0.56c-0.05-0.03-0.12-0.04-0.15-0.04S18.04,24.61,17.99,24.64 M19.23,24.61
		c-0.13,0.04-0.22,0.17-0.22,0.31c0,0.27,0.32,0.42,0.53,0.25C19.8,24.94,19.56,24.52,19.23,24.61"/>
	<path id="path2" fill="#242424" d="M17.34,1.58c-1.92,0.15-3.39,0.64-5.72,1.91C9.19,4.81,7.66,5.46,5.37,6.14
		c-0.8,0.24-0.83,0.25-0.91,0.4c-0.08,0.15-0.09,11.77,0,12.84c0.19,2.46,0.73,4.19,1.88,6.13c2.06,3.47,6.18,6.74,11.18,8.88
		l0.41,0.17h0.22h0.22l0.42-0.18c3.29-1.42,5.47-2.81,8.01-5.11c3.53-3.2,5.1-6.69,5.11-11.35c0.01-2.94-0.04-11.34-0.05-11.39
		c-0.05-0.15-0.19-0.21-0.97-0.44c-2.27-0.66-3.7-1.25-5.64-2.31C21.79,1.93,19.86,1.39,17.34,1.58 M19.25,3.23
		c1.69,0.18,2.85,0.62,5.46,2.01c2.08,1.11,3.03,1.5,4.31,1.79c0.84,0.19,1.17,0.35,1.38,0.7c0.24,0.37,0.26,0.78,0.25,3.74
		l-0.01,2.16l-0.05,0.11c-0.21,0.46-0.86,0.47-1.08,0c-0.05-0.09-0.05-0.11-0.05-2.53l-0.01-2.44l-0.05-0.14
		c-0.12-0.34-0.3-0.46-0.85-0.56c-1.12-0.19-2.22-0.65-4.25-1.77c-1.59-0.87-2.41-1.26-3.36-1.56c-2.15-0.66-4.38-0.54-6.62,0.37
		c-0.64,0.26-1.21,0.55-2.57,1.27C9.87,7.43,8.9,7.84,7.88,8.05c-0.81,0.16-1,0.34-1.06,0.96c-0.05,0.56-0.05,8.7,0,9.62
		c0.15,2.54,0.55,3.92,1.57,5.64c0.41,0.68,0.48,0.92,0.4,1.21c-0.16,0.54-0.76,0.44-1.17-0.19C6.68,23.83,6,21.81,5.74,19.71
		c-0.17-1.39-0.18-1.83-0.16-7.04l0.02-4.31l0.05-0.16c0.18-0.67,0.46-0.86,1.73-1.2C8.77,6.63,9.33,6.4,11.41,5.3
		c2.64-1.4,3.78-1.82,5.42-2.03C17.51,3.18,18.61,3.16,19.25,3.23 M19.21,5.42c1.31,0.18,2.24,0.51,3.55,1.25
		c1.78,1.01,3.27,1.71,4.69,2.2c0.69,0.24,0.86,0.37,0.96,0.8c0.06,0.25,0.03,9.04-0.05,9.87c-0.1,1.24-0.43,2.42-0.93,3.43
		c-1.28,2.55-4.37,5.36-7.75,7.05c-1.45,0.72-1.58,0.74-2.6,0.26c-2.33-1.09-4.1-2.32-5.85-4.08c-2.38-2.38-3.2-4.11-3.38-7.1
		c-0.05-0.96-0.09-9.13-0.04-9.37c0.11-0.5,0.24-0.59,1.53-1.11c0.52-0.21,1.16-0.47,1.44-0.59c0.84-0.36,0.93-0.38,1.13-0.35
		c0.58,0.11,0.67,0.87,0.15,1.15c-0.2,0.11-1.45,0.63-2.36,0.99c-0.56,0.22-0.62,0.26-0.66,0.4c-0.03,0.11-0.01,8.18,0.02,8.73
		c0.15,2.59,0.96,4.31,2.96,6.32c1.52,1.53,3.24,2.76,5.24,3.75c0.87,0.44,0.81,0.44,1.68,0.01c2.48-1.2,4.6-2.84,6.25-4.85
		c1.24-1.5,1.8-2.88,1.9-4.61c0.06-1.18,0.14-9.27,0.08-9.39c-0.04-0.09-0.07-0.1-0.43-0.23c-1.13-0.4-1.99-0.8-4.17-1.95
		C21.35,7.35,20.97,7.18,20.44,7c-2-0.67-3.97-0.48-6.01,0.56c-0.64,0.33-0.86,0.35-1.11,0.12c-0.36-0.34-0.25-0.75,0.28-1.07
		c1.13-0.67,2.5-1.09,3.9-1.21C17.81,5.35,18.9,5.38,19.21,5.42 M15.63,10.84c0.13,0.06,0.22,0.17,0.26,0.32
		c1,3.29,2.21,7.18,2.23,7.18c0.03,0-0.04,0.2,1.19-3.79c0.58-1.89,1.08-3.49,1.11-3.52c0.13-0.24,0.17-0.25,1.64-0.22
		c1.32,0.02,1.29,0.02,1.36,0.16c0.04,0.08,0.02,0.15-0.8,2.78c-0.22,0.69-0.67,2.18-1.02,3.29c-1.62,5.22-1.63,5.27-1.72,5.35
		c-0.15,0.13-0.11,0.13-1.66,0.14c-2.07,0.01-1.83,0.14-2.23-1.14c-1.02-3.26-2.38-7.6-2.53-8.12c-0.1-0.34-0.28-0.94-0.4-1.33
		c-0.34-1.09-0.34-1.1,0.22-1.13C13.88,10.79,15.55,10.8,15.63,10.84 M30.31,15.24c0.28,0.19,0.33,0.37,0.36,1.63
		c0.04,2.03-0.11,3.48-0.57,5.07c-0.46,1.63-1.34,3.34-2.21,4.35c-0.07,0.08-0.23,0.26-0.34,0.4c-0.69,0.83-1.73,1.8-3,2.82
		c-1.55,1.25-3.35,2.3-5.46,3.2c-0.95,0.41-1,0.4-2.15-0.1c-2.47-1.08-4.43-2.35-6.46-4.16c-0.99-0.88-1.12-1.01-1.24-1.23
		C9,26.79,9.39,26.26,9.85,26.4c0.18,0.05,0.31,0.15,0.86,0.69c2.1,2.03,4.23,3.43,6.91,4.55c0.56,0.24,0.54,0.24,1.84-0.36
		c3.43-1.57,6.46-4.04,8.25-6.68c0.77-1.14,1.41-3.28,1.65-5.44c0.06-0.6,0.07-0.86,0.09-1.99c0.02-1.3,0.04-1.44,0.15-1.67
		C29.75,15.18,30.07,15.07,30.31,15.24 M17.12,24.56c0.35,0.17,0.27,0.7-0.1,0.78c-0.31,0.06-0.58-0.22-0.49-0.52
		C16.6,24.55,16.88,24.43,17.12,24.56 M18.25,24.52c0.18,0.04,0.34,0.29,0.29,0.48c-0.1,0.45-0.73,0.45-0.83,0
		c-0.05-0.25,0.21-0.55,0.44-0.5C18.17,24.5,18.21,24.51,18.25,24.52 M19.54,24.57c0.22,0.13,0.28,0.42,0.12,0.62
		c-0.18,0.24-0.58,0.19-0.71-0.08C18.79,24.73,19.19,24.36,19.54,24.57"/>
	<path id="path3" fill="#2C3C64" d="M17.49,1.51c-0.04,0-0.2,0.02-0.35,0.03c-1.78,0.14-3.29,0.66-5.54,1.89
		C9.14,4.76,7.62,5.41,5.35,6.08C4.63,6.29,4.57,6.32,4.48,6.41C4.35,6.54,4.35,6.47,4.35,8.73c0,1.13-0.01,2.77-0.02,3.65
		c-0.04,2.79,0.01,6.47,0.09,7.37c0.39,4.32,2.44,7.69,6.68,10.99c1.95,1.51,4,2.71,6.39,3.71l0.42,0.18h0.22h0.22l0.38-0.16
		c3.29-1.39,5.52-2.81,8.08-5.14c3.26-2.96,4.84-6.14,5.11-10.29c0.03-0.46,0.03-0.67,0.01-7.16l-0.02-5.32l-0.05-0.08
		c-0.06-0.13-0.25-0.21-0.85-0.38c-2.37-0.7-3.79-1.27-5.78-2.37c-2.68-1.46-4.13-1.99-5.95-2.19C19.01,1.51,17.7,1.48,17.49,1.51
		 M18.92,1.57c1.93,0.14,3.45,0.67,6.3,2.22c1.96,1.07,3.39,1.65,5.64,2.32c0.78,0.23,0.92,0.29,0.97,0.44
		c0.02,0.05,0.06,8.45,0.06,11.39c-0.01,4.66-1.58,8.15-5.11,11.35c-2.53,2.3-4.71,3.69-8.01,5.11l-0.42,0.18h-0.22h-0.22
		l-0.41-0.17c-4.99-2.14-9.11-5.42-11.17-8.88c-1.16-1.95-1.68-3.68-1.88-6.13c-0.08-1.08-0.08-12.69,0-12.84
		c0.08-0.16,0.11-0.16,0.91-0.4c2.28-0.68,3.82-1.34,6.24-2.65C14.47,1.93,16.46,1.41,18.92,1.57 M17.37,3.2
		c-1.89,0.16-3.12,0.58-5.97,2.09C9.31,6.4,8.76,6.63,7.35,7.01c-1.28,0.35-1.55,0.53-1.73,1.2L5.58,8.37l-0.02,4.31
		c-0.02,5.21-0.01,5.64,0.16,7.04c0.26,2.1,0.95,4.12,1.88,5.58c0.4,0.63,1.01,0.73,1.16,0.19c0.09-0.29,0.01-0.53-0.4-1.21
		c-1.03-1.72-1.41-3.1-1.57-5.64c-0.05-0.92-0.05-9.06,0-9.62c0.06-0.63,0.26-0.8,1.07-0.96c1.01-0.21,1.98-0.61,3.9-1.65
		c1.36-0.73,1.92-1.01,2.57-1.27c2.24-0.91,4.47-1.03,6.62-0.37c0.95,0.29,1.78,0.67,3.36,1.56c2.03,1.12,3.13,1.58,4.25,1.77
		c0.55,0.09,0.74,0.22,0.85,0.56l0.05,0.14l0.01,2.44c0.01,2.42,0.01,2.44,0.05,2.53c0.22,0.46,0.87,0.46,1.08,0l0.05-0.11
		l0.01-2.16c0.01-2.97-0.02-3.38-0.25-3.74c-0.23-0.35-0.56-0.51-1.38-0.7c-1.28-0.29-2.24-0.68-4.31-1.79
		c-2.37-1.27-3.43-1.68-4.86-1.93C19.19,3.2,18.03,3.15,17.37,3.2 M17.5,5.38c-1.39,0.11-2.77,0.54-3.9,1.21
		c-0.54,0.32-0.65,0.74-0.28,1.07c0.25,0.24,0.46,0.21,1.11-0.12c2.04-1.05,4-1.24,6.01-0.56c0.54,0.18,0.91,0.35,2.15,1.01
		c2.18,1.15,3.04,1.55,4.17,1.95c0.36,0.13,0.39,0.15,0.43,0.23c0.05,0.13-0.02,8.21-0.08,9.39c-0.1,1.74-0.66,3.11-1.9,4.61
		c-1.67,2.01-3.77,3.65-6.25,4.85c-0.88,0.43-0.81,0.43-1.68-0.01c-2-0.99-3.72-2.22-5.24-3.75c-2-2.01-2.8-3.72-2.96-6.32
		c-0.03-0.54-0.05-8.61-0.02-8.73c0.04-0.14,0.1-0.17,0.66-0.4c0.91-0.36,2.16-0.89,2.36-0.99c0.53-0.28,0.44-1.04-0.15-1.15
		c-0.2-0.04-0.28-0.01-1.13,0.35C10.51,8.14,9.87,8.4,9.35,8.61C8.06,9.13,7.92,9.23,7.82,9.72c-0.05,0.24-0.02,8.41,0.04,9.37
		c0.17,3,0.99,4.72,3.39,7.11c1.76,1.76,3.51,2.99,5.85,4.08c1.02,0.48,1.16,0.46,2.6-0.25c3.38-1.69,6.46-4.51,7.75-7.05
		c0.51-1.01,0.83-2.19,0.93-3.43c0.06-0.83,0.11-9.61,0.05-9.87c-0.11-0.43-0.27-0.56-0.96-0.8c-1.42-0.49-2.91-1.19-4.69-2.2
		c-1.31-0.75-2.24-1.07-3.55-1.25C18.9,5.38,17.81,5.35,17.5,5.38 M19.2,5.49c1.31,0.18,2.23,0.51,3.58,1.28
		c1.77,1,3.27,1.7,4.71,2.2c0.6,0.21,0.74,0.32,0.85,0.69c0.07,0.24,0.05,8.97-0.04,9.89c-0.21,2.54-1.19,4.46-3.4,6.66
		c-1.62,1.61-3.36,2.85-5.45,3.87c-1.37,0.67-1.37,0.67-3.1-0.23c-2.66-1.37-4.99-3.28-6.58-5.41c-1.22-1.62-1.71-3.05-1.84-5.34
		c-0.06-1.07-0.09-9.17-0.03-9.39c0.12-0.46,0.2-0.52,1.52-1.05c0.52-0.21,1.17-0.47,1.44-0.59c0.84-0.36,0.96-0.38,1.17-0.29
		c0.36,0.15,0.44,0.64,0.15,0.88c-0.13,0.11-1.13,0.54-2.64,1.16c-0.45,0.18-0.52,0.23-0.55,0.4C8.95,10.37,8.97,18.38,9,18.96
		c0.08,1.39,0.32,2.41,0.82,3.45c1.09,2.29,4.07,4.99,7.32,6.61c0.99,0.5,0.94,0.49,1.86,0.05c1.89-0.91,3.69-2.18,5.12-3.61
		c2.09-2.09,2.94-3.73,3.07-5.91c0.07-1.29,0.14-9.28,0.07-9.42c-0.05-0.1-0.11-0.14-0.45-0.25c-1.07-0.37-2.07-0.84-4.21-1.97
		c-1.59-0.84-2.08-1.05-3-1.23c-1.78-0.37-3.41-0.1-5.25,0.84c-0.65,0.33-0.91,0.32-1.1-0.06c-0.15-0.31-0.04-0.56,0.38-0.81
		c1.12-0.66,2.49-1.09,3.88-1.21C17.8,5.42,18.9,5.44,19.2,5.49 M29.93,15.17c-0.4,0.14-0.46,0.35-0.48,1.97
		c-0.05,3.51-0.73,6.09-2.07,7.9c-2,2.71-5.17,5.09-8.75,6.58c-0.52,0.22-0.51,0.22-1.02,0c-2.68-1.12-4.81-2.52-6.91-4.55
		c-0.56-0.54-0.68-0.64-0.87-0.69c-0.46-0.14-0.85,0.39-0.61,0.83c0.12,0.22,0.25,0.35,1.24,1.23c2.03,1.81,4,3.08,6.46,4.16
		c1.15,0.5,1.21,0.5,2.15,0.1c2.11-0.91,3.91-1.96,5.46-3.2c1.26-1.02,2.3-1.99,3-2.82c0.12-0.14,0.26-0.32,0.34-0.4
		c1.42-1.64,2.48-4.4,2.72-7.12c0.07-0.83,0.08-2.91,0.01-3.34C30.54,15.34,30.25,15.07,29.93,15.17"/>
	<path id="path4" fill="#B4B4B4" d="M13.18,10.88c-0.36,0.02-0.37,0.07-0.17,0.72c0.06,0.22,0.24,0.77,0.37,1.24
		c0.75,2.47,2.91,9.38,2.98,9.47c0.03,0.04,0.09,0.1,0.14,0.13l0.09,0.04h1.54h1.54l0.09-0.04c0.17-0.09,0.14,0.01,2.63-8.06
		c0.12-0.39,0.35-1.11,0.5-1.6c0.15-0.49,0.3-0.97,0.33-1.07s0.08-0.26,0.11-0.37c0.15-0.46,0.23-0.43-1.38-0.44l-1.27-0.01
		l-0.08,0.05c-0.04,0.03-0.1,0.09-0.13,0.15c-0.04,0.07-1.41,4.48-2.16,6.92c-0.14,0.46-0.17,0.53-0.21,0.48
		c-0.01-0.02-0.52-1.67-1.14-3.67c-1.14-3.7-1.15-3.73-1.22-3.81c-0.12-0.13-0.09-0.13-1.27-0.12
		C13.87,10.86,13.3,10.87,13.18,10.88 M15.64,10.96c0.12,0.08,0.08-0.04,1.27,3.81c1.27,4.11,1.16,3.79,1.22,3.79
		c0.06,0,0.05,0.01,0.29-0.75c0.96-3.1,2.03-6.59,2.06-6.66c0.04-0.12,0.15-0.22,0.25-0.25c0.15-0.05,2.49,0,2.57,0.04
		c0.08,0.05,0.12-0.09-0.46,1.78c-0.15,0.5-0.44,1.41-0.63,2.03c-0.19,0.62-0.45,1.45-0.57,1.87c-0.13,0.41-0.36,1.13-0.49,1.59
		c-0.75,2.43-1.24,3.98-1.28,4.03c-0.12,0.17-0.13,0.17-1.74,0.17c-1.62,0-1.63,0-1.74-0.2c-0.05-0.09-2.43-7.73-3.05-9.75
		c-0.44-1.45-0.45-1.48-0.35-1.54c0.06-0.03,0.53-0.04,1.55-0.04h1.02L15.64,10.96 M16.77,24.59c-0.35,0.21-0.23,0.7,0.16,0.7
		c0.31,0,0.47-0.33,0.31-0.58C17.14,24.57,16.9,24.5,16.77,24.59 M17.96,24.59c-0.34,0.18-0.22,0.7,0.15,0.7
		c0.4,0,0.53-0.52,0.17-0.7C18.2,24.54,18.06,24.54,17.96,24.59 M19.15,24.6c-0.34,0.19-0.2,0.69,0.18,0.69
		c0.21,0,0.36-0.16,0.36-0.37C19.7,24.64,19.4,24.47,19.15,24.6 M17.1,24.66c0.21,0.14,0.19,0.46-0.04,0.56s-0.48-0.08-0.46-0.34
		C16.65,24.66,16.92,24.52,17.1,24.66 M18.28,24.64c0.24,0.13,0.24,0.45,0,0.56c-0.38,0.19-0.66-0.36-0.29-0.56
		c0.05-0.03,0.12-0.04,0.15-0.04S18.22,24.61,18.28,24.64 M19.46,24.63c0.29,0.14,0.24,0.56-0.08,0.61
		c-0.31,0.04-0.49-0.35-0.25-0.56C19.21,24.59,19.33,24.58,19.46,24.63"/>
	<path id="path5" fill="#719CCC" d="M3.36,5.36L3.25,5.48L3.36,5.36c0.12-0.1,0.14-0.12,0.12-0.12C3.48,5.24,3.42,5.29,3.36,5.36
		 M32.88,5.37C32.94,5.43,33,5.48,33,5.48c0.01,0-0.04-0.05-0.1-0.11c-0.06-0.06-0.12-0.11-0.12-0.11S32.82,5.31,32.88,5.37
		 M31.56,25.78c-0.02,0.04-0.02,0.04,0.01,0.04c0.01,0,0.02-0.01,0.01-0.02s0-0.02,0.01-0.03c0.02-0.01,0.02-0.01,0-0.02
		C31.58,25.75,31.57,25.76,31.56,25.78 M31.45,25.98c-0.02,0.04-0.02,0.04,0,0.04c0.04,0,0.06-0.05,0.04-0.07
		C31.48,25.94,31.46,25.95,31.45,25.98 M31.39,26.11c-0.03,0.04-0.05,0.07-0.07,0.08c-0.01,0.01-0.01,0.02,0,0.02s0,0.02-0.02,0.03
		c-0.03,0.03-0.04,0.03-0.01,0.03c0.02,0,0.06-0.05,0.1-0.11C31.47,26.02,31.47,26,31.39,26.11 M31.21,26.41
		c-0.02,0.02-0.03,0.03-0.04,0.02c-0.01,0-0.02,0.02-0.02,0.05s0,0.04,0,0.04C31.26,26.4,31.29,26.33,31.21,26.41 M31.11,26.58
		c-0.02,0.02-0.04,0.03-0.05,0.02c-0.01-0.01-0.02,0-0.01,0.01c0.01,0.01,0,0.04-0.02,0.07c-0.02,0.03-0.03,0.05-0.03,0.06
		c0,0,0.04-0.04,0.07-0.09C31.15,26.55,31.17,26.52,31.11,26.58 M30.87,26.97c-0.07,0.1-0.14,0.19-0.14,0.2
		c-0.01,0.01-0.04,0.06-0.09,0.13c-0.05,0.06-0.09,0.13-0.11,0.15c-0.02,0.02-0.09,0.13-0.17,0.23c-0.07,0.1-0.15,0.2-0.15,0.21
		c-0.01,0.02-0.02,0.03-0.01,0.03c0.01,0,0.1-0.12,0.22-0.27c0.24-0.32,0.61-0.86,0.59-0.86C30.99,26.78,30.93,26.86,30.87,26.97
		 M6.95,28.93C6.98,28.96,7.02,29,7.03,29s-0.02-0.04-0.06-0.07c-0.04-0.04-0.07-0.07-0.08-0.07S6.9,28.88,6.95,28.93 M29.2,29.07
		l-0.07,0.07L29.2,29.07c0.05-0.04,0.08-0.06,0.08-0.07C29.28,28.99,29.26,29,29.2,29.07 M7.22,29.23c0.08,0.08,0.15,0.15,0.15,0.15
		c0.01,0-0.05-0.06-0.14-0.15c-0.08-0.08-0.15-0.14-0.15-0.14C7.08,29.08,7.15,29.14,7.22,29.23 M28.92,29.37l-0.15,0.14
		L28.92,29.37c0.15-0.13,0.16-0.15,0.15-0.15C29.06,29.23,29,29.29,28.92,29.37 M7.7,29.72c0.25,0.26,0.29,0.29,0.29,0.27
		C7.99,30,7.86,29.87,7.7,29.72l-0.27-0.28L7.7,29.72 M28.53,29.78l-0.18,0.19L28.53,29.78c0.18-0.17,0.21-0.19,0.19-0.19
		C28.72,29.59,28.63,29.68,28.53,29.78 M28.12,30.17l-0.15,0.14L28.12,30.17c0.15-0.13,0.16-0.15,0.15-0.15
		C28.26,30.03,28.2,30.09,28.12,30.17 M8.21,30.21c0.08,0.08,0.15,0.15,0.15,0.15c0.01,0-0.05-0.06-0.14-0.15
		c-0.08-0.08-0.15-0.14-0.15-0.14S8.13,30.13,8.21,30.21 M27.81,30.46l-0.08,0.09L27.81,30.46c0.09-0.07,0.1-0.09,0.09-0.09
		S27.85,30.41,27.81,30.46 M8.52,30.5c0.04,0.04,0.08,0.08,0.09,0.08s-0.03-0.04-0.07-0.08c-0.04-0.05-0.08-0.08-0.09-0.08
		S8.47,30.46,8.52,30.5 M27.58,30.66l-0.06,0.06L27.58,30.66c0.07-0.04,0.08-0.06,0.06-0.06C27.64,30.6,27.62,30.63,27.58,30.66"/>
	<path id="path6" fill="#545454" d="M13.28,10.81c-0.55,0.03-0.55,0.04-0.22,1.13c0.12,0.39,0.3,0.98,0.4,1.33
		c0.15,0.52,1.51,4.87,2.53,8.12c0.4,1.27,0.16,1.16,2.23,1.14c1.55-0.01,1.5-0.01,1.66-0.15c0.09-0.08,0.1-0.13,1.72-5.35
		c0.35-1.12,0.81-2.6,1.02-3.3c0.82-2.62,0.84-2.69,0.8-2.78c-0.06-0.14-0.04-0.14-1.36-0.15c-1.46-0.03-1.51-0.02-1.64,0.22
		c-0.03,0.05-0.52,1.63-1.11,3.52c-1.23,3.99-1.17,3.79-1.19,3.79c-0.02,0-1.23-3.9-2.23-7.18c-0.04-0.15-0.14-0.26-0.26-0.32
		C15.55,10.8,13.88,10.79,13.28,10.81 M15.62,10.9c0.09,0.05,0.15,0.11,0.19,0.2c0.02,0.04,0.54,1.7,1.15,3.7
		c0.61,2,1.13,3.65,1.14,3.67c0.04,0.05,0.07-0.02,0.21-0.48c0.75-2.44,2.12-6.85,2.16-6.92c0.03-0.05,0.08-0.11,0.13-0.15
		l0.08-0.06l1.27,0.01c1.61,0.01,1.53-0.02,1.38,0.44c-0.04,0.11-0.08,0.27-0.11,0.36c-0.03,0.1-0.17,0.57-0.33,1.07
		c-0.16,0.49-0.37,1.21-0.5,1.6c-2.49,8.07-2.46,7.98-2.63,8.06l-0.09,0.05h-1.54h-1.54l-0.09-0.05c-0.05-0.03-0.11-0.08-0.14-0.13
		c-0.05-0.09-2.23-7-2.98-9.47c-0.14-0.46-0.31-1.01-0.37-1.24c-0.2-0.65-0.18-0.7,0.17-0.72C13.8,10.84,15.54,10.85,15.62,10.9
		 M16.84,24.51c-0.29,0.07-0.43,0.42-0.25,0.66c0.24,0.33,0.75,0.16,0.76-0.24C17.35,24.67,17.09,24.45,16.84,24.51 M18.02,24.52
		c-0.52,0.14-0.33,0.94,0.2,0.82c0.41-0.09,0.44-0.73,0.04-0.81c-0.04-0.01-0.08-0.02-0.1-0.02S18.08,24.5,18.02,24.52 M19.25,24.51
		c-0.36,0.08-0.46,0.51-0.18,0.74c0.24,0.2,0.59,0.08,0.67-0.23C19.82,24.74,19.53,24.44,19.25,24.51 M17.1,24.59
		c0.26,0.14,0.26,0.52,0,0.65c-0.36,0.18-0.72-0.25-0.46-0.55C16.77,24.55,16.94,24.51,17.1,24.59 M18.3,24.59
		c0.35,0.18,0.23,0.7-0.17,0.7c-0.29,0-0.46-0.36-0.29-0.58C17.94,24.56,18.14,24.51,18.3,24.59 M19.49,24.58
		c0.26,0.14,0.29,0.51,0.04,0.66c-0.27,0.16-0.62-0.07-0.56-0.39C19.01,24.63,19.29,24.48,19.49,24.58"/>
</g>
</svg>
