<?xml version="1.0" encoding="utf-8"?>
<!-- Generator: Adobe Illustrator 16.0.0, SVG Export Plug-In . SVG Version: 6.00 Build 0)  -->
<!DOCTYPE svg PUBLIC "-//W3C//DTD SVG 1.1//EN" "http://www.w3.org/Graphics/SVG/1.1/DTD/svg11.dtd">
<svg version="1.1" id="svg" xmlns="http://www.w3.org/2000/svg" xmlns:xlink="http://www.w3.org/1999/xlink" x="0px" y="0px"
	 width="36px" height="36px" viewBox="0 0 36 36" enable-background="new 0 0 36 36" xml:space="preserve">
<g id="svgg">
	<path id="path0" fill="#3473BB" d="M17.430664,0.009766c-0.008789,0.008789-0.081055,0.017578-0.163086,0.017578
		c-0.21875,0.009766-0.600586,0.044922-0.710938,0.064453c-0.036133,0.008789-0.108398,0.017578-0.163086,0.017578
		c-0.145508,0.017578-0.164063,0.017578-0.181641,0.036133c-0.009766,0.008789-0.037109,0.008789-0.064453,0.008789
		c-0.017578,0-0.045898,0-0.063477,0.009766c-0.008789,0.009766-0.036133,0.017578-0.063477,0.009766
		c-0.018555,0-0.045898,0-0.064453,0.007813c-0.008789,0.009766-0.044922,0.018555-0.082031,0.018555
		c-0.063477,0.008789-0.145508,0.018555-0.145508,0.027344c0,0-0.026367,0.008789-0.063477,0.008789
		c-0.036133,0-0.09082,0.009766-0.118164,0.019531c-0.027344,0.007813-0.072266,0.017578-0.099609,0.026367
		c-0.02832,0.008789-0.073242,0.018555-0.100586,0.018555c-0.027344,0.008789-0.073242,0.017578-0.09082,0.017578
		c-0.082031,0.018555-0.136719,0.027344-0.172852,0.037109c-0.018555,0.008789-0.064453,0.017578-0.082031,0.017578
		c-0.100586,0.027344-0.136719,0.037109-0.182617,0.045898c-0.027344,0-0.053711,0.018555-0.063477,0.018555
		c-0.018555,0.007813-0.044922,0.017578-0.154297,0.036133c-0.027344,0.008789-0.063477,0.018555-0.091797,0.027344
		c-0.017578,0.008789-0.036133,0.018555-0.036133,0.008789c0-0.008789-0.036133,0-0.09082,0.017578
		c-0.045898,0.019531-0.109375,0.037109-0.126953,0.037109c-0.091797,0.017578-0.619141,0.200195-0.646484,0.21875
		c-0.018555,0.008789-0.036133,0.027344-0.054688,0.027344c-0.054688,0-0.154297,0.036133-0.172852,0.063477
		c-0.009766,0.018555-0.036133,0.027344-0.045898,0.018555c-0.018555-0.009766-0.036133,0-0.054688,0.017578
		c-0.017578,0.018555-0.036133,0.027344-0.054688,0.018555c-0.017578-0.008789-0.036133,0-0.053711,0.018555
		c-0.018555,0.017578-0.037109,0.027344-0.054688,0.017578c-0.018555-0.008789-0.037109,0-0.054688,0.017578
		c-0.018555,0.019531-0.037109,0.02832-0.054688,0.019531c-0.018555-0.009766-0.037109,0-0.054688,0.017578
		c-0.018555,0.017578-0.037109,0.027344-0.045898,0.017578c-0.008789-0.007813-0.045898,0.009766-0.072266,0.027344
		c-0.037109,0.027344-0.064453,0.037109-0.073242,0.027344c-0.008789-0.007813-0.044922,0.009766-0.09082,0.037109
		s-0.09082,0.044922-0.09082,0.044922s-0.045898,0.009766-0.091797,0.046875c-0.044922,0.026367-0.082031,0.044922-0.09082,0.044922
		c-0.008789-0.009766-1.110352,0.545898-1.319336,0.673828c-0.054688,0.035156-0.145508,0.082031-0.209961,0.109375
		c-0.054688,0.027344-0.154297,0.082031-0.227539,0.126953c-0.063477,0.036133-0.181641,0.099609-0.245117,0.136719
		c-0.064453,0.035156-0.191406,0.099609-0.264648,0.144531C9.757813,2.666992,8.337891,3.386719,8.301758,3.386719
		c-0.008789,0-0.073242,0.027344-0.136719,0.0625C8.101563,3.486328,8.046875,3.503906,8.038086,3.503906
		c-0.009766,0-0.054688,0.018555-0.091797,0.045898c-0.044922,0.027344-0.082031,0.045898-0.09082,0.036133
		C7.84668,3.577148,7.810547,3.595703,7.764648,3.631836C7.71875,3.65918,7.673828,3.677734,7.673828,3.667969
		C7.665039,3.65918,7.636719,3.677734,7.600586,3.695313C7.564453,3.722656,7.537109,3.732422,7.52832,3.722656
		c-0.008789-0.008789-0.027344,0-0.054688,0.018555C7.455078,3.759766,7.427734,3.767578,7.418945,3.759766
		c-0.009766-0.009766-0.027344,0-0.054688,0.017578C7.345703,3.795898,7.318359,3.804688,7.30957,3.795898
		S7.273438,3.804688,7.236328,3.823242C7.200195,3.849609,7.172852,3.859375,7.164063,3.849609
		c-0.008789-0.007813-0.027344,0-0.045898,0.019531C7.100586,3.886719,7.064453,3.896484,7.036133,3.904297
		c-0.027344,0-0.072266,0.018555-0.09082,0.037109C6.927734,3.958984,6.899414,3.96875,6.899414,3.958984
		c-0.008789-0.007813-0.026367,0-0.044922,0.018555S6.799805,4.004883,6.772461,4.013672
		c-0.027344,0-0.063477,0.019531-0.082031,0.027344C6.671875,4.05957,6.645508,4.068359,6.626953,4.068359
		C6.563477,4.078125,6.363281,4.141602,6.335938,4.177734C6.317383,4.196289,6.298828,4.205078,6.290039,4.196289
		s-0.054688,0-0.099609,0.018555C6.144531,4.232422,6.081055,4.250977,6.053711,4.250977
		C6.026367,4.259766,5.953125,4.27832,5.889648,4.304688c-0.063477,0.02832-0.145508,0.046875-0.172852,0.054688
		C5.689453,4.369141,5.65332,4.37793,5.625977,4.386719C5.598633,4.396484,5.588867,4.40625,5.588867,4.396484
		s-0.036133,0-0.072266,0.017578C5.480469,4.432617,5.443359,4.441406,5.443359,4.432617s-0.036133,0-0.072266,0.018555
		C5.334961,4.46875,5.297852,4.478516,5.297852,4.46875c0-0.007813-0.027344,0-0.054688,0.009766
		c-0.054688,0.017578-0.09082,0.027344-0.19043,0.054688C5.025391,4.542969,4.99707,4.550781,4.988281,4.550781
		C4.970703,4.560547,4.943359,4.569336,4.833984,4.587891C4.806641,4.59668,4.769531,4.605469,4.743164,4.615234
		C4.724609,4.624023,4.706055,4.632813,4.706055,4.624023s-0.036133,0-0.072266,0.018555
		C4.597656,4.660156,4.560547,4.669922,4.560547,4.660156c0-0.008789-0.027344,0-0.054688,0.009766
		C4.451172,4.6875,4.424805,4.697266,4.333008,4.714844C4.233398,4.733398,4.078125,4.796875,4.050781,4.824219
		C4.032227,4.841797,4.014648,4.851563,4.005859,4.841797C3.996094,4.833008,3.923828,4.869141,3.841797,4.916016
		c-0.082031,0.044922-0.181641,0.099609-0.21875,0.117188c-0.09082,0.045898-0.418945,0.355469-0.400391,0.382813
		c0.008789,0.008789,0,0.027344-0.018555,0.027344C3.186523,5.453125,3.176758,5.460938,3.186523,5.470703
		c0.008789,0.008789,0,0.027344-0.018555,0.027344C3.150391,5.506836,3.140625,5.515625,3.150391,5.525391
		c0.008789,0.008789,0,0.027344-0.018555,0.027344C3.113281,5.561523,3.104492,5.570313,3.113281,5.580078
		c0.008789,0.008789,0,0.017578-0.008789,0.017578c-0.018555,0-0.082031,0.126953-0.073242,0.145508
		c0,0.009766,0,0.018555-0.017578,0.018555c-0.009766,0-0.018555,0.009766-0.018555,0.017578c0,0.009766,0,0.019531,0,0.027344
		c0,0.009766-0.008789,0.02832-0.008789,0.037109c0,0.009766-0.009766,0.027344-0.009766,0.027344
		c0,0.008789-0.008789,0.017578-0.008789,0.027344S2.958984,5.925781,2.958984,5.925781S2.949219,5.943359,2.949219,5.961914
		S2.94043,6.016602,2.931641,6.035156C2.904297,6.15332,2.894531,6.179688,2.868164,6.371094
		C2.84082,6.572266,2.831055,7.427734,2.831055,12.369141c0,4.789063,0.009766,6.353516,0.037109,6.644531
		c0,0.037109,0.008789,0.173828,0.017578,0.310547s0.018555,0.273438,0.018555,0.308594
		c0,0.037109,0.008789,0.126953,0.018555,0.21875c0.008789,0.082031,0.017578,0.181641,0.017578,0.21875
		c0,0.035156,0.008789,0.109375,0.018555,0.164063c0.027344,0.226563,0.082031,0.619141,0.109375,0.763672
		c0,0.017578,0.008789,0.074219,0.017578,0.109375c0.009766,0.037109,0.018555,0.091797,0.018555,0.128906
		c0.008789,0.025391,0.017578,0.089844,0.017578,0.126953c0,0.035156,0.018555,0.089844,0.018555,0.126953
		C3.150391,21.517578,3.15918,21.5625,3.15918,21.589844c0.008789,0.027344,0.017578,0.074219,0.017578,0.101563
		c0,0.025391,0.018555,0.072266,0.018555,0.099609c0.008789,0.027344,0.018555,0.072266,0.018555,0.099609
		c0.008789,0.027344,0.017578,0.072266,0.017578,0.091797C3.25,22.0625,3.258789,22.119141,3.268555,22.154297
		c0.008789,0.017578,0.018555,0.064453,0.018555,0.082031c0.008789,0.019531,0.017578,0.064453,0.017578,0.082031
		c0.008789,0.017578,0.018555,0.0625,0.018555,0.082031c0.017578,0.064453,0.036133,0.126953,0.036133,0.164063
		c0,0.017578,0.008789,0.027344,0.008789,0.027344s0.009766,0.017578,0.009766,0.027344
		c0,0.017578,0.008789,0.054688,0.017578,0.082031s0.018555,0.0625,0.018555,0.082031
		c0,0.017578,0.008789,0.035156,0.008789,0.035156s0.008789,0.017578,0.008789,0.029297
		c0,0.007813,0.009766,0.025391,0.009766,0.025391s0.008789,0.027344,0.008789,0.046875
		c0.018555,0.0625,0.027344,0.099609,0.027344,0.109375c0,0,0.008789,0.017578,0.008789,0.027344
		c0,0.007813,0.009766,0.025391,0.009766,0.025391c0,0.009766,0.008789,0.019531,0.008789,0.027344
		c0,0.009766,0.009766,0.027344,0.009766,0.027344s0.008789,0.019531,0.008789,0.046875
		c0.008789,0.017578,0.008789,0.054688,0.017578,0.072266c0.009766,0.017578,0.009766,0.037109,0.009766,0.046875
		c0,0,0.008789,0.017578,0.008789,0.025391c0,0.009766,0.008789,0.027344,0.008789,0.037109s0,0.017578,0,0.027344
		s0.008789,0.017578,0.018555,0.017578c0.008789,0,0.018555,0.009766,0.008789,0.009766
		c-0.008789,0.007813,0,0.027344,0.009766,0.044922c0.008789,0.019531,0.017578,0.027344,0.008789,0.027344
		s0,0.019531,0.008789,0.027344c0.018555,0.017578,0.018555,0.027344,0.008789,0.027344c-0.008789,0,0,0.017578,0.009766,0.027344
		c0.018555,0.019531,0.018555,0.027344,0.008789,0.027344c-0.008789,0-0.008789,0.009766,0.009766,0.027344
		c0.008789,0.019531,0.017578,0.037109,0.008789,0.044922c-0.008789,0.009766,0,0.009766,0.008789,0.009766
		c0.018555,0,0.018555,0.009766,0.008789,0.017578c-0.008789,0.009766,0,0.027344,0.009766,0.037109
		c0.008789,0.009766,0.017578,0.017578,0.008789,0.027344s0,0.027344,0.008789,0.027344
		c0.009766,0.009766,0.018555,0.017578,0.009766,0.037109c-0.009766,0.007813,0,0.017578,0.008789,0.017578
		c0.009766,0,0.018555,0.009766,0.009766,0.017578c-0.009766,0.009766,0,0.027344,0.008789,0.037109
		s0.017578,0.017578,0.008789,0.037109c-0.008789,0.007813,0,0.017578,0.008789,0.017578
		c0.009766,0,0.018555,0.009766,0.009766,0.017578c-0.009766,0.009766,0,0.027344,0.008789,0.037109
		c0.008789,0.007813,0.017578,0.017578,0.008789,0.037109c-0.008789,0.007813,0,0.017578,0.008789,0.017578
		c0.009766,0,0.018555,0.009766,0.009766,0.017578c-0.009766,0.009766,0,0.027344,0.008789,0.037109
		c0.009766,0.007813,0.018555,0.017578,0.009766,0.035156c-0.009766,0.009766,0,0.019531,0.008789,0.019531
		s0.017578,0.007813,0.008789,0.017578s0,0.027344,0.008789,0.037109c0.009766,0.007813,0.018555,0.017578,0.009766,0.035156
		c-0.009766,0.009766,0,0.019531,0.008789,0.019531c0.009766,0,0.018555,0.007813,0.009766,0.007813
		c-0.009766,0.009766,0,0.037109,0.008789,0.054688c0.008789,0.027344,0.017578,0.054688,0.017578,0.054688
		c0,0.009766,0.009766,0.019531,0.018555,0.019531s0.018555,0.007813,0.008789,0.007813
		c-0.008789,0.009766,0,0.044922,0.018555,0.074219c0.018555,0.035156,0.036133,0.072266,0.027344,0.080078
		c0,0.009766,0.008789,0.019531,0.018555,0.019531c0.008789,0,0.017578,0.007813,0.008789,0.007813
		c-0.008789,0.009766,0.008789,0.056641,0.027344,0.101563s0.044922,0.089844,0.036133,0.099609
		c0,0.009766,0.008789,0.017578,0.018555,0.017578c0.008789,0,0.018555,0.009766,0.008789,0.009766
		c-0.018555,0.017578,0.263672,0.591797,0.300781,0.609375c0.008789,0.009766,0.018555,0.019531,0,0.019531
		c-0.009766,0-0.009766,0.007813,0,0.017578c0.008789,0.007813,0.036133,0.054688,0.063477,0.099609
		c0.017578,0.044922,0.045898,0.091797,0.054688,0.091797s0.008789,0.007813,0.008789,0.017578
		c-0.008789,0.007813-0.008789,0.019531,0.008789,0.019531c0.009766,0,0.02832,0.035156,0.045898,0.072266
		c0.018555,0.035156,0.036133,0.072266,0.045898,0.072266c0.008789,0,0.018555,0.009766,0.008789,0.017578
		c-0.008789,0.009766,0,0.019531,0.009766,0.019531c0.008789,0,0.017578,0.017578,0.017578,0.027344
		c0,0.017578,0.008789,0.025391,0.018555,0.025391c0.008789,0,0.017578,0.009766,0.008789,0.019531
		c-0.008789,0.007813,0,0.017578,0.008789,0.017578c0.009766,0,0.027344,0.027344,0.037109,0.054688
		c0.008789,0.027344,0.017578,0.054688,0.036133,0.054688s0.018555,0.009766,0.008789,0.017578
		c-0.008789,0.009766,0,0.027344,0.018555,0.027344c0.018555,0.009766,0.027344,0.017578,0.018555,0.037109
		c-0.009766,0.009766,0,0.017578,0.008789,0.017578s0.017578,0.019531,0.017578,0.027344
		c0,0.019531,0.009766,0.027344,0.018555,0.027344c0.009766,0,0.018555,0.009766,0.009766,0.019531
		c-0.009766,0.007813,0,0.017578,0.008789,0.017578s0.017578,0.017578,0.017578,0.027344s0.009766,0.027344,0.018555,0.027344
		s0.018555,0.009766,0.008789,0.017578c-0.008789,0.009766,0,0.027344,0.018555,0.027344
		c0.018555,0.009766,0.027344,0.017578,0.018555,0.037109c-0.009766,0.017578,0,0.017578,0.008789,0.017578
		S4.99707,26.460938,4.99707,26.46875c0,0.019531,0.009766,0.027344,0.018555,0.027344
		c0.009766,0,0.018555,0.009766,0.009766,0.019531c-0.009766,0.007813,0,0.025391,0.017578,0.025391
		c0.018555,0.009766,0.027344,0.019531,0.018555,0.027344c-0.008789,0.009766,0,0.027344,0.017578,0.027344
		c0.018555,0.009766,0.02832,0.017578,0.018555,0.029297c-0.008789,0.007813,0,0.025391,0.018555,0.025391
		c0.017578,0.009766,0.027344,0.019531,0.017578,0.027344c-0.008789,0.009766,0,0.027344,0.018555,0.027344
		c0.018555,0.009766,0.027344,0.019531,0.018555,0.027344c-0.009766,0.009766,0,0.027344,0.017578,0.027344
		c0.018555,0.009766,0.027344,0.019531,0.018555,0.027344c-0.008789,0.009766,0,0.027344,0.017578,0.027344
		c0.018555,0.009766,0.02832,0.019531,0.018555,0.027344c-0.008789,0.009766,0,0.027344,0.018555,0.027344
		c0.018555,0.009766,0.027344,0.017578,0.018555,0.027344c-0.009766,0.009766,0,0.027344,0.017578,0.027344
		c0.018555,0.009766,0.027344,0.019531,0.018555,0.037109c-0.009766,0.009766,0.008789,0.027344,0.027344,0.044922
		c0.027344,0.009766,0.036133,0.027344,0.027344,0.037109c-0.009766,0.007813,0,0.027344,0.017578,0.027344
		c0.018555,0.009766,0.027344,0.017578,0.018555,0.035156c-0.008789,0.009766,0.008789,0.027344,0.027344,0.046875
		c0.027344,0.007813,0.036133,0.027344,0.027344,0.035156c-0.009766,0.009766,0,0.027344,0.018555,0.027344
		c0.017578,0.009766,0.027344,0.019531,0.017578,0.037109c-0.008789,0.009766,0.009766,0.027344,0.027344,0.044922
		c0.027344,0.009766,0.037109,0.027344,0.027344,0.044922c-0.008789,0.019531,0.009766,0.027344,0.027344,0.046875
		c0.027344,0.009766,0.036133,0.027344,0.027344,0.044922c-0.008789,0.009766,0.008789,0.027344,0.027344,0.044922
		c0.027344,0.009766,0.036133,0.027344,0.027344,0.046875c-0.008789,0.009766,0.008789,0.027344,0.027344,0.044922
		c0.027344,0.009766,0.036133,0.027344,0.027344,0.044922C5.708008,27.625,5.725586,27.642578,5.744141,27.660156
		c0.027344,0.009766,0.036133,0.029297,0.027344,0.046875c-0.009766,0.009766,0.008789,0.037109,0.036133,0.054688
		s0.045898,0.044922,0.045898,0.054688c-0.009766,0.007813,0.008789,0.027344,0.027344,0.037109
		c0.027344,0.007813,0.036133,0.027344,0.027344,0.044922c-0.009766,0.007813,0.008789,0.035156,0.036133,0.054688
		c0.027344,0.017578,0.044922,0.044922,0.044922,0.054688c-0.008789,0.007813,0.018555,0.035156,0.054688,0.0625
		c0.037109,0.027344,0.054688,0.056641,0.054688,0.064453c-0.008789,0.009766,0.018555,0.037109,0.054688,0.064453
		c0.037109,0.027344,0.054688,0.052734,0.054688,0.0625c-0.008789,0.009766,0.018555,0.037109,0.054688,0.064453
		s0.054688,0.054688,0.054688,0.0625c-0.008789,0.009766,0.018555,0.037109,0.054688,0.074219
		c0.036133,0.027344,0.063477,0.0625,0.063477,0.072266s0.037109,0.054688,0.082031,0.091797
		c0.045898,0.044922,0.082031,0.080078,0.082031,0.089844s0.045898,0.054688,0.100586,0.109375
		c0.053711,0.054688,0.108398,0.109375,0.099609,0.109375c0,0.009766,0.073242,0.089844,0.172852,0.181641
		c0.100586,0.091797,0.172852,0.181641,0.172852,0.181641c-0.008789,0.027344,0.655273,0.65625,0.673828,0.648438
		C7.828125,29.935547,7.901367,30,7.983398,30.082031l0.145508,0.146484l-0.145508-0.136719
		c-0.12793-0.119141-0.12793-0.109375,0.027344,0.037109c0.09082,0.089844,0.181641,0.164063,0.191406,0.164063
		c0.008789-0.009766,0.053711,0.025391,0.099609,0.072266l0.082031,0.089844l-0.082031-0.072266
		c-0.045898-0.037109-0.036133-0.027344,0.027344,0.037109c0.063477,0.0625,0.118164,0.099609,0.126953,0.099609
		c0.009766-0.009766,0.037109,0.017578,0.064453,0.044922l0.044922,0.054688l-0.054688-0.044922
		c-0.027344-0.017578-0.017578-0.009766,0.027344,0.037109c0.045898,0.044922,0.09082,0.072266,0.100586,0.0625
		c0.008789-0.009766,0.036133,0.019531,0.063477,0.046875l0.045898,0.052734l-0.054688-0.044922
		c-0.027344-0.017578-0.018555-0.007813,0.027344,0.037109c0.044922,0.044922,0.09082,0.072266,0.099609,0.0625
		c0.009766-0.007813,0.027344,0.009766,0.045898,0.029297c0.027344,0.035156,0.027344,0.035156-0.009766,0.007813
		c-0.017578-0.017578-0.008789,0,0.02832,0.037109c0.036133,0.035156,0.072266,0.054688,0.081055,0.054688
		c0.009766-0.009766,0.027344,0.007813,0.045898,0.025391c0.027344,0.037109,0.027344,0.037109-0.009766,0.011719
		c-0.017578-0.019531-0.008789,0,0.02832,0.035156c0.036133,0.037109,0.072266,0.054688,0.082031,0.054688
		c0.008789-0.009766,0.026367,0.007813,0.044922,0.027344c0.027344,0.035156,0.027344,0.035156-0.008789,0.007813
		c-0.018555-0.017578-0.009766,0,0.027344,0.037109c0.036133,0.037109,0.072266,0.054688,0.082031,0.054688
		c0.008789-0.007813,0.017578,0,0.027344,0.017578c0.008789,0.019531,0.008789,0.019531-0.018555,0.009766
		c-0.018555-0.009766,0,0.009766,0.027344,0.037109c0.036133,0.027344,0.072266,0.044922,0.082031,0.037109
		c0.008789-0.009766,0.008789,0,0.008789,0.007813c-0.008789,0.017578,0.054688,0.072266,0.09082,0.072266
		c0.009766,0,0.018555,0.009766,0.027344,0.019531c0.009766,0.007813,0,0.007813-0.008789,0
		c-0.018555-0.009766,0,0.007813,0.027344,0.037109c0.036133,0.025391,0.072266,0.044922,0.082031,0.035156
		c0.008789-0.009766,0.008789,0,0.008789,0.009766c-0.018555,0.017578,0.063477,0.080078,0.100586,0.072266
		c0.008789,0,0.008789,0,0.008789,0.017578c-0.008789,0.019531,0.063477,0.074219,0.099609,0.064453
		c0.009766,0,0.009766,0,0.009766,0.017578c-0.009766,0.017578,0.063477,0.072266,0.099609,0.064453
		c0.009766,0,0.009766,0,0,0.017578c-0.008789,0.019531,0.063477,0.072266,0.100586,0.064453
		c0.008789,0,0.008789,0,0.008789,0.007813c-0.017578,0.027344,0.164063,0.15625,0.181641,0.128906
		c0.009766-0.009766,0.009766,0,0.009766,0.007813c-0.009766,0.037109,0.782227,0.628906,0.80957,0.611328
		c0.009766-0.009766,0.018555-0.009766,0.009766,0c-0.018555,0.017578,0.19043,0.171875,0.217773,0.162109
		c0.009766-0.007813,0.018555-0.007813,0.009766,0c-0.018555,0.019531,0.109375,0.119141,0.135742,0.101563
		c0.009766-0.009766,0.018555-0.009766,0.009766,0c-0.018555,0.017578,0.109375,0.117188,0.136719,0.099609
		c0.008789-0.009766,0.017578,0,0.008789,0.007813c-0.018555,0.019531,0.018555,0.037109,0.063477,0.029297
		c0.008789,0,0.018555,0,0.008789,0.007813c-0.017578,0.019531,0.110352,0.109375,0.136719,0.099609
		c0.009766-0.007813,0.018555-0.007813,0.009766,0c-0.009766,0.019531,0.354492,0.283203,0.381836,0.283203
		c0.008789,0,0.054688,0.035156,0.109375,0.072266s0.109375,0.072266,0.118164,0.072266s0.045898,0.019531,0.082031,0.046875
		c0.082031,0.054688,0.136719,0.089844,0.191406,0.117188c0.017578,0.009766,0.072266,0.037109,0.099609,0.064453
		c0.037109,0.017578,0.082031,0.054688,0.100586,0.064453c0.018555,0.007813,0.072266,0.035156,0.099609,0.0625
		c0.037109,0.019531,0.091797,0.054688,0.12793,0.074219c0.036133,0.017578,0.09082,0.044922,0.126953,0.072266
		c0.037109,0.017578,0.100586,0.054688,0.145508,0.082031c0.045898,0.027344,0.12793,0.072266,0.182617,0.099609
		c0.054688,0.037109,0.145508,0.082031,0.208984,0.109375c0.054688,0.027344,0.172852,0.091797,0.264648,0.144531
		c0.272461,0.146484,1.209961,0.619141,1.237305,0.619141c0.008789,0,0.082031,0.037109,0.154297,0.074219
		c0.073242,0.035156,0.146484,0.072266,0.155273,0.072266c0.009766,0,0.063477,0.027344,0.109375,0.054688
		c0.054688,0.027344,0.099609,0.054688,0.109375,0.054688c0.008789,0,0.063477,0.027344,0.109375,0.054688
		c0.044922,0.027344,0.099609,0.054688,0.108398,0.054688c0.009766,0,0.054688,0.017578,0.100586,0.044922
		s0.082031,0.044922,0.09082,0.037109c0.009766-0.009766,0.036133,0.007813,0.073242,0.037109
		c0.036133,0.025391,0.063477,0.035156,0.072266,0.025391c0.009766-0.007813,0.037109,0.009766,0.073242,0.027344
		c0.036133,0.027344,0.063477,0.037109,0.073242,0.027344c0.008789-0.007813,0.036133,0.009766,0.072266,0.027344
		c0.036133,0.029297,0.063477,0.037109,0.073242,0.029297c0.008789-0.011719,0.027344,0,0.053711,0.017578
		c0.018555,0.017578,0.045898,0.027344,0.054688,0.017578c0.009766-0.009766,0.037109,0.009766,0.073242,0.027344
		c0.036133,0.027344,0.063477,0.037109,0.073242,0.027344c0.008789-0.009766,0.026367,0,0.054688,0.017578
		c0.026367,0.017578,0.044922,0.027344,0.053711,0.017578c0.009766-0.007813,0.027344,0,0.045898,0.019531
		c0.027344,0.027344,0.191406,0.082031,0.291016,0.109375c0.109375,0.027344,0.136719,0.027344,0.182617,0.044922
		C17.603516,36,18.205078,36.007813,18.231445,35.990234c0.009766-0.009766,0.045898-0.017578,0.073242-0.017578
		c0.045898,0,0.082031-0.009766,0.200195-0.037109c0.027344-0.009766,0.063477-0.019531,0.09082-0.019531
		c0.091797-0.017578,0.191406-0.052734,0.227539-0.080078c0.018555-0.019531,0.037109-0.019531,0.045898-0.019531
		c0.008789,0.009766,0.037109-0.009766,0.073242-0.027344c0.036133-0.027344,0.063477-0.035156,0.072266-0.027344
		c0.008789,0.009766,0.027344,0,0.054688-0.017578c0.018555-0.017578,0.045898-0.027344,0.054688-0.017578
		c0.008789,0.007813,0.036133-0.009766,0.072266-0.027344c0.037109-0.029297,0.064453-0.037109,0.073242-0.029297
		c0.008789,0.011719,0.037109-0.007813,0.073242-0.025391c0.036133-0.027344,0.063477-0.037109,0.072266-0.027344
		c0.008789,0.007813,0.037109-0.009766,0.073242-0.027344c0.036133-0.027344,0.063477-0.037109,0.072266-0.027344
		c0.009766,0.007813,0.037109-0.009766,0.073242-0.027344c0.036133-0.027344,0.063477-0.037109,0.073242-0.027344
		c0.008789,0.007813,0.044922-0.009766,0.09082-0.037109c0.044922-0.027344,0.081055-0.044922,0.09082-0.044922
		c0.008789,0,0.045898-0.009766,0.091797-0.037109c0.044922-0.027344,0.089844-0.044922,0.099609-0.044922
		s0.073242-0.027344,0.135742-0.064453c0.064453-0.035156,0.119141-0.064453,0.136719-0.064453
		c0.009766,0,0.083008-0.035156,0.155273-0.072266c0.073242-0.035156,0.136719-0.072266,0.145508-0.072266
		c0.017578,0,1.310547-0.65625,1.556641-0.791016c0.063477-0.037109,0.164063-0.091797,0.208984-0.109375
		c0.045898-0.019531,0.119141-0.064453,0.164063-0.091797s0.109375-0.0625,0.145508-0.082031
		c0.036133-0.017578,0.091797-0.044922,0.12793-0.072266c0.036133-0.017578,0.09082-0.054688,0.126953-0.074219
		c0.036133-0.017578,0.09082-0.044922,0.12793-0.072266c0.036133-0.017578,0.081055-0.044922,0.099609-0.064453
		c0.054688-0.025391,0.109375-0.0625,0.191406-0.117188c0.036133-0.027344,0.073242-0.044922,0.082031-0.044922
		s0.044922-0.027344,0.082031-0.054688c0.036133-0.027344,0.072266-0.054688,0.081055-0.054688
		c0.009766,0,0.064453-0.037109,0.119141-0.072266c0.053711-0.037109,0.109375-0.074219,0.109375-0.074219
		c0.036133,0,0.645508-0.427734,0.62793-0.445313c-0.008789-0.009766-0.008789-0.009766,0.008789,0
		c0.027344,0.017578,0.155273-0.072266,0.136719-0.099609c-0.008789-0.009766-0.008789-0.009766,0.008789-0.009766
		c0.045898,0.009766,0.072266,0,0.063477-0.027344c-0.008789-0.009766-0.008789-0.017578,0.008789-0.009766
		c0.02832,0.019531,0.155273-0.072266,0.136719-0.099609c-0.008789-0.009766-0.008789-0.009766,0.009766,0
		c0.027344,0.017578,0.236328-0.136719,0.21875-0.164063c-0.008789-0.007813-0.008789-0.007813,0.008789,0
		c0.027344,0.019531,0.40918-0.273438,0.400391-0.300781c0-0.007813,0-0.017578,0.008789-0.007813
		c0.018555,0.017578,0.200195-0.109375,0.182617-0.126953c-0.008789-0.009766,0-0.019531,0.008789-0.009766
		c0.027344,0.009766,0.109375-0.044922,0.099609-0.064453c-0.008789-0.007813,0-0.017578,0.009766-0.017578
		c0.018555,0.009766,0.208984-0.119141,0.208984-0.136719c0-0.007813-0.008789,0-0.026367,0.009766
		c-0.018555,0.007813-0.018555,0.007813-0.009766,0c0.009766-0.009766,0.027344-0.017578,0.027344-0.017578
		c0.036133,0,0.109375-0.056641,0.09082-0.074219c-0.008789-0.009766-0.008789-0.017578,0-0.017578
		c0.037109,0.007813,0.109375-0.044922,0.100586-0.072266c-0.009766-0.009766-0.009766-0.019531,0.008789-0.009766
		c0.008789,0.009766,0.044922-0.009766,0.082031-0.037109c0.036133-0.027344,0.044922-0.044922,0.027344-0.035156
		c-0.018555,0.007813-0.027344,0.007813-0.018555-0.009766c0.009766-0.009766,0.018555-0.017578,0.027344-0.017578
		c0.008789,0.007813,0.045898-0.019531,0.072266-0.044922c0.037109-0.029297,0.046875-0.046875,0.02832-0.037109
		c-0.018555,0.007813-0.02832,0.007813-0.018555-0.009766c0.009766-0.009766,0.018555-0.017578,0.027344-0.017578
		c0.009766,0.007813,0.045898-0.019531,0.072266-0.046875c0.037109-0.025391,0.045898-0.044922,0.027344-0.035156
		c-0.017578,0.009766-0.027344,0.009766-0.017578-0.009766c0.008789-0.009766,0.017578-0.017578,0.027344-0.017578
		c0.008789,0,0.045898-0.019531,0.073242-0.046875c0.036133-0.025391,0.044922-0.044922,0.026367-0.035156
		c-0.017578,0.009766-0.026367,0.009766-0.017578-0.009766c0.008789-0.007813,0.017578-0.017578,0.027344-0.017578
		c0.008789,0.009766,0.044922-0.017578,0.073242-0.046875c0.036133-0.027344,0.044922-0.044922,0.026367-0.035156
		c-0.017578,0.007813-0.026367,0.007813-0.017578-0.009766c0.008789-0.007813,0.017578-0.017578,0.027344-0.017578
		c0.008789,0.009766,0.044922-0.017578,0.081055-0.054688c0.037109-0.037109,0.055664-0.054688,0.02832-0.037109
		c-0.037109,0.029297-0.037109,0.029297-0.009766-0.007813c0.018555-0.019531,0.037109-0.027344,0.045898-0.027344
		c0.008789,0.007813,0.044922-0.019531,0.081055-0.054688c0.037109-0.037109,0.055664-0.054688,0.027344-0.037109
		c-0.044922,0.027344-0.044922,0.027344,0-0.017578c0.018555-0.027344,0.045898-0.046875,0.055664-0.037109
		c0.008789,0.009766,0.044922-0.017578,0.081055-0.054688c0.037109-0.035156,0.054688-0.054688,0.02832-0.035156
		c-0.046875,0.027344-0.046875,0.027344,0-0.019531c0.017578-0.027344,0.044922-0.044922,0.053711-0.037109
		c0.009766,0.009766,0.054688-0.025391,0.109375-0.080078s0.063477-0.064453,0.027344-0.037109l-0.063477,0.054688
		l0.063477-0.064453c0.036133-0.035156,0.063477-0.0625,0.072266-0.054688c0.009766,0.009766,0.064453-0.035156,0.12793-0.099609
		c0.064453-0.0625,0.073242-0.072266,0.027344-0.037109l-0.082031,0.072266l0.082031-0.089844
		c0.045898-0.044922,0.09082-0.082031,0.100586-0.072266c0.008789,0.009766,0.09082-0.064453,0.19043-0.164063
		c0.154297-0.154297,0.154297-0.154297,0.027344-0.037109l-0.144531,0.136719l0.144531-0.144531
		c0.082031-0.083984,0.145508-0.146484,0.164063-0.136719c0.018555,0.007813,0.491211-0.4375,0.482422-0.464844
		c0-0.009766,0.072266-0.089844,0.172852-0.181641s0.172852-0.181641,0.172852-0.181641
		c0-0.009766,0.044922-0.054688,0.100586-0.109375c0.054688-0.054688,0.108398-0.109375,0.099609-0.119141
		c0-0.009766,0.02832-0.044922,0.073242-0.082031s0.072266-0.072266,0.072266-0.082031
		c0-0.007813,0.02832-0.044922,0.073242-0.080078c0.044922-0.037109,0.072266-0.074219,0.063477-0.083984
		c-0.008789-0.007813,0.017578-0.035156,0.054688-0.0625c0.036133-0.027344,0.054688-0.054688,0.054688-0.064453
		c-0.008789-0.009766,0.018555-0.035156,0.054688-0.0625c0.037109-0.027344,0.054688-0.056641,0.054688-0.064453
		c-0.008789-0.009766,0.008789-0.037109,0.044922-0.054688c0.027344-0.017578,0.045898-0.044922,0.045898-0.054688
		c-0.008789-0.007813,0.008789-0.037109,0.045898-0.054688c0.027344-0.017578,0.044922-0.044922,0.044922-0.054688
		c-0.008789-0.009766,0.009766-0.035156,0.045898-0.054688c0.027344-0.017578,0.044922-0.044922,0.044922-0.054688
		c-0.008789-0.009766,0.009766-0.035156,0.045898-0.054688c0.027344-0.017578,0.045898-0.044922,0.036133-0.054688
		c-0.008789-0.009766,0.009766-0.027344,0.027344-0.037109c0.027344-0.007813,0.036133-0.025391,0.036133-0.035156
		c-0.008789-0.027344,0.045898-0.109375,0.064453-0.099609c0.008789,0.007813,0.017578,0.007813,0.017578,0
		c-0.008789-0.027344,0.027344-0.091797,0.045898-0.074219c0.008789,0.009766,0.018555,0,0.018555-0.007813
		c-0.009766-0.027344,0.027344-0.091797,0.045898-0.074219c0.008789,0.009766,0.017578,0,0.017578-0.007813
		c-0.008789-0.027344,0.027344-0.091797,0.044922-0.072266c0.009766,0.007813,0.018555,0,0.018555-0.009766
		c-0.008789-0.046875,0-0.074219,0.027344-0.054688c0.018555,0.007813,0.018555,0.007813,0.008789-0.009766
		c-0.017578-0.027344,0.037109-0.089844,0.055664-0.072266c0.008789,0.009766,0.008789,0.009766,0.008789-0.009766
		c-0.008789-0.037109,0.027344-0.089844,0.044922-0.082031c0.008789,0.009766,0.018555,0,0.018555-0.007813
		c-0.009766-0.046875,0-0.072266,0.027344-0.054688c0.009766,0.007813,0.018555,0.007813,0.018555,0
		c-0.008789-0.046875,0-0.074219,0.027344-0.054688c0.017578,0.007813,0.017578,0.007813,0.008789-0.009766
		c-0.018555-0.027344,0.036133-0.089844,0.054688-0.072266c0.008789,0.009766,0.008789,0.009766,0.008789-0.009766
		c-0.008789-0.044922,0-0.072266,0.018555-0.064453c0.008789,0.009766,0.018555,0.009766,0.018555,0
		c-0.009766-0.044922,0-0.072266,0.027344-0.052734c0.008789,0.007813,0.017578,0.007813,0.017578,0
		c-0.008789-0.046875,0-0.074219,0.027344-0.054688c0.008789,0.007813,0.017578,0.007813,0.017578,0
		c-0.008789-0.046875,0-0.074219,0.027344-0.054688c0.009766,0.007813,0.018555,0.007813,0.018555,0
		c-0.008789-0.046875,0-0.074219,0.027344-0.054688c0.009766,0.007813,0.018555,0.007813,0.018555,0
		c-0.008789-0.037109,0.027344-0.109375,0.044922-0.101563c0.009766,0.009766,0.018555-0.007813,0.009766-0.027344
		c-0.009766-0.017578,0.008789-0.035156,0.026367-0.025391c0.018555,0,0.018555,0,0.009766-0.037109
		c-0.018555-0.037109-0.018555-0.037109,0.017578-0.037109c0.019531,0,0.037109,0,0.037109-0.009766
		c-0.008789-0.035156,0.027344-0.107422,0.045898-0.089844c0.008789,0.009766,0.008789-0.009766,0-0.027344
		c-0.018555-0.037109-0.018555-0.044922,0.017578-0.037109c0.018555,0,0.036133,0,0.036133-0.007813
		c-0.008789-0.027344,0.02832-0.091797,0.064453-0.136719c0.027344-0.027344,0.027344-0.037109,0-0.037109
		c-0.018555,0-0.018555-0.009766,0.008789-0.027344c0.018555-0.017578,0.027344-0.035156,0.018555-0.044922
		c-0.009766-0.009766,0-0.009766,0.017578,0c0.018555,0.009766,0.036133,0.009766,0.027344-0.009766
		c-0.018555-0.027344,0.036133-0.109375,0.054688-0.089844c0.009766,0.007813,0.009766,0,0,0
		c-0.008789-0.009766,0-0.027344,0.009766-0.046875c0.017578-0.017578,0.017578-0.027344,0-0.027344
		c-0.018555,0-0.018555-0.009766,0-0.035156c0.017578-0.019531,0.036133-0.037109,0.044922-0.027344
		c0.008789,0.007813,0.018555-0.009766,0.018555-0.027344c0-0.019531,0.008789-0.027344,0.026367-0.019531
		C31.393555,25.75,31.393555,25.75,31.384766,25.732422c-0.009766-0.009766,0-0.029297,0.008789-0.037109
		c0.009766-0.009766,0.018555-0.017578,0.009766-0.027344c-0.018555-0.027344,0.008789-0.082031,0.036133-0.072266
		c0.008789,0.007813,0.027344-0.009766,0.027344-0.046875c0.008789-0.027344,0.027344-0.0625,0.036133-0.0625
		c0.036133-0.017578,0.463867-0.882813,0.446289-0.902344c-0.008789-0.007813,0-0.007813,0.008789-0.007813
		s0.018555-0.009766,0.018555-0.017578c0-0.009766,0.008789-0.046875,0.027344-0.083984
		c0.018555-0.035156,0.027344-0.072266,0.018555-0.072266s0-0.007813,0.008789-0.007813s0.018555-0.009766,0.018555-0.019531
		c0-0.007813,0.008789-0.044922,0.026367-0.082031c0.018555-0.035156,0.027344-0.072266,0.018555-0.072266
		c-0.008789-0.007813,0-0.007813,0.008789-0.007813s0.018555-0.009766,0.008789-0.019531
		c-0.008789-0.009766,0-0.027344,0.009766-0.037109c0.008789-0.007813,0.017578-0.017578,0.008789-0.035156
		c-0.008789-0.009766,0-0.017578,0.008789-0.017578c0.009766,0,0.019531-0.009766,0.019531-0.019531
		c0-0.007813,0.008789-0.035156,0.017578-0.054688c0.009766-0.027344,0.018555-0.044922,0.009766-0.054688
		c-0.009766-0.007813,0-0.007813,0.008789-0.007813s0.017578-0.009766,0.008789-0.019531
		c-0.008789-0.007813,0-0.027344,0.008789-0.035156c0.009766-0.009766,0.018555-0.019531,0.009766-0.037109
		c-0.009766-0.009766,0-0.017578,0.008789-0.017578s0.017578-0.009766,0.008789-0.019531
		c-0.008789-0.007813,0-0.027344,0.008789-0.035156c0.009766-0.009766,0.018555-0.019531,0.009766-0.037109
		c-0.009766-0.009766,0-0.017578,0.008789-0.017578s0.017578-0.009766,0.008789-0.019531
		c-0.008789-0.007813,0-0.027344,0.008789-0.035156c0.009766-0.009766,0.019531-0.019531,0.009766-0.027344
		c-0.009766-0.009766,0-0.027344,0.009766-0.027344c0.008789,0,0.017578-0.017578,0.008789-0.037109
		c-0.008789-0.007813,0-0.017578,0.008789-0.017578c0.009766,0,0.018555-0.009766,0.009766-0.019531
		c-0.009766-0.007813,0-0.027344,0.008789-0.035156c0.008789-0.009766,0.017578-0.017578,0.008789-0.027344
		s0-0.027344,0.008789-0.027344c0.009766-0.009766,0.018555-0.017578,0.009766-0.037109
		c-0.009766-0.009766,0-0.017578,0.008789-0.017578s0.018555-0.009766,0.018555-0.017578c0-0.009766,0-0.019531,0-0.027344
		c0-0.009766,0.008789-0.027344,0.008789-0.037109s0.008789-0.027344,0.008789-0.027344
		c0-0.007813,0.008789-0.017578,0.008789-0.027344s0.009766-0.027344,0.009766-0.027344
		c0-0.009766,0.008789-0.017578,0.008789-0.027344s0.009766-0.027344,0.009766-0.027344
		c0-0.007813,0.008789-0.017578,0.008789-0.027344c0-0.007813,0.009766-0.027344,0.009766-0.027344
		c0-0.009766,0.008789-0.017578,0.008789-0.027344s0.008789-0.027344,0.008789-0.027344
		c0-0.009766,0.008789-0.017578,0.008789-0.027344c0-0.007813,0.009766-0.027344,0.009766-0.027344
		c0-0.007813,0.008789-0.017578,0.008789-0.027344c0-0.007813,0.008789-0.027344,0.008789-0.027344
		c0-0.009766,0.008789-0.017578,0.008789-0.027344c0-0.007813,0.009766-0.027344,0.009766-0.027344
		c0-0.007813,0.008789-0.017578,0.008789-0.027344c0-0.007813,0.008789-0.027344,0.008789-0.027344
		s0.009766-0.017578,0.009766-0.044922c0.008789-0.017578,0.008789-0.054688,0.017578-0.072266s0.008789-0.037109,0.008789-0.044922
		c0,0,0.009766-0.019531,0.009766-0.029297c0-0.007813,0.009766-0.027344,0.009766-0.027344s0.008789-0.027344,0.008789-0.044922
		c0.018555-0.072266,0.027344-0.099609,0.027344-0.099609s0.008789-0.017578,0.008789-0.027344
		c0-0.017578,0.008789-0.054688,0.018555-0.082031c0.008789-0.027344,0.017578-0.064453,0.017578-0.082031
		s0.008789-0.027344,0.008789-0.027344s0.009766-0.017578,0.009766-0.027344c0.008789-0.037109,0.026367-0.099609,0.036133-0.164063
		c0.018555-0.082031,0.037109-0.136719,0.045898-0.173828c0.017578-0.080078,0.027344-0.134766,0.036133-0.171875
		c0.018555-0.0625,0.027344-0.126953,0.044922-0.181641c0.009766-0.027344,0.018555-0.072266,0.018555-0.101563
		c0.009766-0.025391,0.018555-0.072266,0.018555-0.099609c0.009766-0.025391,0.018555-0.072266,0.018555-0.099609
		c0.008789-0.027344,0.017578-0.082031,0.017578-0.109375c0.009766-0.035156,0.018555-0.082031,0.018555-0.109375
		c0.008789-0.027344,0.017578-0.089844,0.027344-0.136719c0.008789-0.044922,0.017578-0.099609,0.017578-0.126953
		c0.009766-0.044922,0.027344-0.199219,0.045898-0.28125c0-0.027344,0.009766-0.101563,0.018555-0.164063
		c0.008789-0.064453,0.018555-0.136719,0.018555-0.173828c0-0.035156,0.017578-0.136719,0.017578-0.236328
		c0.008789-0.099609,0.018555-0.199219,0.018555-0.226563c0.026367-0.238281,0.036133-1.046875,0.036133-2.640625
		c0-2.802734-0.027344-10.540039-0.045898-10.62207c-0.008789-0.036133-0.017578-0.109375-0.017578-0.154297
		C33.09668,6.208008,33.086914,6.15332,33.05957,6.052734c-0.018555-0.082031-0.027344-0.109375-0.027344-0.118164
		c0,0-0.008789-0.018555-0.008789-0.026367c0-0.009766-0.009766-0.02832-0.009766-0.037109c0-0.009766,0-0.017578,0-0.027344
		c0-0.008789-0.008789-0.017578-0.017578-0.017578c-0.009766,0-0.018555-0.009766-0.009766-0.009766
		c0.018555-0.017578-0.081055-0.21875-0.118164-0.236328c-0.008789-0.009766-0.017578-0.018555,0-0.018555
		c0.008789,0,0-0.008789-0.017578-0.018555c-0.018555-0.008789-0.027344-0.027344-0.027344-0.036133
		c0.008789-0.008789-0.009766-0.027344-0.027344-0.036133c-0.027344-0.009766-0.036133-0.027344-0.036133-0.037109
		c0.017578-0.035156-0.364258-0.381836-0.410156-0.354492c-0.008789,0.008789-0.017578,0-0.008789-0.008789
		c0.008789-0.009766-0.018555-0.037109-0.055664-0.054688c-0.036133-0.017578-0.117188-0.064453-0.181641-0.091797
		c-0.063477-0.036133-0.118164-0.054688-0.118164-0.054688c-0.008789,0.009766-0.036133-0.007813-0.072266-0.036133
		c-0.036133-0.026367-0.063477-0.036133-0.073242-0.026367c-0.009766,0.007813-0.027344,0-0.045898-0.018555
		c-0.026367-0.02832-0.427734-0.164063-0.527344-0.191406c-0.017578,0-0.082031-0.018555-0.126953-0.036133
		c-0.045898-0.017578-0.091797-0.027344-0.091797-0.027344c0,0.009766-0.027344-0.009766-0.072266-0.018555
		c-0.037109-0.018555-0.091797-0.036133-0.118164-0.036133c-0.027344-0.009766-0.091797-0.027344-0.136719-0.045898
		c-0.045898-0.018555-0.09082-0.036133-0.100586-0.036133c-0.008789,0-0.054688-0.018555-0.108398-0.037109
		C30.456055,4.341797,30.402344,4.324219,30.375,4.324219c-0.018555-0.009766-0.091797-0.027344-0.164063-0.054688
		c-0.064453-0.027344-0.12793-0.046875-0.12793-0.037109c0,0-0.044922-0.009766-0.099609-0.027344
		s-0.119141-0.036133-0.146484-0.044922c-0.017578-0.009766-0.163086-0.054688-0.318359-0.100586
		c-0.154297-0.054688-0.282227-0.09082-0.291016-0.082031s-0.027344,0-0.036133-0.018555
		c-0.018555-0.027344-0.118164-0.0625-0.181641-0.0625c-0.009766,0-0.037109-0.009766-0.055664-0.027344
		c-0.017578-0.019531-0.053711-0.027344-0.081055-0.037109c-0.027344-0.008789-0.064453-0.017578-0.082031-0.036133
		c-0.018555-0.018555-0.037109-0.018555-0.045898-0.018555c-0.008789,0.009766-0.027344,0-0.044922-0.017578
		c-0.018555-0.018555-0.055664-0.037109-0.091797-0.037109c-0.027344,0-0.063477-0.017578-0.082031-0.036133
		s-0.036133-0.018555-0.044922-0.018555C28.47168,3.677734,28.445313,3.65918,28.40918,3.640625
		c-0.037109-0.027344-0.064453-0.036133-0.074219-0.027344c-0.008789,0.009766-0.026367,0-0.053711-0.017578
		c-0.018555-0.018555-0.044922-0.027344-0.054688-0.018555c-0.008789,0.008789-0.037109-0.008789-0.073242-0.027344
		c-0.036133-0.027344-0.063477-0.036133-0.072266-0.027344c-0.009766,0.008789-0.037109-0.008789-0.073242-0.026367
		c-0.036133-0.02832-0.063477-0.037109-0.072266-0.02832s-0.045898-0.008789-0.091797-0.036133
		c-0.044922-0.027344-0.09082-0.044922-0.09082-0.044922c-0.008789,0-0.054688-0.018555-0.108398-0.045898
		c-0.055664-0.02832-0.100586-0.054688-0.109375-0.054688c-0.009766,0-0.073242-0.027344-0.136719-0.063477
		c-0.063477-0.037109-0.119141-0.064453-0.136719-0.064453c-0.027344,0-1.019531-0.509766-1.210938-0.609375
		c-0.063477-0.036133-0.172852-0.091797-0.226563-0.118164c-0.055664-0.02832-0.146484-0.083008-0.209961-0.109375
		c-0.054688-0.036133-0.136719-0.082031-0.182617-0.100586C25.386719,2.193359,25.304688,2.148438,25.25,2.121094
		s-0.136719-0.082031-0.181641-0.099609c-0.045898-0.027344-0.12793-0.074219-0.182617-0.100586
		c-0.200195-0.118164-1.310547-0.682617-1.319336-0.673828c0,0-0.054688-0.018555-0.109375-0.054688
		s-0.109375-0.054688-0.118164-0.054688c-0.009766,0.008789-0.036133-0.008789-0.073242-0.036133
		c-0.036133-0.027344-0.063477-0.037109-0.073242-0.027344c-0.008789,0.009766-0.036133-0.009766-0.072266-0.027344
		c-0.037109-0.027344-0.063477-0.036133-0.073242-0.027344c-0.008789,0.009766-0.036133-0.008789-0.072266-0.027344
		c-0.036133-0.027344-0.064453-0.036133-0.073242-0.027344c-0.008789,0.009766-0.027344,0-0.053711-0.017578
		c-0.018555-0.018555-0.045898-0.027344-0.054688-0.018555s-0.02832,0-0.045898-0.018555
		c-0.018555-0.017578-0.054688-0.036133-0.09082-0.036133c-0.02832,0-0.064453-0.018555-0.082031-0.027344
		c-0.018555-0.018555-0.054688-0.027344-0.082031-0.027344s-0.063477-0.018555-0.082031-0.027344
		c-0.036133-0.027344-0.164063-0.073242-0.181641-0.054688c-0.008789,0.008789-0.027344,0-0.045898-0.018555
		c-0.027344-0.027344-0.246094-0.109375-0.345703-0.126953c-0.018555-0.009766-0.09082-0.027344-0.155273-0.044922
		c-0.063477-0.027344-0.118164-0.037109-0.118164-0.037109s-0.036133-0.008789-0.072266-0.017578
		c-0.036133-0.009766-0.073242-0.027344-0.073242-0.018555s-0.018555,0-0.036133-0.008789
		C21.363281,0.455078,21.318359,0.4375,21.291016,0.4375c-0.109375-0.027344-0.145508-0.027344-0.154297-0.037109
		c-0.010742-0.008789-0.037109-0.017578-0.064453-0.017578C21.044922,0.373047,21,0.364258,20.972656,0.364258
		c-0.02832-0.008789-0.064453-0.018555-0.091797-0.018555c-0.027344-0.008789-0.063477-0.017578-0.09082-0.017578
		c-0.018555-0.009766-0.063477-0.018555-0.09082-0.018555c-0.02832-0.008789-0.073242-0.018555-0.09082-0.018555
		c-0.037109-0.008789-0.082031-0.017578-0.182617-0.035156c-0.109375-0.02832-0.172852-0.037109-0.227539-0.037109
		c-0.036133,0-0.063477-0.009766-0.063477-0.009766c0-0.008789-0.082031-0.027344-0.145508-0.027344
		c-0.036133,0-0.073242-0.007813-0.083008-0.017578c-0.008789-0.009766-0.036133-0.009766-0.063477-0.009766
		c-0.017578,0-0.044922,0-0.0625-0.008789c-0.02832-0.018555-0.037109-0.018555-0.182617-0.036133
		c-0.054688-0.008789-0.12793-0.017578-0.164063-0.017578c-0.036133-0.009766-0.118164-0.019531-0.181641-0.019531
		c-0.073242-0.007813-0.172852-0.017578-0.237305-0.017578c-0.063477,0-0.181641-0.017578-0.263672-0.017578
		C18.851563,0,17.44043-0.009766,17.430664,0.009766 M19.288086,1.546875c1.820313,0.201172,3.286133,0.738281,5.953125,2.194336
		c1.993164,1.083008,3.413086,1.665039,5.779297,2.366211c0.591797,0.173828,0.783203,0.263672,0.84668,0.382813l0.045898,0.082031
		l0.017578,5.31543c0.018555,6.499023,0.018555,6.699219-0.008789,7.163086
		c-0.264648,4.142578-1.838867,7.328125-5.106445,10.285156c-2.566406,2.330078-4.796875,3.75-8.083008,5.142578l-0.381836,0.164063
		h-0.21875h-0.21875l-0.417969-0.181641c-2.384766-1.009766-4.442383-2.203125-6.389648-3.712891
		c-4.242188-3.304688-6.290039-6.664063-6.680664-10.988281c-0.082031-0.900391-0.12793-4.585938-0.091797-7.37207
		c0.009766-0.881836,0.018555-2.530273,0.018555-3.649414c0-2.257813,0-2.193359,0.126953-2.321289
		c0.091797-0.09082,0.155273-0.118164,0.874023-0.327148c2.266602-0.673828,3.786133-1.320313,6.244141-2.658203
		c2.257813-1.228516,3.758789-1.738281,5.542969-1.892578c0.145508-0.009766,0.300781-0.02832,0.345703-0.02832
		C17.695313,1.484375,19.005859,1.510742,19.288086,1.546875 M3.486328,5.243164c0,0-0.054688,0.054688-0.118164,0.118164
		L3.25,5.470703l0.109375-0.119141C3.46875,5.243164,3.486328,5.234375,3.486328,5.243164 M32.904297,5.371094
		c0.064453,0.0625,0.109375,0.108398,0.100586,0.108398s-0.063477-0.054688-0.118164-0.108398
		c-0.054688-0.054688-0.109375-0.109375-0.099609-0.109375C32.787109,5.261719,32.84082,5.306641,32.904297,5.371094
		 M17.503906,5.433594c-1.374023,0.109375-2.757813,0.546875-3.876953,1.210938
		c-0.418945,0.254883-0.546875,0.500977-0.382813,0.810547c0.191406,0.373047,0.455078,0.390625,1.101563,0.063477
		c1.837891-0.9375,3.467773-1.202148,5.251953-0.836914C20.507813,6.863281,21,7.072266,22.591797,7.910156
		c2.148438,1.136719,3.131836,1.591797,4.205078,1.96582c0.336914,0.118164,0.401367,0.155273,0.446289,0.254883
		c0.063477,0.136719-0.008789,8.12793-0.073242,9.419922c-0.117188,2.175781-0.973633,3.814453-3.067383,5.908203
		c-1.427734,1.427734-3.22168,2.693359-5.115234,3.613281c-0.918945,0.445313-0.864258,0.445313-1.856445-0.054688
		c-3.25-1.628906-6.225586-4.314453-7.318359-6.607422c-0.491211-1.039063-0.737305-2.058594-0.819336-3.450195
		c-0.036133-0.583008-0.054688-8.592773-0.017578-8.738281c0.036133-0.163086,0.108398-0.217773,0.554688-0.400391
		c1.510742-0.600586,2.512695-1.038086,2.639648-1.155273c0.282227-0.246094,0.191406-0.728516-0.154297-0.882813
		c-0.21875-0.101563-0.336914-0.074219-1.173828,0.291016C10.568359,8.191406,9.921875,8.456055,9.40332,8.666016
		C8.083008,9.193359,8.000977,9.248047,7.882813,9.711914c-0.054688,0.227539-0.036133,8.310547,0.027344,9.393555
		c0.136719,2.292969,0.62793,3.722656,1.838867,5.34375c1.592773,2.128906,3.922852,4.041016,6.580078,5.40625
		c1.729492,0.892578,1.739258,0.892578,3.104492,0.226563c2.09375-1.019531,3.832031-2.255859,5.452148-3.867188
		c2.211914-2.203125,3.194336-4.132813,3.404297-6.664063c0.072266-0.927734,0.109375-9.65625,0.036133-9.893555
		c-0.118164-0.373047-0.254883-0.481445-0.855469-0.691406c-1.4375-0.500977-2.939453-1.202148-4.706055-2.202148
		c-1.34668-0.765625-2.266602-1.092773-3.577148-1.275391C18.896484,5.443359,17.804688,5.416016,17.503906,5.433594
		 M6.963867,28.925781C7,28.962891,7.027344,29,7.027344,29s-0.044922-0.037109-0.082031-0.074219
		c-0.036133-0.035156-0.063477-0.072266-0.063477-0.072266C6.890625,28.853516,6.927734,28.880859,6.963867,28.925781 M29.282227,29
		c0,0-0.036133,0.037109-0.073242,0.072266l-0.072266,0.072266l0.072266-0.072266C29.263672,29,29.282227,28.990234,29.282227,29
		 M7.236328,29.226563c0.082031,0.082031,0.136719,0.146484,0.136719,0.146484s-0.072266-0.064453-0.154297-0.146484
		s-0.136719-0.144531-0.136719-0.144531C7.09082,29.082031,7.164063,29.144531,7.236328,29.226563 M29.073242,29.226563
		c0,0-0.063477,0.072266-0.146484,0.146484l-0.145508,0.144531l0.145508-0.144531
		C29.054688,29.236328,29.073242,29.21875,29.073242,29.226563 M7.992188,30c0,0.019531-0.027344-0.017578-0.291016-0.273438
		l-0.273438-0.28125l0.282227,0.273438C7.864258,29.873047,7.992188,30,7.992188,30 M28.727539,29.599609
		c0,0-0.083008,0.091797-0.191406,0.191406l-0.191406,0.181641l0.181641-0.189453
		C28.700195,29.609375,28.727539,29.582031,28.727539,29.599609"/>
	<path id="path1" fill="#FBFBFB" d="M13.271484,10.914063c-0.446289,0.027344-0.446289-0.119141,0.063477,1.564453
		c0.619141,2.03125,3.003906,9.658203,3.049805,9.748047c0.099609,0.201172,0.118164,0.201172,1.738281,0.201172
		s1.620117,0,1.738281-0.171875c0.036133-0.056641,0.52832-1.603516,1.275391-4.033203
		C21.28125,17.757813,21.5,17.039063,21.62793,16.629883c0.126953-0.40918,0.390625-1.24707,0.573242-1.866211
		c0.181641-0.619141,0.473633-1.519531,0.62793-2.029297c0.583008-1.875,0.545898-1.730469,0.455078-1.785156
		c-0.073242-0.044922-2.412109-0.082031-2.566406-0.044922c-0.100586,0.027344-0.201172,0.126953-0.246094,0.246094
		c-0.027344,0.072266-1.101563,3.558594-2.057617,6.662109c-0.227539,0.755859-0.227539,0.746094-0.291016,0.746094
		c-0.064453,0,0.036133,0.318359-1.219727-3.794922c-1.183594-3.859375-1.137695-3.732422-1.265625-3.814453l-0.082031-0.053711
		h-1.018555C13.972656,10.904297,13.399414,10.904297,13.271484,10.914063 M16.802734,24.630859
		c-0.217773,0.099609-0.254883,0.382813-0.081055,0.537109c0.144531,0.126953,0.381836,0.091797,0.481445-0.082031
		C17.358398,24.8125,17.084961,24.503906,16.802734,24.630859 M17.986328,24.638672
		c-0.236328,0.128906-0.236328,0.447266,0,0.564453c0.381836,0.191406,0.664063-0.363281,0.291016-0.564453
		c-0.045898-0.027344-0.118164-0.044922-0.145508-0.044922S18.041016,24.611328,17.986328,24.638672 M19.233398,24.611328
		c-0.12793,0.037109-0.21875,0.173828-0.21875,0.310547c0,0.273438,0.318359,0.417969,0.52832,0.246094
		C19.797852,24.939453,19.560547,24.521484,19.233398,24.611328"/>
	<path id="path2" fill="#242424" d="M17.339844,1.583984c-1.920898,0.145508-3.385742,0.636719-5.724609,1.912109
		C9.193359,4.806641,7.655273,5.460938,5.371094,6.144531C4.570313,6.380859,4.541992,6.389648,4.460938,6.544922
		c-0.082031,0.154297-0.091797,11.768555,0,12.842773c0.191406,2.458008,0.727539,4.186523,1.875,6.125977
		c2.056641,3.466797,6.179688,6.744141,11.176758,8.882813l0.410156,0.173828h0.217773h0.21875l0.418945-0.181641
		c3.294922-1.419922,5.470703-2.814453,8.009766-5.107422c3.53125-3.203125,5.097656-6.689453,5.106445-11.349609
		c0.008789-2.94043-0.036133-11.341797-0.054688-11.386719c-0.054688-0.146484-0.191406-0.209961-0.973633-0.4375
		c-2.266602-0.664063-3.696289-1.246094-5.643555-2.311523C21.791016,1.929688,19.861328,1.392578,17.339844,1.583984
		 M19.251953,3.231445c1.692383,0.182617,2.848633,0.618164,5.460938,2.011719
		c2.075195,1.110352,3.03125,1.501953,4.314453,1.792969c0.836914,0.19043,1.165039,0.354492,1.383789,0.700195
		c0.236328,0.374023,0.263672,0.783203,0.254883,3.741211l-0.008789,2.157227l-0.045898,0.109375
		c-0.208984,0.464844-0.864258,0.473633-1.083008,0c-0.045898-0.09082-0.045898-0.109375-0.054688-2.530273l-0.008789-2.438477
		l-0.046875-0.136719c-0.117188-0.337891-0.299805-0.455078-0.845703-0.556641c-1.120117-0.19043-2.220703-0.645508-4.25-1.765625
		c-1.59375-0.873047-2.412109-1.255859-3.359375-1.556641c-2.148438-0.664063-4.37793-0.544922-6.617188,0.365234
		c-0.637695,0.263672-1.210938,0.545898-2.567383,1.273438C9.867188,7.427734,8.902344,7.836914,7.882813,8.046875
		c-0.80957,0.163086-1.000977,0.335938-1.064453,0.964844c-0.054688,0.564453-0.054688,8.701172,0,9.620117
		c0.154297,2.540039,0.545898,3.922852,1.56543,5.643555c0.40918,0.683594,0.482422,0.919922,0.400391,1.210938
		c-0.155273,0.537109-0.764648,0.4375-1.165039-0.191406c-0.9375-1.464844-1.620117-3.486328-1.883789-5.580078
		c-0.172852-1.392578-0.182617-1.829102-0.164063-7.035156l0.017578-4.305664l0.045898-0.164063
		c0.181641-0.672852,0.455078-0.864258,1.729492-1.201172c1.410156-0.374023,1.96582-0.610352,4.041016-1.710938
		c2.639648-1.401367,3.777344-1.821289,5.416016-2.030273C17.512695,3.176758,18.605469,3.158203,19.251953,3.231445
		 M19.206055,5.424805c1.310547,0.182617,2.239258,0.509766,3.549805,1.24707c1.775391,1.009766,3.267578,1.710938,4.6875,2.203125
		c0.692383,0.236328,0.855469,0.373047,0.956055,0.800781c0.063477,0.254883,0.027344,9.038086-0.045898,9.867188
		c-0.099609,1.238281-0.427734,2.419922-0.928711,3.429688c-1.282227,2.548828-4.368164,5.363281-7.745117,7.054688
		c-1.448242,0.720703-1.583984,0.738281-2.603516,0.255859c-2.330078-1.091797-4.095703-2.322266-5.852539-4.078125
		c-2.384766-2.384766-3.204102-4.105469-3.376953-7.099609c-0.054688-0.955078-0.09082-9.128906-0.036133-9.366211
		c0.108398-0.500977,0.236328-0.59082,1.529297-1.110352c0.518555-0.208984,1.164063-0.473633,1.4375-0.591797
		c0.837891-0.355469,0.928711-0.381836,1.128906-0.345703c0.582031,0.109375,0.673828,0.865234,0.145508,1.146484
		c-0.200195,0.109375-1.447266,0.628906-2.357422,0.992188c-0.555664,0.21875-0.619141,0.263672-0.655273,0.400391
		c-0.027344,0.109375-0.008789,8.183594,0.018555,8.729492c0.154297,2.594727,0.955078,4.305664,2.958008,6.317383
		c1.519531,1.529297,3.240234,2.757813,5.242188,3.748047c0.874023,0.4375,0.810547,0.4375,1.68457,0.011719
		c2.484375-1.203125,4.595703-2.841797,6.25293-4.853516c1.238281-1.501953,1.801758-2.875,1.902344-4.605469
		c0.063477-1.182617,0.136719-9.265625,0.082031-9.392578c-0.037109-0.091797-0.073242-0.099609-0.427734-0.228516
		c-1.128906-0.400391-1.993164-0.799805-4.168945-1.947266C21.345703,7.354492,20.97168,7.181641,20.435547,7
		c-2.00293-0.665039-3.969727-0.482422-6.007813,0.564453c-0.637695,0.327148-0.855469,0.354492-1.111328,0.117188
		c-0.363281-0.335938-0.253906-0.754883,0.282227-1.073242c1.128906-0.665039,2.50293-1.092773,3.896484-1.209961
		C17.813477,5.351563,18.896484,5.378906,19.206055,5.424805 M15.628906,10.84082
		c0.12793,0.063477,0.21875,0.172852,0.263672,0.318359c1.001953,3.286133,2.211914,7.181641,2.230469,7.181641
		c0.027344,0-0.036133,0.200195,1.192383-3.786133c0.582031-1.893555,1.083008-3.486328,1.110352-3.523438
		c0.12793-0.236328,0.172852-0.245117,1.638672-0.217773c1.319336,0.018555,1.291992,0.018555,1.356445,0.155273
		c0.036133,0.082031,0.017578,0.154297-0.801758,2.775391c-0.217773,0.691406-0.672852,2.175781-1.018555,3.294922
		c-1.620117,5.224609-1.629883,5.269531-1.72168,5.353516c-0.154297,0.134766-0.109375,0.134766-1.65625,0.144531
		c-2.06543,0.009766-1.829102,0.136719-2.229492-1.138672c-1.019531-3.257813-2.375977-7.599609-2.530273-8.119141
		c-0.100586-0.335938-0.282227-0.936523-0.400391-1.328125c-0.336914-1.091797-0.336914-1.101563,0.217773-1.128906
		C13.880859,10.786133,15.546875,10.804688,15.628906,10.84082 M30.310547,15.236328
		c0.282227,0.191406,0.328125,0.374023,0.355469,1.629883c0.044922,2.030273-0.109375,3.477539-0.573242,5.071289
		c-0.464844,1.626953-1.338867,3.339844-2.212891,4.349609c-0.072266,0.082031-0.226563,0.263672-0.335938,0.400391
		c-0.692383,0.828125-1.729492,1.802734-2.995117,2.822266c-1.546875,1.246094-3.349609,2.302734-5.460938,3.203125
		c-0.947266,0.410156-1.000977,0.400391-2.148438-0.099609c-2.466797-1.083984-4.432617-2.347656-6.461914-4.160156
		c-0.992188-0.882813-1.120117-1.009766-1.238281-1.228516c-0.237305-0.4375,0.154297-0.964844,0.610352-0.828125
		c0.181641,0.054688,0.308594,0.154297,0.864258,0.691406c2.102539,2.029297,4.232422,3.431641,6.908203,4.550781
		C18.177734,31.875,18.15918,31.875,19.460938,31.275391c3.431641-1.574219,6.462891-4.041016,8.24707-6.681641
		c0.773438-1.136719,1.410156-3.277344,1.647461-5.443359c0.0625-0.599609,0.072266-0.855469,0.09082-1.992188
		c0.018555-1.302734,0.036133-1.438477,0.145508-1.666016C29.74707,15.182617,30.06543,15.073242,30.310547,15.236328
		 M17.12207,24.558594c0.345703,0.171875,0.272461,0.701172-0.100586,0.78125
		c-0.30957,0.064453-0.582031-0.216797-0.491211-0.517578C16.602539,24.548828,16.875977,24.429688,17.12207,24.558594
		 M18.25,24.521484c0.182617,0.037109,0.336914,0.291016,0.291992,0.482422c-0.100586,0.445313-0.728516,0.445313-0.829102,0
		c-0.054688-0.246094,0.209961-0.554688,0.4375-0.5C18.168945,24.503906,18.213867,24.511719,18.25,24.521484 M19.542969,24.566406
		c0.217773,0.126953,0.282227,0.419922,0.118164,0.619141c-0.181641,0.236328-0.582031,0.191406-0.709961-0.082031
		C18.787109,24.730469,19.1875,24.357422,19.542969,24.566406"/>
	<path id="path3" fill="#2C3C64" d="M17.485352,1.510742c-0.044922,0-0.200195,0.018555-0.345703,0.02832
		c-1.78418,0.144531-3.294922,0.664063-5.542969,1.892578C9.138672,4.759766,7.619141,5.40625,5.352539,6.080078
		c-0.71875,0.209961-0.782227,0.236328-0.874023,0.328125C4.351563,6.535156,4.351563,6.47168,4.351563,8.728516
		c0,1.128906-0.008789,2.767578-0.018555,3.650391c-0.036133,2.785156,0.009766,6.47168,0.091797,7.373047
		c0.390625,4.324219,2.438477,7.691406,6.680664,10.986328c1.947266,1.509766,4.004883,2.712891,6.389648,3.712891
		l0.417969,0.183594h0.21875h0.21875l0.381836-0.164063c3.286133-1.394531,5.516602-2.8125,8.083008-5.142578
		c3.258789-2.958984,4.841797-6.144531,5.106445-10.286133c0.027344-0.464844,0.027344-0.665039,0.008789-7.163086L31.913086,6.5625
		l-0.045898-0.082031c-0.063477-0.126953-0.254883-0.208984-0.84668-0.381836
		c-2.366211-0.700195-3.786133-1.274414-5.779297-2.366211c-2.676758-1.457031-4.132813-1.994141-5.953125-2.193359
		C19.005859,1.510742,17.695313,1.484375,17.485352,1.510742 M18.915039,1.574219
		c1.929688,0.136719,3.450195,0.673828,6.298828,2.22168c1.956055,1.06543,3.385742,1.647461,5.643555,2.321289
		c0.782227,0.226563,0.918945,0.291016,0.972656,0.436523C31.849609,6.599609,31.885742,15,31.885742,17.94043
		c-0.008789,4.661133-1.575195,8.145508-5.106445,11.350586c-2.530273,2.302734-4.714844,3.685547-8.009766,5.105469
		l-0.418945,0.181641h-0.21875h-0.21875l-0.40918-0.171875c-4.988281-2.138672-9.111328-5.416016-11.167969-8.884766
		c-1.15625-1.947266-1.683594-3.675781-1.875-6.125c-0.082031-1.083008-0.082031-12.6875,0-12.842773
		C4.541992,6.398438,4.570313,6.389648,5.371094,6.15332c2.28418-0.682617,3.822266-1.338867,6.244141-2.649414
		C14.472656,1.929688,16.457031,1.411133,18.915039,1.574219 M17.367188,3.204102
		c-1.892578,0.155273-3.12207,0.583008-5.970703,2.09375C9.311523,6.398438,8.756836,6.634766,7.354492,7.008789
		c-1.283203,0.345703-1.546875,0.52832-1.728516,1.201172L5.580078,8.374023L5.5625,12.679688
		c-0.018555,5.206055-0.009766,5.642578,0.163086,7.035156c0.263672,2.103516,0.946289,4.115234,1.884766,5.580078
		c0.400391,0.628906,1.009766,0.728516,1.164063,0.191406C8.866211,25.195313,8.78418,24.958984,8.375,24.275391
		c-1.029297-1.720703-1.411133-3.103516-1.566406-5.643555c-0.054688-0.918945-0.054688-9.055664,0-9.620117
		c0.064453-0.628906,0.255859-0.801758,1.06543-0.964844c1.010742-0.209961,1.984375-0.610352,3.895508-1.648438
		C13.125977,5.670898,13.69043,5.388672,14.335938,5.125c2.239258-0.910156,4.469727-1.029297,6.617188-0.365234
		c0.947266,0.291992,1.775391,0.673828,3.359375,1.556641c2.029297,1.120117,3.130859,1.583984,4.250977,1.765625
		c0.545898,0.091797,0.737305,0.21875,0.845703,0.556641l0.045898,0.136719l0.009766,2.438477
		c0.008789,2.420898,0.008789,2.439453,0.053711,2.530273c0.21875,0.464844,0.874023,0.464844,1.083008,0l0.045898-0.109375
		l0.009766-2.157227c0.008789-2.966797-0.018555-3.375977-0.254883-3.741211
		c-0.228516-0.345703-0.555664-0.509766-1.383789-0.700195c-1.28418-0.291016-2.239258-0.682617-4.314453-1.792969
		c-2.366211-1.265625-3.431641-1.68457-4.861328-1.930664C19.1875,3.204102,18.032227,3.149414,17.367188,3.204102
		 M17.503906,5.378906c-1.392578,0.109375-2.767578,0.537109-3.895508,1.210938
		c-0.537109,0.318359-0.646484,0.737305-0.282227,1.074219c0.254883,0.236328,0.463867,0.208984,1.110352-0.119141
		c2.039063-1.045898,4.004883-1.236328,6.007813-0.563477c0.536133,0.182617,0.910156,0.354492,2.147461,1.010742
		c2.175781,1.146484,3.040039,1.546875,4.168945,1.947266c0.355469,0.12793,0.391602,0.146484,0.428711,0.227539
		c0.053711,0.12793-0.019531,8.209961-0.083008,9.393555c-0.099609,1.738281-0.664063,3.113281-1.901367,4.605469
		c-1.666992,2.011719-3.769531,3.650391-6.253906,4.851563c-0.882813,0.427734-0.810547,0.427734-1.683594-0.009766
		c-2.00293-0.992188-3.723633-2.220703-5.243164-3.748047c-2.001953-2.013672-2.803711-3.724609-2.958008-6.318359
		c-0.027344-0.537109-0.045898-8.610352-0.018555-8.728516c0.036133-0.136719,0.100586-0.173828,0.655273-0.400391
		c0.911133-0.364258,2.157227-0.892578,2.357422-0.992188c0.52832-0.283203,0.4375-1.037109-0.145508-1.146484
		c-0.200195-0.037109-0.282227-0.009766-1.128906,0.345703c-0.272461,0.117188-0.918945,0.381836-1.4375,0.59082
		C8.055664,9.128906,7.918945,9.230469,7.819336,9.720703c-0.054688,0.236328-0.018555,8.411133,0.036133,9.366211
		c0.172852,2.995117,0.992188,4.71582,3.385742,7.108398c1.756836,1.757813,3.513672,2.986328,5.853516,4.078125
		c1.018555,0.482422,1.155273,0.464844,2.602539-0.253906c3.376953-1.693359,6.462891-4.505859,7.746094-7.054688
		c0.509766-1.009766,0.829102-2.193359,0.928711-3.431641c0.063477-0.828125,0.109375-9.611328,0.045898-9.867188
		c-0.109375-0.427734-0.273438-0.564453-0.956055-0.800781c-1.419922-0.491211-2.913086-1.191406-4.6875-2.202148
		c-1.310547-0.74707-2.239258-1.074219-3.549805-1.24707C18.896484,5.378906,17.813477,5.351563,17.503906,5.378906
		 M19.196289,5.488281c1.311523,0.182617,2.230469,0.509766,3.578125,1.275391c1.765625,1,3.267578,1.701172,4.706055,2.202148
		c0.599609,0.209961,0.736328,0.318359,0.854492,0.691406c0.074219,0.237305,0.045898,8.96582-0.036133,9.893555
		c-0.208984,2.541016-1.192383,4.460938-3.404297,6.664063c-1.619141,1.611328-3.358398,2.847656-5.452148,3.867188
		c-1.374023,0.666016-1.374023,0.666016-3.103516-0.226563c-2.658203-1.365234-4.988281-3.277344-6.581055-5.40625
		c-1.219727-1.621094-1.710938-3.050781-1.838867-5.34375c-0.063477-1.074219-0.09082-9.166016-0.026367-9.393555
		c0.118164-0.455078,0.199219-0.518555,1.519531-1.045898c0.518555-0.209961,1.165039-0.474609,1.438477-0.591797
		c0.836914-0.355469,0.955078-0.382813,1.173828-0.291016c0.355469,0.154297,0.436523,0.636719,0.154297,0.882813
		c-0.126953,0.109375-1.12793,0.544922-2.639648,1.155273c-0.445313,0.182617-0.518555,0.227539-0.554688,0.400391
		c-0.036133,0.145508-0.018555,8.155273,0.017578,8.738281c0.082031,1.391602,0.319336,2.411133,0.819336,3.450195
		c1.092773,2.292969,4.069336,4.988281,7.318359,6.607422c0.992188,0.5,0.9375,0.492188,1.857422,0.054688
		c1.893555-0.910156,3.686523-2.175781,5.115234-3.613281c2.09375-2.09375,2.94043-3.732422,3.067383-5.908203
		c0.073242-1.291992,0.136719-9.283203,0.073242-9.419922c-0.045898-0.099609-0.110352-0.136719-0.446289-0.254883
		c-1.074219-0.374023-2.066406-0.836914-4.205078-1.96582c-1.592773-0.837891-2.084961-1.046875-2.995117-1.228516
		c-1.78418-0.365234-3.413086-0.100586-5.251953,0.836914c-0.646484,0.327148-0.910156,0.318359-1.101563-0.063477
		c-0.154297-0.30957-0.036133-0.564453,0.382813-0.810547c1.119141-0.664063,2.494141-1.091797,3.876953-1.210938
		C17.804688,5.416016,18.896484,5.443359,19.196289,5.488281 M29.928711,15.173828
		c-0.400391,0.135742-0.455078,0.345703-0.482422,1.974609c-0.054688,3.513672-0.728516,6.089844-2.066406,7.900391
		c-2.001953,2.712891-5.169922,5.087891-8.74707,6.582031c-0.519531,0.216797-0.509766,0.216797-1.019531,0
		c-2.675781-1.121094-4.805664-2.521484-6.908203-4.550781c-0.555664-0.539063-0.682617-0.638672-0.865234-0.693359
		C9.384766,26.25,8.993164,26.779297,9.229492,27.214844c0.119141,0.21875,0.246094,0.345703,1.238281,1.230469
		c2.030273,1.810547,3.996094,3.076172,6.462891,4.158203c1.146484,0.501953,1.209961,0.501953,2.148438,0.099609
		c2.111328-0.910156,3.914063-1.955078,5.460938-3.203125c1.264648-1.019531,2.302734-1.994141,2.995117-2.822266
		c0.118164-0.136719,0.263672-0.318359,0.335938-0.400391c1.420898-1.638672,2.476563-4.396484,2.72168-7.117188
		c0.073242-0.828125,0.082031-2.912109,0.008789-3.339844C30.538086,15.337891,30.24707,15.073242,29.928711,15.173828"/>
	<path id="path4" fill="#B4B4B4" d="M13.180664,10.876953c-0.355469,0.018555-0.373047,0.072266-0.172852,0.71875
		c0.063477,0.21875,0.236328,0.773438,0.373047,1.238281c0.746094,2.466797,2.912109,9.375,2.976563,9.466797
		c0.027344,0.044922,0.09082,0.099609,0.136719,0.126953l0.09082,0.044922h1.538086h1.538086l0.09082-0.044922
		c0.173828-0.091797,0.136719,0.009766,2.630859-8.064453c0.119141-0.390625,0.345703-1.110352,0.500977-1.601563
		c0.154297-0.492188,0.299805-0.974609,0.327148-1.074219s0.082031-0.263672,0.109375-0.365234
		c0.145508-0.455078,0.227539-0.426758-1.383789-0.435547l-1.265625-0.009766l-0.081055,0.054688
		c-0.044922,0.027344-0.100586,0.09082-0.12793,0.145508c-0.036133,0.073242-1.411133,4.478516-2.157227,6.917969
		c-0.135742,0.463867-0.172852,0.52832-0.208984,0.482422c-0.008789-0.018555-0.518555-1.666016-1.137695-3.667969
		c-1.137695-3.696289-1.147461-3.732422-1.219727-3.813477c-0.118164-0.128906-0.091797-0.128906-1.274414-0.119141
		C13.87207,10.859375,13.298828,10.867188,13.180664,10.876953 M15.637695,10.958984
		c0.119141,0.082031,0.082031-0.044922,1.265625,3.814453c1.265625,4.113281,1.155273,3.794922,1.219727,3.794922
		c0.063477,0,0.054688,0.008789,0.291016-0.746094c0.956055-3.103516,2.030273-6.589844,2.057617-6.663086
		c0.044922-0.118164,0.145508-0.217773,0.246094-0.245117c0.154297-0.046875,2.493164,0,2.566406,0.044922
		c0.081055,0.054688,0.118164-0.091797-0.455078,1.78418c-0.154297,0.500977-0.4375,1.411133-0.62793,2.030273
		c-0.191406,0.618164-0.446289,1.447266-0.573242,1.865234c-0.12793,0.410156-0.355469,1.128906-0.491211,1.592773
		c-0.74707,2.430664-1.239258,3.977539-1.275391,4.032227c-0.118164,0.173828-0.12793,0.173828-1.738281,0.173828
		c-1.620117,0-1.628906,0-1.738281-0.201172c-0.045898-0.089844-2.430664-7.726563-3.049805-9.748047
		c-0.436523-1.447266-0.445313-1.484375-0.345703-1.539063c0.063477-0.026367,0.52832-0.044922,1.547852-0.044922h1.018555
		L15.637695,10.958984 M16.766602,24.59375c-0.345703,0.208984-0.227539,0.701172,0.164063,0.701172
		c0.30957,0,0.473633-0.328125,0.30957-0.582031C17.139648,24.566406,16.90332,24.503906,16.766602,24.59375 M17.958984,24.59375
		c-0.336914,0.181641-0.21875,0.701172,0.154297,0.701172c0.400391,0,0.52832-0.519531,0.172852-0.701172
		C18.195313,24.539063,18.058594,24.539063,17.958984,24.59375 M19.151367,24.603516
		c-0.336914,0.189453-0.200195,0.691406,0.181641,0.691406c0.209961,0,0.364258-0.164063,0.364258-0.373047
		C19.697266,24.638672,19.397461,24.466797,19.151367,24.603516 M17.103516,24.658203
		c0.208984,0.144531,0.191406,0.455078-0.036133,0.564453s-0.482422-0.082031-0.455078-0.337891
		C16.648438,24.658203,16.920898,24.521484,17.103516,24.658203 M18.277344,24.638672
		c0.236328,0.128906,0.236328,0.447266,0,0.564453c-0.381836,0.191406-0.664063-0.363281-0.291016-0.564453
		c0.045898-0.027344,0.118164-0.044922,0.145508-0.044922S18.222656,24.611328,18.277344,24.638672 M19.460938,24.630859
		c0.291016,0.136719,0.236328,0.564453-0.082031,0.609375c-0.30957,0.044922-0.491211-0.345703-0.254883-0.564453
		C19.214844,24.59375,19.333008,24.576172,19.460938,24.630859"/>
	<path id="path5" fill="#719CCC" d="M3.359375,5.361328L3.25,5.479492L3.359375,5.361328
		c0.118164-0.099609,0.136719-0.118164,0.118164-0.118164C3.477539,5.243164,3.422852,5.288086,3.359375,5.361328
		 M32.876953,5.371094c0.064453,0.0625,0.119141,0.108398,0.119141,0.108398c0.008789,0-0.036133-0.054688-0.100586-0.108398
		c-0.063477-0.064453-0.118164-0.109375-0.118164-0.109375S32.823242,5.306641,32.876953,5.371094 M31.558594,25.777344
		c-0.019531,0.044922-0.019531,0.044922,0.008789,0.044922c0.008789,0,0.017578-0.007813,0.008789-0.017578
		s0-0.017578,0.008789-0.027344c0.018555-0.009766,0.018555-0.009766,0-0.017578
		C31.576172,25.75,31.567383,25.759766,31.558594,25.777344 M31.448242,25.976563c-0.017578,0.037109-0.017578,0.037109,0,0.037109
		c0.037109,0,0.063477-0.054688,0.037109-0.072266C31.475586,25.941406,31.458008,25.949219,31.448242,25.976563
		 M31.393555,26.105469c-0.027344,0.035156-0.054688,0.072266-0.072266,0.082031c-0.008789,0.007813-0.008789,0.017578,0,0.017578
		s0,0.017578-0.018555,0.027344c-0.027344,0.027344-0.036133,0.027344-0.008789,0.027344
		c0.018555,0,0.063477-0.054688,0.099609-0.109375C31.466797,26.023438,31.466797,25.996094,31.393555,26.105469
		 M31.211914,26.414063c-0.018555,0.017578-0.027344,0.027344-0.036133,0.017578c-0.009766,0-0.018555,0.019531-0.018555,0.046875
		s0,0.044922,0,0.044922C31.257813,26.396484,31.285156,26.332031,31.211914,26.414063 M31.112305,26.578125
		c-0.018555,0.017578-0.037109,0.027344-0.045898,0.017578c-0.009766-0.007813-0.018555,0-0.009766,0.009766
		c0.009766,0.007813,0,0.044922-0.017578,0.072266c-0.018555,0.027344-0.027344,0.054688-0.027344,0.064453
		c0,0,0.036133-0.037109,0.072266-0.091797C31.148438,26.550781,31.166016,26.515625,31.112305,26.578125 M30.866211,26.970703
		c-0.073242,0.099609-0.136719,0.189453-0.136719,0.199219c-0.008789,0.009766-0.044922,0.064453-0.09082,0.126953
		c-0.045898,0.064453-0.09082,0.128906-0.109375,0.154297c-0.017578,0.019531-0.09082,0.128906-0.172852,0.228516
		c-0.073242,0.099609-0.145508,0.201172-0.154297,0.208984c-0.009766,0.017578-0.018555,0.027344-0.009766,0.027344
		c0.009766,0,0.099609-0.119141,0.21875-0.273438c0.236328-0.318359,0.609375-0.855469,0.591797-0.855469
		C30.993164,26.779297,30.929688,26.859375,30.866211,26.970703 M6.945313,28.925781C6.982422,28.962891,7.018555,29,7.027344,29
		s-0.018555-0.037109-0.063477-0.074219c-0.036133-0.035156-0.073242-0.072266-0.082031-0.072266
		S6.899414,28.880859,6.945313,28.925781 M29.200195,29.072266l-0.073242,0.072266L29.200195,29.072266
		C29.246094,29.037109,29.282227,29.007813,29.282227,29C29.282227,28.990234,29.263672,29,29.200195,29.072266 M7.21875,29.226563
		c0.082031,0.082031,0.145508,0.146484,0.154297,0.146484c0.009766,0-0.054688-0.064453-0.136719-0.146484
		c-0.081055-0.082031-0.145508-0.144531-0.154297-0.144531C7.082031,29.082031,7.145508,29.144531,7.21875,29.226563
		 M28.917969,29.373047l-0.145508,0.144531L28.917969,29.373047c0.145508-0.126953,0.164063-0.146484,0.145508-0.146484
		C29.063477,29.226563,29,29.291016,28.917969,29.373047 M7.701172,29.71875c0.254883,0.263672,0.291016,0.291016,0.291016,0.273438
		C7.992188,30,7.864258,29.873047,7.701172,29.71875l-0.273438-0.283203L7.701172,29.71875 M28.526367,29.783203l-0.181641,0.189453
		L28.526367,29.783203c0.182617-0.166016,0.209961-0.191406,0.191406-0.191406
		C28.717773,29.591797,28.626953,29.681641,28.526367,29.783203 M28.117188,30.173828l-0.145508,0.144531L28.117188,30.173828
		c0.145508-0.126953,0.164063-0.146484,0.145508-0.146484C28.262695,30.027344,28.199219,30.091797,28.117188,30.173828
		 M8.210938,30.208984c0.082031,0.083984,0.145508,0.146484,0.154297,0.146484c0.009766,0-0.054688-0.0625-0.136719-0.146484
		c-0.081055-0.080078-0.145508-0.144531-0.154297-0.144531S8.128906,30.128906,8.210938,30.208984 M27.807617,30.464844
		l-0.082031,0.091797L27.807617,30.464844c0.09082-0.074219,0.099609-0.091797,0.09082-0.091797
		S27.853516,30.410156,27.807617,30.464844 M8.520508,30.501953c0.044922,0.044922,0.082031,0.082031,0.09082,0.082031
		s-0.027344-0.037109-0.073242-0.082031c-0.044922-0.046875-0.082031-0.082031-0.09082-0.082031
		S8.474609,30.455078,8.520508,30.501953 M27.580078,30.664063l-0.063477,0.064453L27.580078,30.664063
		c0.073242-0.044922,0.082031-0.0625,0.064453-0.0625C27.644531,30.601563,27.616211,30.628906,27.580078,30.664063"/>
	<path id="path6" fill="#545454" d="M13.280273,10.813477c-0.545898,0.027344-0.554688,0.036133-0.217773,1.128906
		c0.118164,0.391602,0.299805,0.983398,0.400391,1.329102c0.154297,0.517578,1.510742,4.869141,2.530273,8.119141
		c0.400391,1.273438,0.164063,1.15625,2.229492,1.136719c1.546875-0.009766,1.501953-0.009766,1.65625-0.146484
		c0.091797-0.080078,0.101563-0.125,1.72168-5.350586c0.345703-1.120117,0.80957-2.602539,1.018555-3.295898
		c0.819336-2.621094,0.837891-2.693359,0.801758-2.775391c-0.064453-0.136719-0.037109-0.136719-1.356445-0.154297
		c-1.456055-0.027344-1.510742-0.018555-1.638672,0.217773c-0.027344,0.045898-0.519531,1.629883-1.110352,3.522461
		c-1.228516,3.987305-1.165039,3.787109-1.192383,3.787109c-0.018555,0-1.228516-3.896484-2.230469-7.181641
		c-0.044922-0.154297-0.135742-0.263672-0.263672-0.318359C15.546875,10.804688,13.880859,10.786133,13.280273,10.813477
		 M15.620117,10.895508c0.09082,0.045898,0.154297,0.108398,0.19043,0.200195
		c0.018555,0.037109,0.537109,1.702148,1.147461,3.704102c0.609375,2.00293,1.128906,3.650391,1.137695,3.668945
		c0.036133,0.054688,0.073242-0.018555,0.208984-0.482422c0.746094-2.439453,2.121094-6.845703,2.157227-6.917969
		c0.027344-0.054688,0.083008-0.109375,0.12793-0.145508l0.081055-0.055664l1.265625,0.009766
		c1.611328,0.009766,1.529297-0.017578,1.383789,0.4375c-0.036133,0.109375-0.082031,0.273438-0.109375,0.363281
		c-0.027344,0.100586-0.172852,0.574219-0.327148,1.074219c-0.155273,0.492188-0.373047,1.210938-0.500977,1.601563
		c-2.494141,8.074219-2.457031,7.982422-2.630859,8.064453l-0.09082,0.046875h-1.538086h-1.538086l-0.09082-0.046875
		c-0.045898-0.025391-0.109375-0.082031-0.136719-0.126953c-0.054688-0.091797-2.230469-7-2.976563-9.466797
		c-0.136719-0.455078-0.30957-1.009766-0.373047-1.236328c-0.200195-0.646484-0.182617-0.701172,0.172852-0.720703
		C13.799805,10.84082,15.538086,10.849609,15.620117,10.895508 M16.839844,24.511719
		c-0.291992,0.072266-0.428711,0.417969-0.254883,0.65625c0.236328,0.326172,0.754883,0.164063,0.764648-0.238281
		C17.349609,24.667969,17.094727,24.449219,16.839844,24.511719 M18.022461,24.521484
		c-0.518555,0.136719-0.327148,0.9375,0.200195,0.818359c0.410156-0.091797,0.4375-0.728516,0.037109-0.808594
		c-0.037109-0.009766-0.082031-0.019531-0.100586-0.019531S18.077148,24.503906,18.022461,24.521484 M19.251953,24.511719
		c-0.355469,0.082031-0.456055,0.509766-0.182617,0.736328c0.237305,0.201172,0.591797,0.083984,0.673828-0.226563
		C19.816406,24.740234,19.53418,24.439453,19.251953,24.511719 M17.103516,24.59375c0.263672,0.136719,0.263672,0.519531,0,0.654297
		c-0.355469,0.183594-0.71875-0.253906-0.455078-0.554688C16.766602,24.548828,16.939453,24.511719,17.103516,24.59375
		 M18.295898,24.59375c0.354492,0.181641,0.227539,0.701172-0.172852,0.701172c-0.291992,0-0.464844-0.355469-0.291992-0.582031
		C17.941406,24.558594,18.140625,24.511719,18.295898,24.59375 M19.488281,24.583984
		c0.263672,0.136719,0.291992,0.509766,0.036133,0.65625c-0.272461,0.164063-0.618164-0.072266-0.564453-0.390625
		C19.005859,24.630859,19.288086,24.484375,19.488281,24.583984"/>
</g>
</svg>
